<svg width="56" height="41" viewBox="0 0 56 41" fill="none" xmlns="http://www.w3.org/2000/svg">
<circle cx="28.5" cy="20.5" r="20.5" fill="#ECDFFD"/>
<circle cx="16" cy="17" r="16" fill="#ECDFFD"/>
<circle cx="45" cy="27" r="11" fill="#ECDFFD"/>
<path d="M20.2119 19.7354C20.5335 19.4053 20.8721 19.0794 21.2275 18.7578C21.5915 18.4277 21.9681 18.1357 22.3574 17.8818C22.7552 17.6195 23.1699 17.4079 23.6016 17.2471C24.0332 17.0863 24.486 17.0059 24.96 17.0059C25.2393 17.0059 25.527 17.0397 25.8232 17.1074C26.1195 17.1667 26.3861 17.2682 26.623 17.4121C26.8685 17.556 27.0674 17.7422 27.2197 17.9707C27.3721 18.1992 27.4482 18.4785 27.4482 18.8086C27.4482 19.3503 27.3213 19.8411 27.0674 20.2812C26.8219 20.7214 26.5003 21.1149 26.1025 21.4619C25.7048 21.8089 25.2604 22.1178 24.7695 22.3887C24.2871 22.651 23.8132 22.8753 23.3477 23.0615C23.2292 23.1123 23.1191 23.18 23.0176 23.2646C22.916 23.3408 22.8271 23.4255 22.751 23.5186C22.6833 23.6032 22.6283 23.6921 22.5859 23.7852C22.5436 23.8698 22.5225 23.9417 22.5225 24.001C22.5225 24.1025 22.5521 24.1914 22.6113 24.2676C22.679 24.3353 22.7933 24.3691 22.9541 24.3691C23.2673 24.3691 23.6227 24.3057 24.0205 24.1787C24.4183 24.0518 24.8796 23.8613 25.4043 23.6074C25.9375 23.3451 26.5426 23.015 27.2197 22.6172C27.9053 22.2194 28.6924 21.7497 29.5811 21.208C29.7249 21.1234 29.8604 21.0811 29.9873 21.0811C30.1481 21.0811 30.2751 21.1403 30.3682 21.2588C30.4613 21.3773 30.5078 21.5339 30.5078 21.7285C30.5078 21.9655 30.4189 22.2363 30.2412 22.541C30.0719 22.8372 29.7842 23.1208 29.3779 23.3916C28.8109 23.7386 28.2311 24.0983 27.6387 24.4707C27.0462 24.8431 26.4368 25.1859 25.8105 25.499C25.1842 25.8037 24.541 26.0534 23.8809 26.248C23.2207 26.4512 22.5436 26.5527 21.8496 26.5527C20.6478 26.5527 20.0469 26.0322 20.0469 24.9912C20.0469 24.4411 20.1611 23.9587 20.3896 23.5439C20.6266 23.1208 20.9102 22.7526 21.2402 22.4395C21.5788 22.1263 21.93 21.8597 22.2939 21.6396C22.6579 21.4111 22.971 21.208 23.2334 21.0303C23.4365 20.9118 23.627 20.7848 23.8047 20.6494C23.9824 20.514 24.139 20.3743 24.2744 20.2305C24.4183 20.0866 24.5283 19.9427 24.6045 19.7988C24.6891 19.6465 24.7314 19.4941 24.7314 19.3418C24.7314 19.0964 24.6172 18.9736 24.3887 18.9736C23.5423 18.9736 22.3574 19.7904 20.834 21.4238C20.487 21.7962 20.1696 22.1602 19.8818 22.5156C19.5941 22.8626 19.3232 23.2054 19.0693 23.5439C18.8239 23.8825 18.5869 24.2126 18.3584 24.5342C18.1299 24.8473 17.9056 25.1478 17.6855 25.4355C17.0254 26.1803 16.4372 26.5527 15.9209 26.5527C15.6755 26.5527 15.4977 26.5062 15.3877 26.4131C15.2777 26.3285 15.2227 26.1634 15.2227 25.918C15.2227 25.8841 15.2227 25.8503 15.2227 25.8164C15.2227 25.7826 15.2269 25.7445 15.2354 25.7021C15.2523 25.5329 15.3242 25.2747 15.4512 24.9277C15.5781 24.5807 15.7347 24.1872 15.9209 23.7471C16.1156 23.307 16.3271 22.8372 16.5557 22.3379C16.7926 21.8385 17.0254 21.3519 17.2539 20.8779C17.4824 20.3955 17.6982 19.9469 17.9014 19.5322C18.1045 19.109 18.2738 18.7578 18.4092 18.4785L22.4209 10.29C22.4717 10.18 22.5479 10.0742 22.6494 9.97266C22.7594 9.87109 22.8779 9.78223 23.0049 9.70605C23.1403 9.62142 23.2799 9.55794 23.4238 9.51562C23.5762 9.46484 23.7285 9.43945 23.8809 9.43945C24.2617 9.43945 24.5241 9.51139 24.668 9.65527C24.8203 9.79915 24.8965 9.97266 24.8965 10.1758C24.8965 10.362 24.8499 10.5566 24.7568 10.7598C24.6722 10.9629 24.5706 11.1533 24.4521 11.3311C24.0967 11.9658 23.7412 12.6429 23.3857 13.3623C23.0387 14.0732 22.6917 14.7969 22.3447 15.5332C21.9977 16.2695 21.6465 16.9974 21.291 17.7168C20.9355 18.4277 20.5758 19.1006 20.2119 19.7354ZM33.8446 17.1455C34.0562 17.1455 34.2382 17.1624 34.3905 17.1963C34.5429 17.2301 34.6698 17.3063 34.7714 17.4248C34.873 17.5348 34.9491 17.6872 34.9999 17.8818C35.0507 18.068 35.0761 18.3135 35.0761 18.6182V20.0781L37.8945 17.7168C38.3261 17.3613 38.7577 17.1836 39.1894 17.1836C39.4433 17.1836 39.6549 17.2428 39.8241 17.3613C39.9934 17.4798 40.078 17.6364 40.078 17.8311C40.078 17.9495 40.0357 18.0765 39.9511 18.2119C39.8749 18.3473 39.7564 18.4827 39.5956 18.6182L35.3808 22.1729L35.5331 23.8994C35.5331 24.3141 35.6812 24.5215 35.9775 24.5215C36.2991 24.5215 36.7011 24.403 37.1835 24.166C37.6659 23.9206 38.2245 23.5693 38.8593 23.1123L40.3193 22.0459C40.4716 21.9528 40.6282 21.9062 40.789 21.9062C40.9667 21.9062 41.1106 21.9697 41.2206 22.0967C41.3391 22.2152 41.3984 22.3717 41.3984 22.5664C41.3984 22.778 41.318 23.0234 41.1571 23.3027C41.0048 23.582 40.7255 23.8613 40.3193 24.1406C39.6845 24.5892 39.1259 24.9658 38.6435 25.2705C38.1695 25.5752 37.7336 25.8249 37.3359 26.0195C36.9465 26.2057 36.5826 26.3411 36.2441 26.4258C35.914 26.5104 35.5797 26.5527 35.2411 26.5527C34.4794 26.5527 33.9081 26.3369 33.5273 25.9053C33.1549 25.4736 32.9687 24.7754 32.9687 23.8105L30.2011 26.1973C30.0403 26.3242 29.8795 26.4131 29.7187 26.4639C29.5494 26.5231 29.3928 26.5527 29.2489 26.5527C28.9781 26.5527 28.7496 26.4808 28.5634 26.3369C28.3772 26.193 28.2841 26.0153 28.2841 25.8037C28.2841 25.5667 28.4364 25.334 28.7411 25.1055L32.6513 21.7031V18.6182C32.6513 18.2373 32.7105 17.9453 32.829 17.7422C32.9475 17.5391 33.0787 17.3952 33.2226 17.3105C33.3665 17.2174 33.5019 17.1667 33.6288 17.1582C33.7558 17.1497 33.8277 17.1455 33.8446 17.1455Z" fill="#474747"/>
</svg>
