<svg width="12" height="12" viewBox="0 0 12 12" fill="none" xmlns="http://www.w3.org/2000/svg">
<path fill-rule="evenodd" clip-rule="evenodd" d="M11.8363 0.331414C11.872 0.417171 11.8756 0.509181 11.8649 0.600298V5.19097C11.8649 5.48665 11.6255 5.72695 11.3289 5.72695C11.0332 5.72695 10.7929 5.48665 10.7929 5.19097V1.84288L7.10987 5.52596C6.90083 5.73499 6.56138 5.73499 6.35145 5.52596C6.14242 5.31692 6.14242 4.97747 6.35145 4.76754L10.0479 1.07196H6.68644C6.39076 1.07196 6.15046 0.832556 6.15046 0.53598C6.15046 0.240298 6.39076 0 6.68644 0H11.3414C11.3432 0 11.3459 0.0008933 11.3477 0.0008933C11.4156 0.0017866 11.4826 0.0151861 11.546 0.0410918C11.6773 0.0955831 11.7818 0.200099 11.8363 0.331414ZM9.81022 6.16359C10.1032 6.16359 10.3444 6.40479 10.3453 6.69779V11.0026C10.3444 11.0767 10.3319 11.3376 10.1345 11.5663C9.88437 11.8575 9.5333 11.87 9.47702 11.8709H0.867395C0.81201 11.8691 0.436824 11.8539 0.188486 11.5413C0.0142928 11.3224 0.0008933 11.0839 0 11.0026V2.39297C0 2.2554 0.0580645 1.95526 0.290323 1.74622C0.469876 1.58364 0.696774 1.53719 0.867395 1.52558H5.17221C5.4661 1.52647 5.7064 1.76766 5.70729 2.05977C5.70729 2.35367 5.467 2.59575 5.17221 2.59665L1.07285 2.59843V10.7971H9.27156C9.27246 9.43129 9.27246 8.06454 9.27335 6.69779C9.27424 6.40389 9.51722 6.1627 9.81022 6.16359Z" fill="white"/>
</svg>
