<svg width="100" height="100" viewBox="0 0 100 100" fill="none" xmlns="http://www.w3.org/2000/svg">
<path d="M38.3196 54.187H44.6629C45.214 54.187 45.6614 53.74 45.6614 53.187V47.552C45.6614 45.249 43.7902 43.375 41.4917 43.375C39.1923 43.375 37.3211 45.249 37.3211 47.552V53.187C37.3211 53.739 37.7684 54.187 38.3196 54.187ZM39.3181 47.552C39.3181 46.352 40.2936 45.375 41.4917 45.375C42.6899 45.375 43.6644 46.352 43.6644 47.552V52.187H39.3181V47.552Z" fill="white"/>
<path d="M38.3196 39.708H44.6629C45.214 39.708 45.6614 39.261 45.6614 38.708V33.072C45.6614 30.769 43.7902 28.896 41.4917 28.896C39.1923 28.896 37.3211 30.769 37.3211 33.072V38.708C37.3211 39.261 37.7684 39.708 38.3196 39.708ZM39.3181 33.072C39.3181 31.872 40.2936 30.896 41.4917 30.896C42.6899 30.896 43.6644 31.872 43.6644 33.072V37.708H39.3181V33.072Z" fill="white"/>
<path d="M30.0712 54.187C30.6224 54.187 31.0697 53.74 31.0697 53.187V47.552C31.0697 45.249 29.1985 43.375 26.8991 43.375C24.5996 43.375 22.7294 45.249 22.7294 47.552V53.187C22.7294 53.74 23.1768 54.187 23.7279 54.187H30.0712ZM24.7264 47.552C24.7264 46.352 25.7009 45.375 26.8991 45.375C28.0972 45.375 29.0727 46.352 29.0727 47.552V52.187H24.7264V47.552Z" fill="white"/>
<path d="M23.7279 39.708H30.0712C30.6224 39.708 31.0697 39.261 31.0697 38.708V33.072C31.0697 30.769 29.1985 28.896 26.8991 28.896C24.5996 28.896 22.7294 30.769 22.7294 33.072V38.708C22.7294 39.261 23.1768 39.708 23.7279 39.708ZM24.7264 33.072C24.7264 31.872 25.7009 30.896 26.8991 30.896C28.0972 30.896 29.0727 31.872 29.0727 33.072V37.708H24.7264V33.072Z" fill="white"/>
<path d="M90.0305 56.2871C90.0305 54.1281 89.3505 52.0431 88.0635 50.2581C87.9666 50.1241 87.8668 49.9921 87.7639 49.8621C88.2173 48.7801 88.4469 47.6471 88.4469 46.4861C88.4469 44.4751 87.749 42.5201 86.4689 40.9151C86.8204 40.0281 86.9981 39.1031 86.9981 38.1561C86.9981 38.0211 86.9941 37.8861 86.9871 37.7511C86.7605 33.5011 83.0232 30.1711 78.4781 30.1711C73.7803 30.1711 69.9582 33.7531 69.9582 38.1561C69.9582 39.1031 70.1359 40.0281 70.4874 40.9151C70.2078 41.2651 69.9622 41.6351 69.7395 42.0151C68.8599 41.6351 67.8993 41.4241 66.9248 41.4241C63.2085 41.4241 60.1851 44.2651 60.1851 47.7561C60.1851 48.4641 60.3099 49.1561 60.5566 49.8221C59.6 51.0691 59.0798 52.5701 59.0798 54.1141C59.0798 54.9861 59.2436 55.8381 59.5671 56.6551C58.4688 58.0901 57.8707 59.8211 57.8707 61.5951C57.8707 65.9631 61.4143 69.5681 65.9493 70.0251L65.9733 78.0841H52.9622V23.3471H54.5308C55.0819 23.3471 55.5293 22.9001 55.5293 22.3471V17.3361C55.5293 16.7831 55.0819 16.3361 54.5308 16.3361H39.1813V11.3361C39.1813 10.7831 38.734 10.3361 38.1828 10.3361H31.3602C30.8091 10.3361 30.3618 10.7831 30.3618 11.3361V16.3361H28.0004V11.3361C28.0004 10.7831 27.5531 10.3361 27.0019 10.3361H20.1793C19.6282 10.3361 19.1809 10.7831 19.1809 11.3361V16.3361H13.86C13.3089 16.3361 12.8615 16.7831 12.8615 17.3361V22.3471C12.8615 22.9001 13.3089 23.3471 13.86 23.3471H15.3328V78.0861H14.2304C13.6793 78.0861 13.232 78.5331 13.232 79.0861V83.3001H11.0264C10.4752 83.3001 10.0279 83.7471 10.0279 84.3001V89.3361C10.0279 89.8891 10.4752 90.3361 11.0264 90.3361H88.9072C89.4584 90.3361 89.9057 89.8891 89.9057 89.3361V84.3001C89.9057 83.7471 89.4584 83.3001 88.9072 83.3001H86.7026V79.0861C86.7026 78.5331 86.2552 78.0861 85.7041 78.0861H79.5385L79.5036 67.0391C85.3936 66.5521 90.0305 61.9201 90.0305 56.2871ZM78.4791 32.1711C81.9618 32.1711 84.8234 34.6691 84.9942 37.8561C84.9992 37.9561 85.0022 38.0551 85.0022 38.1571C85.0022 39.0121 84.8015 39.8471 84.4071 40.6381C84.2214 41.0101 84.2843 41.4571 84.5658 41.7631C85.781 43.0841 86.451 44.7621 86.451 46.4871C86.451 47.5511 86.1993 48.5891 85.7021 49.5701C85.5154 49.9381 85.5743 50.3831 85.8499 50.6901C86.0615 50.9261 86.2612 51.1731 86.446 51.4291C87.4854 52.8711 88.0345 54.5511 88.0345 56.2871C88.0345 60.8231 84.2893 64.5671 79.4976 65.0361L79.4826 60.4841L82.8425 57.1191C83.2329 56.7281 83.2329 56.0961 82.8425 55.7051C82.4521 55.3141 81.821 55.3141 81.4306 55.7051L79.4736 57.6651L79.4616 53.8821C79.4596 53.3301 79.0133 52.8851 78.4632 52.8851C78.4622 52.8851 78.4612 52.8851 78.4602 52.8851C77.909 52.8871 77.4627 53.3361 77.4647 53.8881L77.4767 57.5281L75.6565 55.7051C75.2661 55.3141 74.635 55.3141 74.2446 55.7051C73.8542 56.0961 73.8542 56.7281 74.2446 57.1191L77.4857 60.3651L77.5006 65.0421C72.69 64.5891 68.9248 60.8351 68.9248 56.2871C68.9248 54.2491 69.7006 52.2611 71.1094 50.6891C71.385 50.3821 71.4429 49.9371 71.2562 49.5691C70.76 48.5891 70.5073 47.5501 70.5073 46.4861C70.5073 44.7611 71.1763 43.0841 72.3915 41.7621C72.673 41.4561 72.7359 41.0081 72.5502 40.6371C72.1548 39.8471 71.9551 39.0121 71.9551 38.1561C71.9561 34.8551 74.8827 32.1711 78.4791 32.1711ZM59.8686 61.5971C59.8686 60.1011 60.4397 58.6391 61.4762 57.4831C61.7507 57.1761 61.8097 56.7311 61.6239 56.3631C61.2615 55.6471 61.0778 54.8901 61.0778 54.1161C61.0778 52.8601 61.566 51.6371 62.4537 50.6721C62.7342 50.3661 62.7971 49.9181 62.6124 49.5471C62.3279 48.9771 62.1831 48.3751 62.1831 47.7581C62.1831 45.3691 64.3108 43.4261 66.9258 43.4261C67.6218 43.4261 68.3047 43.5741 68.9298 43.8411C68.6592 44.6951 68.5104 45.5851 68.5104 46.4871C68.5104 47.6491 68.739 48.7821 69.1934 49.8641C67.7276 51.7161 66.9268 53.9721 66.9268 56.2881C66.9268 60.2051 69.1764 63.6321 72.5233 65.5251C71.397 66.8771 69.7575 67.7631 67.9413 68.0051L67.9293 63.9171C67.9283 63.3651 67.481 62.9201 66.9308 62.9201C66.9298 62.9201 66.9288 62.9201 66.9278 62.9201C66.3767 62.9221 65.9303 63.3701 65.9323 63.9231L65.9443 68.0091C62.5176 67.5671 59.8686 64.8641 59.8686 61.5971ZM32.3577 12.3361H37.1833V16.3361H32.3577V12.3361ZM21.1778 12.3361H26.0034V16.3361H21.1778V12.3361ZM14.8585 18.3361H53.5333V21.3471H14.8585V18.3361ZM17.3297 23.3471H50.9652V78.0861H40.7309V58.8361C40.7309 58.2831 40.2836 57.8361 39.7324 57.8361H28.6584C28.1072 57.8361 27.6599 58.2831 27.6599 58.8361V78.0861H17.3297V23.3471ZM38.734 78.0861H29.6568V59.8361H38.734V78.0861ZM87.9087 88.3361H12.0248V85.3001H87.9087V88.3361ZM84.7056 83.3001H15.2279V80.0861H84.7046V83.3001H84.7056ZM67.9712 78.0861L67.9473 70.0191C70.5453 69.7431 72.9067 68.4291 74.4034 66.3811C75.3829 66.7281 76.4213 66.9571 77.5056 67.0421L77.5406 78.0861H67.9712Z" fill="white"/>
</svg>
