<svg width="14" height="18" viewBox="0 0 14 18" fill="none" xmlns="http://www.w3.org/2000/svg">
<path d="M7 0.599976C4.46198 0.599976 2.4 2.66195 2.4 5.19998V7.39998H1.4C0.634778 7.39998 0 8.03476 0 8.79998V16C0 16.7652 0.634778 17.4 1.4 17.4H12.6C13.3652 17.4 14 16.7652 14 16V8.79998C14 8.03476 13.3652 7.39998 12.6 7.39998H11.6V5.19998C11.6 2.66195 9.53802 0.599976 7 0.599976ZM7 1.79998C8.89398 1.79998 10.4 3.306 10.4 5.19998V7.39998H3.6V5.19998C3.6 3.306 5.10602 1.79998 7 1.79998ZM1.4 8.59998H12.6C12.7212 8.59998 12.8 8.67879 12.8 8.79998V16C12.8 16.1212 12.7212 16.2 12.6 16.2H1.4C1.27882 16.2 1.2 16.1212 1.2 16V8.79998C1.2 8.67879 1.27882 8.59998 1.4 8.59998ZM7 9.79998C6.01299 9.79998 5.2 10.613 5.2 11.6C5.2 12.0092 5.36746 12.365 5.6 12.6687V13.6C5.6 14.3652 6.23478 15 7 15C7.76522 15 8.4 14.3652 8.4 13.6V12.6687C8.63254 12.365 8.8 12.0092 8.8 11.6C8.8 10.613 7.98701 9.79998 7 9.79998ZM7 11C7.33848 11 7.6 11.2615 7.6 11.6C7.6 11.7811 7.52385 11.9328 7.4 12.0437C7.33673 12.1003 7.28619 12.1697 7.25171 12.2473C7.21724 12.3248 7.19961 12.4088 7.2 12.4937V13.6C7.2 13.7212 7.12118 13.8 7 13.8C6.87882 13.8 6.8 13.7212 6.8 13.6V12.4937C6.80039 12.4088 6.78276 12.3248 6.74829 12.2473C6.71381 12.1697 6.66327 12.1003 6.6 12.0437C6.47615 11.9328 6.4 11.7811 6.4 11.6C6.4 11.2615 6.66152 11 7 11Z" fill="#504D8F"/>
</svg>
