<svg width="352" height="289" viewBox="0 0 352 289" fill="none" xmlns="http://www.w3.org/2000/svg">
<circle cx="176" cy="50" r="50" fill="#DFD9FE"/>
<circle cx="302" cy="210" r="50" fill="#DFD9FE"/>
<circle cx="50" cy="210" r="50" fill="#DFD9FE"/>
<path d="M76.9998 101L77.7001 101.714L76.9998 101ZM124.207 76.2071C124.598 75.8166 124.598 75.1834 124.207 74.7929L117.843 68.4288C117.453 68.0383 116.82 68.0383 116.429 68.4288C116.039 68.8193 116.039 69.4525 116.429 69.843L122.086 75.5L116.429 81.1567C116.038 81.5472 116.038 82.1804 116.429 82.5709C116.819 82.9615 117.452 82.9615 117.843 82.571L124.207 76.2071ZM52 151C52.9992 150.959 52.9992 150.96 52.9992 150.96C52.9992 150.96 52.9992 150.96 52.9992 150.96C52.9992 150.96 52.9992 150.96 52.9992 150.959C52.9991 150.958 52.999 150.955 52.9989 150.95C52.9986 150.941 52.9981 150.926 52.9977 150.906C52.9967 150.864 52.9956 150.8 52.9951 150.713C52.9942 150.54 52.996 150.277 53.0073 149.93C53.0299 149.236 53.0904 148.207 53.2433 146.889C53.5491 144.251 54.2239 140.457 55.7018 135.869C58.6559 126.699 64.8242 114.342 77.7001 101.714L76.2996 100.286C63.1755 113.157 56.8439 125.801 53.7981 135.256C52.276 139.981 51.5758 143.905 51.2566 146.658C51.097 148.035 51.0326 149.119 51.0083 149.865C50.9962 150.238 50.9941 150.526 50.9951 150.724C50.9956 150.823 50.997 150.899 50.9982 150.952C50.9988 150.979 50.9994 150.999 50.9999 151.014C51.0001 151.022 51.0003 151.028 51.0005 151.032C51.0006 151.034 51.0006 151.036 51.0007 151.038C51.0007 151.038 51.0008 151.039 51.0008 151.039C51.0008 151.04 51.0008 151.041 52 151ZM77.7001 101.714C90.6033 89.0585 102.111 82.7595 110.356 79.6219C114.479 78.0525 117.792 77.2721 120.059 76.884C121.193 76.69 122.066 76.594 122.65 76.5465C122.941 76.5227 123.16 76.5111 123.303 76.5054C123.375 76.5026 123.427 76.5012 123.46 76.5006C123.477 76.5003 123.488 76.5001 123.495 76.5C123.498 76.5 123.5 76.5 123.501 76.5C123.502 76.5 123.502 76.5 123.501 76.5C123.501 76.5 123.501 76.5 123.501 76.5C123.501 76.5 123.5 76.5 123.5 75.5C123.5 74.5 123.499 74.5 123.499 74.5C123.498 74.5 123.497 74.5 123.497 74.5C123.495 74.5 123.493 74.5 123.491 74.5C123.487 74.5 123.482 74.5001 123.475 74.5001C123.462 74.5003 123.444 74.5005 123.421 74.501C123.375 74.5019 123.309 74.5036 123.224 74.507C123.054 74.5138 122.807 74.527 122.487 74.5531C121.848 74.6052 120.916 74.7084 119.722 74.9127C117.333 75.3214 113.895 76.1347 109.644 77.7527C101.138 80.9899 89.3964 87.4407 76.2996 100.286L77.7001 101.714Z" fill="#A100F2"/>
<path d="M278.496 100.5L277.783 101.2L278.496 100.5ZM303.289 147.707C303.679 148.098 304.313 148.098 304.703 147.707L311.067 141.343C311.458 140.953 311.458 140.32 311.067 139.929C310.677 139.539 310.044 139.539 309.653 139.929L303.996 145.586L298.339 139.929C297.949 139.538 297.316 139.538 296.925 139.929C296.535 140.319 296.535 140.952 296.925 141.343L303.289 147.707ZM228.496 75.5C228.537 76.4992 228.536 76.4992 228.536 76.4992C228.536 76.4992 228.536 76.4992 228.536 76.4992C228.536 76.4992 228.536 76.4992 228.537 76.4992C228.539 76.4991 228.542 76.499 228.546 76.4989C228.555 76.4986 228.57 76.4981 228.59 76.4977C228.632 76.4967 228.696 76.4956 228.783 76.4951C228.956 76.4942 229.219 76.496 229.566 76.5073C230.26 76.5299 231.289 76.5904 232.608 76.7433C235.245 77.0491 239.04 77.7239 243.627 79.2018C252.797 82.1559 265.154 88.3242 277.783 101.2L279.21 99.7996C266.339 86.6755 253.695 80.3439 244.24 77.2981C239.515 75.776 235.591 75.0758 232.838 74.7566C231.461 74.597 230.377 74.5326 229.631 74.5083C229.258 74.4962 228.97 74.4941 228.772 74.4951C228.673 74.4956 228.597 74.497 228.544 74.4982C228.517 74.4988 228.497 74.4994 228.482 74.4999C228.474 74.5001 228.469 74.5003 228.464 74.5005C228.462 74.5006 228.46 74.5006 228.459 74.5007C228.458 74.5007 228.457 74.5008 228.457 74.5008C228.456 74.5008 228.455 74.5008 228.496 75.5ZM277.783 101.2C290.438 114.103 296.737 125.611 299.874 133.856C301.444 137.979 302.224 141.292 302.612 143.559C302.806 144.693 302.902 145.566 302.95 146.15C302.973 146.441 302.985 146.66 302.991 146.803C302.994 146.875 302.995 146.927 302.996 146.96C302.996 146.977 302.996 146.988 302.996 146.995C302.996 146.998 302.996 147 302.996 147.001C302.996 147.002 302.996 147.002 302.996 147.001C302.996 147.001 302.996 147.001 302.996 147.001C302.996 147.001 302.996 147 303.996 147C304.996 147 304.996 146.999 304.996 146.999C304.996 146.998 304.996 146.997 304.996 146.997C304.996 146.995 304.996 146.993 304.996 146.991C304.996 146.987 304.996 146.982 304.996 146.975C304.996 146.962 304.996 146.944 304.995 146.921C304.994 146.875 304.992 146.809 304.989 146.724C304.982 146.554 304.969 146.307 304.943 145.987C304.891 145.348 304.788 144.416 304.583 143.222C304.175 140.833 303.361 137.395 301.743 133.144C298.506 124.638 292.055 112.896 279.21 99.7996L277.783 101.2Z" fill="#A100F2"/>
<path d="M174.204 287.991L174.214 286.991L174.204 287.991ZM88.0174 260.959C87.4652 260.949 87.0098 261.389 87.0002 261.941L86.8437 270.94C86.834 271.492 87.2739 271.947 87.8261 271.957C88.3783 271.967 88.8338 271.527 88.8434 270.974L88.9825 262.976L96.9812 263.115C97.5334 263.124 97.9889 262.685 97.9985 262.132C98.0081 261.58 97.5682 261.125 97.016 261.115L88.0174 260.959ZM264 257C263.253 256.335 263.253 256.335 263.253 256.335C263.253 256.335 263.253 256.335 263.253 256.335C263.253 256.335 263.252 256.336 263.251 256.338C263.248 256.34 263.244 256.345 263.238 256.352C263.226 256.365 263.208 256.385 263.182 256.413C263.131 256.468 263.052 256.553 262.946 256.664C262.733 256.886 262.41 257.217 261.974 257.639C261.103 258.484 259.784 259.698 258.006 261.156C254.45 264.073 249.061 267.967 241.755 271.845C227.149 279.598 204.863 287.299 174.214 286.991L174.194 288.991C205.204 289.303 227.817 281.508 242.693 273.611C250.129 269.664 255.628 265.694 259.274 262.703C261.098 261.207 262.458 259.956 263.367 259.075C263.821 258.634 264.162 258.286 264.392 258.046C264.507 257.926 264.594 257.833 264.653 257.768C264.682 257.736 264.705 257.712 264.721 257.694C264.728 257.686 264.735 257.679 264.739 257.674C264.741 257.671 264.743 257.669 264.744 257.668C264.745 257.667 264.746 257.666 264.746 257.666C264.747 257.665 264.747 257.665 264 257ZM174.214 286.991C143.525 286.683 122.114 280.206 108.401 273.835C101.542 270.649 96.604 267.488 93.3895 265.132C91.7822 263.954 90.6056 262.978 89.8354 262.301C89.4503 261.962 89.1668 261.698 88.9818 261.521C88.8893 261.433 88.8214 261.366 88.7778 261.323C88.756 261.301 88.7402 261.285 88.7305 261.275C88.7256 261.27 88.7223 261.267 88.7204 261.265C88.7195 261.264 88.7189 261.263 88.7187 261.263C88.7186 261.263 88.7188 261.263 88.7187 261.263C88.719 261.263 88.7193 261.264 88 261.958C87.2807 262.653 87.2812 262.654 87.2818 262.654C87.2822 262.655 87.2829 262.655 87.2835 262.656C87.2848 262.657 87.2865 262.659 87.2886 262.661C87.2927 262.666 87.2984 262.671 87.3056 262.679C87.3199 262.693 87.3403 262.714 87.3668 262.74C87.4198 262.793 87.4973 262.869 87.5996 262.967C87.8042 263.162 88.1082 263.445 88.5147 263.803C89.3276 264.517 90.5502 265.531 92.2074 266.745C95.5217 269.174 100.573 272.405 107.558 275.649C121.532 282.14 143.223 288.68 174.194 288.991L174.214 286.991Z" fill="#A100F2"/>
<path d="M160.343 71.628H157.305V70.088H165.145V71.628H162.107V80H160.343V71.628ZM169.986 73.084C170.424 73.084 170.798 73.1633 171.106 73.322C171.423 73.4713 171.68 73.672 171.876 73.924C172.081 74.176 172.23 74.4653 172.324 74.792C172.417 75.1187 172.464 75.4547 172.464 75.8V80H170.784V76.304C170.784 76.108 170.77 75.9073 170.742 75.702C170.714 75.4873 170.653 75.296 170.56 75.128C170.476 74.9507 170.35 74.806 170.182 74.694C170.023 74.582 169.808 74.526 169.538 74.526C169.267 74.526 169.034 74.5773 168.838 74.68C168.642 74.7827 168.478 74.9227 168.348 75.1C168.217 75.268 168.119 75.4593 168.054 75.674C167.988 75.8887 167.956 76.108 167.956 76.332V80H166.276V69.416H167.956V74.218H167.984C168.049 74.078 168.142 73.9427 168.264 73.812C168.394 73.672 168.544 73.5507 168.712 73.448C168.88 73.336 169.071 73.2473 169.286 73.182C169.5 73.1167 169.734 73.084 169.986 73.084ZM174.731 73.28H176.411V80H174.731V73.28ZM174.493 70.998C174.493 70.7273 174.591 70.494 174.787 70.298C174.993 70.0927 175.249 69.99 175.557 69.99C175.865 69.99 176.122 70.088 176.327 70.284C176.542 70.4707 176.649 70.7087 176.649 70.998C176.649 71.2873 176.542 71.53 176.327 71.726C176.122 71.9127 175.865 72.006 175.557 72.006C175.249 72.006 174.993 71.908 174.787 71.712C174.591 71.5067 174.493 71.2687 174.493 70.998ZM178.729 73.28H180.325V74.358H180.353C180.503 74.022 180.759 73.728 181.123 73.476C181.497 73.2147 181.935 73.084 182.439 73.084C182.878 73.084 183.251 73.1633 183.559 73.322C183.877 73.4713 184.133 73.672 184.329 73.924C184.535 74.176 184.684 74.4653 184.777 74.792C184.871 75.1187 184.917 75.4547 184.917 75.8V80H183.237V76.276C183.237 76.08 183.223 75.8747 183.195 75.66C183.167 75.4453 183.107 75.254 183.013 75.086C182.92 74.9087 182.789 74.764 182.621 74.652C182.463 74.54 182.248 74.484 181.977 74.484C181.707 74.484 181.473 74.54 181.277 74.652C181.081 74.7547 180.918 74.89 180.787 75.058C180.666 75.226 180.573 75.422 180.507 75.646C180.442 75.8607 180.409 76.08 180.409 76.304V80H178.729V73.28ZM187.186 69.416H188.866V76.108H188.908L191.456 73.28H193.612L190.7 76.318L193.794 80H191.568L188.908 76.556H188.866V80H187.186V69.416Z" fill="#A100F2"/>
<path d="M287.187 230.088H289.945L292.521 237.13H292.563L295.111 230.088H297.883V240H296.133V232.034H296.105L293.095 240H291.863L288.895 232.034H288.867V240H287.187V230.088ZM304.434 239.146H304.392C304.224 239.445 303.953 239.692 303.58 239.888C303.206 240.075 302.782 240.168 302.306 240.168C302.035 240.168 301.75 240.131 301.452 240.056C301.162 239.991 300.892 239.879 300.64 239.72C300.397 239.552 300.192 239.337 300.024 239.076C299.865 238.805 299.786 238.474 299.786 238.082C299.786 237.578 299.926 237.177 300.206 236.878C300.495 236.579 300.864 236.351 301.312 236.192C301.76 236.033 302.254 235.931 302.796 235.884C303.346 235.828 303.883 235.8 304.406 235.8V235.632C304.406 235.212 304.252 234.904 303.944 234.708C303.645 234.503 303.286 234.4 302.866 234.4C302.511 234.4 302.17 234.475 301.844 234.624C301.517 234.773 301.246 234.955 301.032 235.17L300.164 234.148C300.546 233.793 300.985 233.527 301.48 233.35C301.984 233.173 302.492 233.084 303.006 233.084C303.603 233.084 304.093 233.168 304.476 233.336C304.868 233.504 305.176 233.723 305.4 233.994C305.624 234.265 305.778 234.568 305.862 234.904C305.955 235.24 306.002 235.576 306.002 235.912V240H304.434V239.146ZM304.406 236.934H304.028C303.757 236.934 303.472 236.948 303.174 236.976C302.875 236.995 302.6 237.046 302.348 237.13C302.096 237.205 301.886 237.317 301.718 237.466C301.55 237.606 301.466 237.802 301.466 238.054C301.466 238.213 301.498 238.348 301.564 238.46C301.638 238.563 301.732 238.647 301.844 238.712C301.956 238.777 302.082 238.824 302.222 238.852C302.362 238.88 302.502 238.894 302.642 238.894C303.22 238.894 303.659 238.74 303.958 238.432C304.256 238.124 304.406 237.704 304.406 237.172V236.934ZM308.267 229.416H309.947V236.108H309.989L312.537 233.28H314.693L311.781 236.318L314.875 240H312.649L309.989 236.556H309.947V240H308.267V229.416ZM320.606 235.968C320.606 235.753 320.574 235.548 320.508 235.352C320.452 235.156 320.359 234.983 320.228 234.834C320.098 234.685 319.93 234.568 319.724 234.484C319.528 234.391 319.295 234.344 319.024 234.344C318.52 234.344 318.091 234.498 317.736 234.806C317.391 235.105 317.2 235.492 317.162 235.968H320.606ZM322.286 236.724C322.286 236.799 322.286 236.873 322.286 236.948C322.286 237.023 322.282 237.097 322.272 237.172H317.162C317.181 237.415 317.242 237.639 317.344 237.844C317.456 238.04 317.601 238.213 317.778 238.362C317.956 238.502 318.156 238.614 318.38 238.698C318.604 238.782 318.838 238.824 319.08 238.824C319.5 238.824 319.855 238.749 320.144 238.6C320.434 238.441 320.672 238.227 320.858 237.956L321.978 238.852C321.316 239.748 320.354 240.196 319.094 240.196C318.572 240.196 318.091 240.117 317.652 239.958C317.214 239.79 316.831 239.557 316.504 239.258C316.187 238.959 315.935 238.595 315.748 238.166C315.571 237.727 315.482 237.233 315.482 236.682C315.482 236.141 315.571 235.651 315.748 235.212C315.935 234.764 316.187 234.386 316.504 234.078C316.822 233.761 317.195 233.518 317.624 233.35C318.063 233.173 318.534 233.084 319.038 233.084C319.505 233.084 319.934 233.163 320.326 233.322C320.728 233.471 321.073 233.7 321.362 234.008C321.652 234.307 321.876 234.685 322.034 235.142C322.202 235.59 322.286 236.117 322.286 236.724Z" fill="#A100F2"/>
<path d="M37.4858 232.412C37.2245 232.057 36.8838 231.801 36.4638 231.642C36.0438 231.474 35.6331 231.39 35.2318 231.39C34.7185 231.39 34.2518 231.483 33.8318 231.67C33.4118 231.857 33.0478 232.113 32.7398 232.44C32.4411 232.767 32.2078 233.149 32.0398 233.588C31.8811 234.027 31.8018 234.503 31.8018 235.016C31.8018 235.557 31.8811 236.052 32.0398 236.5C32.1985 236.948 32.4225 237.335 32.7118 237.662C33.0105 237.979 33.3651 238.227 33.7758 238.404C34.1865 238.581 34.6485 238.67 35.1618 238.67C35.6938 238.67 36.1651 238.567 36.5758 238.362C36.9865 238.147 37.3178 237.867 37.5698 237.522L38.9838 238.516C38.5451 239.067 38.0085 239.496 37.3738 239.804C36.7391 240.103 35.9971 240.252 35.1478 240.252C34.3731 240.252 33.6591 240.126 33.0058 239.874C32.3618 239.613 31.8065 239.253 31.3398 238.796C30.8731 238.329 30.5091 237.779 30.2478 237.144C29.9865 236.5 29.8558 235.791 29.8558 235.016C29.8558 234.223 29.9911 233.509 30.2618 232.874C30.5418 232.23 30.9198 231.684 31.3958 231.236C31.8811 230.788 32.4505 230.443 33.1038 230.2C33.7571 229.957 34.4665 229.836 35.2318 229.836C35.5491 229.836 35.8805 229.869 36.2258 229.934C36.5711 229.99 36.9025 230.083 37.2198 230.214C37.5371 230.335 37.8358 230.489 38.1158 230.676C38.3958 230.863 38.6338 231.087 38.8298 231.348L37.4858 232.412ZM44.0139 233.084C44.4525 233.084 44.8259 233.163 45.1339 233.322C45.4512 233.471 45.7079 233.672 45.9039 233.924C46.1092 234.176 46.2585 234.465 46.3519 234.792C46.4452 235.119 46.4919 235.455 46.4919 235.8V240H44.8119V236.304C44.8119 236.108 44.7979 235.907 44.7699 235.702C44.7419 235.487 44.6812 235.296 44.5879 235.128C44.5039 234.951 44.3779 234.806 44.2099 234.694C44.0512 234.582 43.8365 234.526 43.5659 234.526C43.2952 234.526 43.0619 234.577 42.8659 234.68C42.6699 234.783 42.5065 234.923 42.3759 235.1C42.2452 235.268 42.1472 235.459 42.0819 235.674C42.0165 235.889 41.9839 236.108 41.9839 236.332V240H40.3039V229.416H41.9839V234.218H42.0119C42.0772 234.078 42.1705 233.943 42.2919 233.812C42.4225 233.672 42.5719 233.551 42.7399 233.448C42.9079 233.336 43.0992 233.247 43.3139 233.182C43.5285 233.117 43.7619 233.084 44.0139 233.084ZM53.4636 235.968C53.4636 235.753 53.431 235.548 53.3656 235.352C53.3096 235.156 53.2163 234.983 53.0856 234.834C52.955 234.685 52.787 234.568 52.5816 234.484C52.3856 234.391 52.1523 234.344 51.8816 234.344C51.3776 234.344 50.9483 234.498 50.5936 234.806C50.2483 235.105 50.057 235.492 50.0196 235.968H53.4636ZM55.1436 236.724C55.1436 236.799 55.1436 236.873 55.1436 236.948C55.1436 237.023 55.139 237.097 55.1296 237.172H50.0196C50.0383 237.415 50.099 237.639 50.2016 237.844C50.3136 238.04 50.4583 238.213 50.6356 238.362C50.813 238.502 51.0136 238.614 51.2376 238.698C51.4616 238.782 51.695 238.824 51.9376 238.824C52.3576 238.824 52.7123 238.749 53.0016 238.6C53.291 238.441 53.529 238.227 53.7156 237.956L54.8356 238.852C54.173 239.748 53.2116 240.196 51.9516 240.196C51.429 240.196 50.9483 240.117 50.5096 239.958C50.071 239.79 49.6883 239.557 49.3616 239.258C49.0443 238.959 48.7923 238.595 48.6056 238.166C48.4283 237.727 48.3396 237.233 48.3396 236.682C48.3396 236.141 48.4283 235.651 48.6056 235.212C48.7923 234.764 49.0443 234.386 49.3616 234.078C49.679 233.761 50.0523 233.518 50.4816 233.35C50.9203 233.173 51.3916 233.084 51.8956 233.084C52.3623 233.084 52.7916 233.163 53.1836 233.322C53.585 233.471 53.9303 233.7 54.2196 234.008C54.509 234.307 54.733 234.685 54.8916 235.142C55.0596 235.59 55.1436 236.117 55.1436 236.724ZM61.6427 235.142C61.512 234.955 61.316 234.801 61.0547 234.68C60.7934 234.549 60.5274 234.484 60.2567 234.484C59.9487 234.484 59.678 234.549 59.4447 234.68C59.2114 234.801 59.0154 234.965 58.8567 235.17C58.7074 235.375 58.5954 235.609 58.5207 235.87C58.446 236.122 58.4087 236.379 58.4087 236.64C58.4087 236.901 58.446 237.163 58.5207 237.424C58.6047 237.676 58.726 237.905 58.8847 238.11C59.0434 238.315 59.2394 238.483 59.4727 238.614C59.7154 238.735 59.9954 238.796 60.3127 238.796C60.574 238.796 60.8354 238.745 61.0967 238.642C61.358 238.539 61.568 238.39 61.7267 238.194L62.7767 239.258C62.4967 239.557 62.1374 239.79 61.6987 239.958C61.2694 240.117 60.8027 240.196 60.2987 240.196C59.804 240.196 59.3327 240.117 58.8847 239.958C58.446 239.799 58.0587 239.566 57.7227 239.258C57.396 238.95 57.1347 238.577 56.9387 238.138C56.752 237.699 56.6587 237.2 56.6587 236.64C56.6587 236.099 56.752 235.609 56.9387 235.17C57.1347 234.731 57.396 234.358 57.7227 234.05C58.0494 233.742 58.4274 233.504 58.8567 233.336C59.2954 233.168 59.762 233.084 60.2567 233.084C60.7514 233.084 61.2274 233.177 61.6847 233.364C62.1514 233.551 62.52 233.807 62.7907 234.134L61.6427 235.142ZM64.1946 229.416H65.8746V236.108H65.9166L68.4646 233.28H70.6206L67.7086 236.318L70.8026 240H68.5766L65.9166 236.556H65.8746V240H64.1946V229.416Z" fill="#A100F2"/>
<path d="M177.915 12.0401C177.88 12.0485 177.849 12.0642 177.821 12.0862C177.794 12.1082 177.771 12.136 177.755 12.1676L174.823 16.8372C174.802 16.8743 174.791 16.9161 174.791 16.9586C174.791 17.0011 174.802 17.0428 174.823 17.0797C174.844 17.1166 174.874 17.1475 174.91 17.1692C174.947 17.191 174.988 17.2029 175.03 17.2038H176.703L176.241 20.6144C176.218 20.6762 176.22 20.7448 176.247 20.8049C176.274 20.8651 176.324 20.9119 176.385 20.9351C176.447 20.9584 176.514 20.9561 176.574 20.9289C176.634 20.9016 176.68 20.8516 176.703 20.7897L179.62 16.1041C179.64 16.0671 179.651 16.0253 179.651 15.9828C179.651 15.9403 179.64 15.8986 179.619 15.8616C179.598 15.8247 179.568 15.7939 179.532 15.7721C179.496 15.7504 179.455 15.7385 179.413 15.7376H177.755L178.201 12.3269C178.209 12.2874 178.206 12.2467 178.195 12.2083C178.183 12.1699 178.162 12.135 178.133 12.1067C178.105 12.0784 178.07 12.0575 178.032 12.0459C177.994 12.0343 177.954 12.0323 177.915 12.0401ZM191.015 16.0563C190.973 16.0671 190.934 16.0891 190.904 16.1201L186.887 19.8813C186.856 19.9108 186.833 19.948 186.821 19.9893C186.809 20.0305 186.807 20.0743 186.817 20.1163C186.827 20.1582 186.847 20.1969 186.876 20.2284C186.905 20.2598 186.942 20.2831 186.983 20.2957L188.593 20.726L187.286 23.8976C187.248 23.9508 187.233 24.0171 187.244 24.0816C187.254 24.1462 187.29 24.2039 187.343 24.2419C187.396 24.28 187.461 24.2953 187.525 24.2845C187.589 24.2737 187.646 24.2377 187.684 24.1844L191.7 20.4391C191.736 20.4103 191.763 20.3721 191.777 20.3287C191.792 20.2854 191.795 20.2388 191.785 20.194C191.775 20.1492 191.753 20.1082 191.721 20.0755C191.689 20.0427 191.649 20.0196 191.605 20.0088L189.995 19.5785L191.302 16.4069C191.319 16.3705 191.327 16.3303 191.325 16.2901C191.323 16.2498 191.311 16.2106 191.291 16.176C191.271 16.1413 191.242 16.1123 191.208 16.0914C191.174 16.0706 191.135 16.0585 191.095 16.0563C191.068 16.0519 191.042 16.0519 191.015 16.0563ZM163.395 16.5344C163.341 16.5551 163.296 16.5947 163.268 16.646C163.247 16.6728 163.232 16.7037 163.224 16.7366C163.216 16.7695 163.215 16.8038 163.22 16.8372L164.431 22.2241C164.439 22.2685 164.459 22.3098 164.489 22.3434C164.519 22.3771 164.557 22.4019 164.6 22.415C164.643 22.4282 164.688 22.4292 164.732 22.4181C164.775 22.4069 164.815 22.3839 164.846 22.3516L166.025 21.1563L168.097 23.8816C168.131 23.9234 168.177 23.9528 168.229 23.9654C168.281 23.9779 168.336 23.973 168.384 23.9513C168.433 23.9296 168.474 23.8923 168.5 23.8452C168.525 23.798 168.535 23.7436 168.527 23.6904L167.316 18.2876C167.304 18.2476 167.283 18.2113 167.253 18.182C167.224 18.1528 167.187 18.1316 167.147 18.1205C167.108 18.1093 167.066 18.1086 167.025 18.1183C166.985 18.128 166.948 18.1478 166.918 18.176L165.738 19.3713L163.666 16.6301C163.637 16.5873 163.595 16.555 163.546 16.5378C163.498 16.5206 163.445 16.5194 163.395 16.5344ZM177.229 23.5151C170.474 23.5151 164.973 29.0518 164.973 35.8507C164.973 40.442 167.513 44.4049 171.221 46.5288V54.7207C171.221 54.9912 171.328 55.2506 171.52 55.4419C171.711 55.6332 171.97 55.7407 172.241 55.7407H182.218C182.488 55.7407 182.748 55.6332 182.939 55.4419C183.13 55.2506 183.238 54.9912 183.238 54.7207V46.5129C186.935 44.3861 189.469 40.434 189.469 35.8507C189.469 29.0518 183.985 23.5151 177.229 23.5151ZM177.229 25.5551C182.873 25.5551 187.429 30.145 187.429 35.8507C187.429 39.9078 185.114 43.3957 181.755 45.0785C181.588 45.1637 181.447 45.2937 181.348 45.454C181.25 45.6144 181.198 45.7988 181.198 45.9869V53.7007H173.261V50.2901H178.201C178.337 50.292 178.471 50.267 178.596 50.2166C178.722 50.1662 178.836 50.0914 178.932 49.9965C179.028 49.9016 179.105 49.7885 179.157 49.6638C179.209 49.5391 179.236 49.4052 179.236 49.2701C179.236 49.1349 179.209 49.001 179.157 48.8763C179.105 48.7516 179.028 48.6386 178.932 48.5437C178.836 48.4487 178.722 48.3739 178.596 48.3235C178.471 48.2731 178.337 48.2481 178.201 48.2501H173.261V45.9869C173.259 45.7971 173.205 45.6115 173.103 45.451C173.002 45.2906 172.858 45.1615 172.687 45.0785C169.328 43.3957 167.013 39.9078 167.013 35.8507C167.013 30.145 171.586 25.5551 177.229 25.5551ZM174.217 56.9201C174.083 56.9263 173.952 56.9589 173.83 57.0159C173.709 57.073 173.6 57.1534 173.51 57.2525C173.419 57.3517 173.349 57.4677 173.304 57.5939C173.259 57.72 173.238 57.8539 173.245 57.9879C173.251 58.1218 173.284 58.2533 173.341 58.3746C173.398 58.496 173.478 58.6049 173.577 58.6952C173.676 58.7855 173.792 58.8553 173.919 58.9008C174.045 58.9462 174.179 58.9664 174.313 58.9601H180.13C180.265 58.962 180.399 58.937 180.525 58.8866C180.65 58.8362 180.764 58.7614 180.86 58.6665C180.957 58.5715 181.033 58.4585 181.085 58.3338C181.137 58.2091 181.164 58.0752 181.164 57.9401C181.164 57.8049 181.137 57.6711 181.085 57.5463C181.033 57.4216 180.957 57.3086 180.86 57.2137C180.764 57.1187 180.65 57.0439 180.525 56.9935C180.399 56.9431 180.265 56.9181 180.13 56.9201H174.313C174.281 56.9186 174.249 56.9186 174.217 56.9201Z" fill="#2D00F7"/>
<path d="M303 210.833C301.5 210.833 300.333 212.055 300.333 213.5C300.333 215 301.555 216.167 303 216.167C304.5 216.167 305.666 214.944 305.666 213.5C305.666 212 304.444 210.833 303 210.833ZM303 214.778C302.277 214.778 301.722 214.222 301.722 213.5C301.722 212.778 302.277 212.222 303 212.222C303.722 212.222 304.277 212.778 304.277 213.5C304.277 214.222 303.722 214.778 303 214.778Z" fill="#2D00F7"/>
<path d="M304.111 180.056H301.889C301.5 180.056 301.222 180.389 301.222 180.722C301.222 181.111 301.556 181.389 301.889 181.389H304.111C304.5 181.389 304.778 181.056 304.778 180.722C304.778 180.333 304.5 180.056 304.111 180.056Z" fill="#2D00F7"/>
<path d="M294.889 194.222H301.389C301.778 194.222 302.056 193.889 302.056 193.556V187.056C302.056 186.667 301.722 186.389 301.389 186.389H294.889C294.5 186.389 294.222 186.722 294.222 187.056V193.556C294.167 193.944 294.5 194.222 294.889 194.222ZM295.556 187.778H300.667V192.889H295.556V187.778Z" fill="#2D00F7"/>
<path d="M311.722 187.167V186.444H304.5V187.167V187.833H311.722V187.167Z" fill="#2D00F7"/>
<path d="M311.722 190.278V189.611H304.5V190.278V191H311.722V190.278Z" fill="#2D00F7"/>
<path d="M311.722 193.555V192.833H304.5V193.555V194.222H311.722V193.555Z" fill="#2D00F7"/>
<path d="M302.111 204.889H298.389V206.278H302.111V204.889Z" fill="#2D00F7"/>
<path d="M307.556 204.889H303.833V206.278H307.556V204.889Z" fill="#2D00F7"/>
<path d="M295.556 203.778H294.167V205.556C294.167 205.944 294.5 206.222 294.834 206.222H296.611V204.833H295.5V203.778H295.556Z" fill="#2D00F7"/>
<path d="M295.556 200.056H294.167V202.611H295.556V200.056Z" fill="#2D00F7"/>
<path d="M294.167 197.055V198.833H295.556V197.722H296.667V196.333H294.889C294.5 196.389 294.167 196.667 294.167 197.055Z" fill="#2D00F7"/>
<path d="M307.556 196.389H303.833V197.778H307.556V196.389Z" fill="#2D00F7"/>
<path d="M302.111 196.389H298.389V197.778H302.111V196.389Z" fill="#2D00F7"/>
<path d="M311.056 196.389H309.278V197.778H310.389V198.889H311.778V197.111C311.722 196.667 311.444 196.389 311.056 196.389Z" fill="#2D00F7"/>
<path d="M324 211.667C324 211.444 323.889 211.222 323.722 211.056L321.389 209.333V201.778C321.389 201.389 321.056 201.111 320.722 201.111H314.944V177.667C314.944 177.278 314.611 177 314.278 177H291.667C291.278 177 291 177.333 291 177.667V218.333C291 218.722 291.333 219 291.667 219H314.278C314.667 219 314.944 218.667 314.944 218.333V211.889H316.944L317.167 215.056C317.167 215.278 317.333 215.5 317.556 215.611C317.667 215.667 317.778 215.667 317.889 215.667C318 215.667 318.167 215.611 318.278 215.556L320.444 214.222L322.5 217.889C322.611 218.111 322.889 218.222 323.111 218.222C323.222 218.222 323.333 218.167 323.444 218.111C323.778 217.944 323.889 217.5 323.722 217.167L321.611 213.444L323.667 212.167C323.889 212.111 324 211.944 324 211.667ZM320.389 212.611C320.389 212.667 320.333 212.667 320.389 212.611C320.333 212.667 320.278 212.667 320.278 212.667L318.5 213.722L318.389 211.889L318.333 211.222L318.278 210.556L318.167 208.778L320 210.167L320.667 210.667L321.333 211.167L322.056 211.667L320.389 212.611ZM314.944 210.5H314.278H313.611H310.444V209.389V208.722V208.056V206.333V203.833V202.667V202.444H311.778H313.611H314.278H314.944H319.944V208.278L317.722 206.611C317.5 206.444 317.222 206.444 317 206.556C316.778 206.667 316.611 206.944 316.667 207.222L316.889 210.444H314.944V210.5ZM313.556 217.667H292.389V209.333H309V211.167C309 211.556 309.333 211.833 309.667 211.833H313.556V217.667ZM292.389 184.5H313.611V201.111H311.778V200.111H310.389V201.111H309.722C309.333 201.111 309.056 201.444 309.056 201.778V207.944H292.389V184.5ZM292.389 178.333H313.611V183.056H292.389V178.333Z" fill="#2D00F7"/>
<path d="M44.6499 185.5C44.6499 185.85 44.7999 186.15 44.9999 186.4C45.4499 186.9 46.2999 186.9 46.7999 186.4L49.6499 183.55L52.4999 186.4C52.7499 186.65 53.0499 186.75 53.3999 186.75C53.7499 186.75 54.0499 186.6 54.2999 186.4C54.7999 185.9 54.7999 185.1 54.2999 184.6L51.4499 181.75L54.2999 178.9C54.7999 178.4 54.7999 177.6 54.2999 177.1C53.7999 176.6 52.9999 176.6 52.4999 177.1L49.6499 179.95L46.7999 177.1C46.2999 176.6 45.4999 176.6 44.9999 177.1C44.7499 177.35 44.6499 177.65 44.6499 178C44.6499 178.35 44.7999 178.65 44.9999 178.9L47.8499 181.75L44.9999 184.6C44.7999 184.85 44.6499 185.15 44.6499 185.5Z" fill="#2D00F7"/>
<path d="M69.9999 200L67.1499 197.15L69.9999 194.3C70.4999 193.8 70.4999 193 69.9999 192.5C69.4999 192 68.6999 192 68.1999 192.5L65.3499 195.35L62.5499 192.5C62.0499 192 61.2499 192 60.7499 192.5C60.4999 192.75 60.3999 193.05 60.3999 193.4C60.3999 193.75 60.5499 194.05 60.7499 194.3L63.5999 197.15L60.7499 200C60.4999 200.25 60.3999 200.55 60.3999 200.9C60.3999 201.25 60.5499 201.55 60.7499 201.8C61.1999 202.3 62.0499 202.3 62.5499 201.8L65.3999 198.95L68.2499 201.8C68.4999 202.05 68.7999 202.15 69.1499 202.15C69.4999 202.15 69.7999 202 70.0499 201.8C70.4999 201.25 70.4999 200.45 69.9999 200Z" fill="#2D00F7"/>
<path d="M54.0999 209.75C53.7999 209.75 53.4999 209.9 53.2999 210.15L47.8999 216.15L45.7499 214C45.2999 213.55 44.5499 213.5 44.0499 214C43.5999 214.45 43.5999 215.2 44.0499 215.7L47.0499 218.75C47.2499 219 47.5999 219.1 47.8999 219.1C48.2499 219.1 48.5499 218.95 48.7499 218.7L55.0499 211.75C55.4999 211.25 55.4499 210.5 54.9499 210.05C54.7499 209.85 54.4499 209.75 54.0999 209.75Z" fill="#2D00F7"/>
<path d="M41.4503 211.25C39.2003 209.8 37.3003 207.8 36.0503 205.45C35.7503 204.9 35.1003 204.7 34.5503 205C34.0003 205.3 33.8003 205.95 34.1003 206.5C35.5503 209.2 37.6503 211.5 40.2503 213.15C40.4503 213.25 40.6503 213.3 40.8503 213.3C41.2003 213.3 41.6003 213.1 41.8003 212.8C42.1503 212.25 42.0003 211.55 41.4503 211.25Z" fill="#2D00F7"/>
<path d="M62.0001 187.2C62.4501 186.75 62.4001 186.05 61.9501 185.6L61.8501 185.5C61.4001 185.05 60.7001 185.1 60.2501 185.55C59.8001 186 59.8501 186.7 60.3001 187.15L60.4001 187.25C60.6001 187.45 60.9001 187.55 61.2001 187.55C61.4501 187.55 61.7501 187.45 62.0001 187.2Z" fill="#2D00F7"/>
<path d="M63.95 191.15C64.1 191.15 64.25 191.1 64.35 191.05C64.95 190.8 65.2 190.15 65 189.6C65 189.55 64.95 189.45 64.9 189.4C64.6 188.85 63.9 188.7 63.35 189C62.85 189.3 62.65 189.95 62.95 190.5C63.15 190.9 63.55 191.15 63.95 191.15Z" fill="#2D00F7"/>
<path d="M58.4503 184.2C58.7503 183.65 58.5003 182.95 57.9503 182.7L57.8503 182.65C57.3003 182.35 56.6003 182.55 56.3503 183.1C56.0503 183.65 56.2503 184.35 56.8003 184.6L56.9503 184.7C57.1003 184.8 57.3003 184.85 57.4503 184.85C57.8503 184.85 58.2503 184.6 58.4503 184.2Z" fill="#2D00F7"/>
<path d="M61.0498 208.75L60.9498 208.85C60.4998 209.3 60.5498 210 60.9998 210.45C61.1998 210.65 61.4998 210.75 61.7998 210.75C62.0998 210.75 62.3998 210.65 62.5998 210.4L62.6998 210.3C63.1498 209.85 63.0998 209.15 62.6498 208.7C62.1998 208.25 61.4998 208.3 61.0498 208.75Z" fill="#2D00F7"/>
<path d="M65.0999 204.75C64.5499 204.45 63.8499 204.65 63.5999 205.2L63.4999 205.35C63.1999 205.9 63.4499 206.6 63.9999 206.85C64.1499 206.95 64.3499 207 64.4999 207C64.8999 207 65.2999 206.8 65.4999 206.4L65.5499 206.3C65.8499 205.75 65.6499 205.05 65.0999 204.75Z" fill="#2D00F7"/>
<path d="M57.7001 211.4C57.2001 211.65 56.9501 212.3 57.1501 212.8C57.3501 213.25 57.7501 213.5 58.2001 213.5C58.3501 213.5 58.5001 213.45 58.6001 213.4C58.6501 213.4 58.7501 213.35 58.8001 213.3C59.3501 213 59.5001 212.3 59.2001 211.75C58.9001 211.25 58.2001 211.1 57.7001 211.4Z" fill="#2D00F7"/>
<path d="M40.8501 183L40.7501 183.05C40.2001 183.35 40.0501 184.05 40.3501 184.6C40.5501 184.95 40.9501 185.15 41.3001 185.15C41.5001 185.15 41.7001 185.1 41.8501 185L42.0001 184.9C42.5501 184.6 42.7001 183.9 42.4001 183.35C42.0501 182.85 41.3501 182.7 40.8501 183Z" fill="#2D00F7"/>
<path d="M37.6502 188.05C37.9502 188.05 38.2502 187.95 38.5002 187.7L38.6002 187.6C39.0002 187.15 38.9502 186.45 38.5002 186.05C38.0502 185.65 37.3002 185.7 36.9002 186.15L36.8502 186.2C36.4502 186.65 36.4502 187.35 36.9002 187.8C37.1002 187.95 37.4002 188.05 37.6502 188.05Z" fill="#2D00F7"/>
<path d="M34.4502 191.7C34.6002 191.8 34.8002 191.85 35.0002 191.85C35.4002 191.85 35.8002 191.65 36.0002 191.25L36.1002 191.1C36.3502 190.55 36.1502 189.85 35.6002 189.6C35.0502 189.35 34.3502 189.55 34.1002 190.1L34.0002 190.2C33.7002 190.75 33.9002 191.4 34.4502 191.7Z" fill="#2D00F7"/>
<path d="M38.3003 198.25C38.3003 195.45 36.0003 193.15 33.2003 193.15C30.4003 193.15 28.0503 195.4 28.0503 198.25C28.0503 201.05 30.3503 203.35 33.1503 203.35C35.9503 203.35 38.3003 201.05 38.3003 198.25ZM33.2003 201.1C31.6003 201.1 30.3503 199.8 30.3503 198.25C30.3503 196.65 31.6503 195.4 33.2003 195.4C34.7503 195.4 36.0503 196.7 36.0503 198.25C36.0503 199.8 34.7503 201.1 33.2003 201.1Z" fill="#2D00F7"/>
</svg>
