<svg width="648" height="246" viewBox="0 0 648 246" fill="none" xmlns="http://www.w3.org/2000/svg">
<path d="M70.6318 122.93L193.562 16.4695L193.562 229.391L70.6318 122.93Z" fill="#2D00F7" fill-opacity="0.15"/>
<path d="M323.942 122.93L201.012 229.391L201.012 16.4695L323.942 122.93Z" fill="#2D00F7" fill-opacity="0.15"/>
<path d="M323.942 122.93L446.872 16.4695L446.872 229.391L323.942 122.93Z" fill="#2D00F7" fill-opacity="0.15"/>
<path d="M577.253 122.93L454.323 229.391V16.4695L577.253 122.93Z" fill="#2D00F7" fill-opacity="0.15"/>
<circle cx="323.042" cy="123.167" r="12" fill="#B100E8" fill-opacity="0.15"/>
<circle cx="75" cy="123" r="12" fill="#B100E8" fill-opacity="0.15"/>
<circle cx="573.489" cy="123.167" r="12" fill="#B100E8" fill-opacity="0.15"/>
<path d="M172.684 19.3343C172.713 18.9211 172.402 18.5627 171.988 18.5339L165.255 18.0641C164.841 18.0353 164.483 18.3469 164.454 18.7601C164.425 19.1733 164.737 19.5317 165.15 19.5605L171.136 19.9781L170.718 25.9635C170.689 26.3767 171.001 26.7351 171.414 26.7639C171.827 26.7927 172.186 26.4811 172.214 26.0679L172.684 19.3343ZM86.7497 94.3511L172.428 19.848L171.444 18.7161L85.7654 93.2192L86.7497 94.3511Z" fill="#A100F2"/>
<path d="M313.952 101.122C314.365 101.095 314.679 100.739 314.653 100.325L314.223 93.589C314.196 93.1756 313.84 92.8619 313.426 92.8883C313.013 92.9147 312.699 93.2712 312.726 93.6845L313.108 99.6723L307.12 100.055C306.707 100.081 306.393 100.437 306.419 100.851C306.446 101.264 306.802 101.578 307.216 101.552L313.952 101.122ZM220.28 18.9827L313.409 100.936L314.4 99.81L221.271 17.8566L220.28 18.9827Z" fill="#A100F2"/>
<path d="M425.063 22.203C425.095 21.79 424.787 21.4292 424.374 21.3971L417.644 20.8732C417.231 20.8411 416.87 21.1498 416.838 21.5627C416.806 21.9757 417.115 22.3365 417.528 22.3687L423.51 22.8343L423.044 28.8162C423.012 29.2292 423.32 29.59 423.733 29.6222C424.146 29.6543 424.507 29.3456 424.539 28.9327L425.063 22.203ZM340.987 94.4239L424.803 22.7147L423.828 21.5749L340.012 93.2841L340.987 94.4239Z" fill="#A100F2"/>
<path d="M567.263 101.122C567.676 101.095 567.99 100.739 567.963 100.325L567.533 93.589C567.507 93.1756 567.15 92.8619 566.737 92.8883C566.324 92.9147 566.01 93.2712 566.036 93.6845L566.419 99.6723L560.431 100.055C560.017 100.081 559.704 100.437 559.73 100.851C559.756 101.264 560.113 101.578 560.526 101.552L567.263 101.122ZM473.59 18.9827L566.719 100.936L567.71 99.81L474.581 17.8566L473.59 18.9827Z" fill="#A100F2"/>
<path d="M218.164 229.257C218.139 229.671 218.454 230.026 218.867 230.052L225.604 230.464C226.018 230.489 226.374 230.175 226.399 229.761C226.424 229.348 226.11 228.992 225.696 228.967L219.707 228.6L220.074 222.611C220.099 222.198 219.785 221.842 219.371 221.817C218.958 221.792 218.602 222.106 218.577 222.52L218.164 229.257ZM315.27 143.063L218.416 228.741L219.41 229.865L316.264 144.186L315.27 143.063Z" fill="#A100F2"/>
<path d="M79.62 146.67C79.2067 146.697 78.894 147.055 78.9216 147.468L79.3706 154.203C79.3982 154.617 79.7555 154.929 80.1688 154.902C80.5821 154.874 80.8948 154.517 80.8673 154.103L80.4682 148.117L86.4549 147.718C86.8682 147.69 87.1809 147.333 87.1533 146.919C87.1258 146.506 86.7684 146.193 86.3551 146.221L79.62 146.67ZM177.018 231.601L80.1638 146.854L79.1761 147.983L176.03 232.73L177.018 231.601Z" fill="#A100F2"/>
<path d="M471.406 229.257C471.381 229.671 471.696 230.026 472.109 230.052L478.846 230.464C479.26 230.489 479.615 230.175 479.641 229.761C479.666 229.348 479.351 228.992 478.938 228.967L472.949 228.6L473.316 222.611C473.341 222.198 473.027 221.842 472.613 221.817C472.2 221.792 471.844 222.106 471.819 222.52L471.406 229.257ZM568.512 143.063L471.658 228.741L472.652 229.865L569.506 144.186L568.512 143.063Z" fill="#A100F2"/>
<path d="M334.862 145.67C334.448 145.697 334.136 146.055 334.163 146.468L334.612 153.203C334.64 153.617 334.997 153.929 335.411 153.902C335.824 153.874 336.137 153.517 336.109 153.103L335.71 147.117L341.697 146.718C342.11 146.69 342.423 146.333 342.395 145.919C342.367 145.506 342.01 145.193 341.597 145.221L334.862 145.67ZM432.26 230.601L335.406 145.854L334.418 146.983L431.272 231.73L432.26 230.601Z" fill="#A100F2"/>
<g clip-path="url(#clip0)">
<path d="M209.633 131.516C209.388 131.516 209.142 131.423 208.954 131.235L205.722 128.003C205.348 127.63 205.348 127.023 205.722 126.648C206.097 126.274 206.704 126.274 207.079 126.648L209.633 129.202L212.186 126.648C212.561 126.274 213.168 126.274 213.543 126.648C213.918 127.023 213.918 127.63 213.543 128.003L210.311 131.235C210.124 131.423 209.877 131.516 209.633 131.516Z" fill="#2D00F7"/>
<path d="M209.633 131.516C209.388 131.516 209.142 131.423 208.954 131.235L205.722 128.003C205.348 127.63 205.348 127.023 205.722 126.648C206.097 126.274 206.704 126.274 207.079 126.648L209.633 129.202L212.186 126.648C212.561 126.274 213.168 126.274 213.543 126.648C213.918 127.023 213.918 127.63 213.543 128.003L210.311 131.235C210.124 131.423 209.877 131.516 209.633 131.516Z" fill="#2D00F7"/>
<path d="M196.356 142.911C188.42 142.911 181.964 136.454 181.964 128.518C181.964 127.988 182.393 127.559 182.923 127.559C183.452 127.559 183.881 127.988 183.881 128.518C183.881 135.397 189.477 140.992 196.356 140.992C199.705 140.992 202.847 139.684 205.206 137.31C205.579 136.933 206.187 136.934 206.561 137.306C206.937 137.679 206.939 138.285 206.566 138.661C203.845 141.401 200.219 142.911 196.356 142.911Z" fill="#2D00F7"/>
<path d="M209.789 129.476C209.259 129.476 208.83 129.046 208.83 128.518C208.83 121.639 203.234 116.043 196.356 116.043C192.905 116.043 189.576 117.493 187.222 120.021C186.861 120.409 186.254 120.43 185.867 120.07C185.481 119.709 185.459 119.103 185.819 118.715C188.535 115.8 192.374 114.126 196.356 114.126C204.292 114.126 210.749 120.582 210.749 128.518C210.749 129.047 210.32 129.476 209.789 129.476Z" fill="#2D00F7"/>
<path d="M186.311 131.516C186.065 131.516 185.82 131.423 185.634 131.235L183.079 128.68L180.525 131.234C180.151 131.608 179.545 131.608 179.17 131.234C178.796 130.859 178.796 130.252 179.17 129.877L182.402 126.647C182.777 126.272 183.383 126.272 183.757 126.647L186.99 129.877C187.364 130.252 187.364 130.859 186.99 131.234C186.802 131.423 186.556 131.516 186.311 131.516Z" fill="#2D00F7"/>
</g>
<path d="M464.805 124.996C464.561 124.996 464.314 124.904 464.127 124.716L460.895 121.484C460.52 121.111 460.52 120.504 460.895 120.129C461.269 119.755 461.877 119.755 462.251 120.129L464.805 122.683L467.359 120.129C467.734 119.755 468.341 119.755 468.716 120.129C469.09 120.504 469.09 121.111 468.716 121.484L465.484 124.716C465.296 124.904 465.05 124.996 464.805 124.996Z" fill="#2D00F7"/>
<path d="M464.805 124.996C464.561 124.996 464.314 124.904 464.127 124.716L460.895 121.484C460.52 121.111 460.52 120.504 460.895 120.129C461.269 119.755 461.877 119.755 462.251 120.129L464.805 122.683L467.359 120.129C467.734 119.755 468.341 119.755 468.716 120.129C469.09 120.504 469.09 121.111 468.716 121.484L465.484 124.716C465.296 124.904 465.05 124.996 464.805 124.996Z" fill="#2D00F7"/>
<path d="M451.529 136.392C443.593 136.392 437.137 129.935 437.137 121.999C437.137 121.469 437.566 121.04 438.096 121.04C438.625 121.04 439.054 121.469 439.054 121.999C439.054 128.877 444.65 134.473 451.529 134.473C454.877 134.473 458.02 133.165 460.379 130.791C460.752 130.414 461.359 130.415 461.734 130.787C462.11 131.16 462.111 131.766 461.738 132.142C459.018 134.882 455.392 136.392 451.529 136.392Z" fill="#2D00F7"/>
<path d="M464.962 122.957C464.432 122.957 464.003 122.527 464.003 121.999C464.003 115.12 458.407 109.524 451.529 109.524C448.078 109.524 444.749 110.974 442.395 113.502C442.034 113.89 441.427 113.911 441.04 113.551C440.654 113.19 440.632 112.584 440.992 112.196C443.708 109.281 447.547 107.607 451.529 107.607C459.465 107.607 465.922 114.063 465.922 121.999C465.922 122.528 465.493 122.957 464.962 122.957Z" fill="#2D00F7"/>
<path d="M441.484 124.997C441.238 124.997 440.993 124.904 440.808 124.716L438.252 122.161L435.698 124.715C435.324 125.089 434.718 125.089 434.343 124.715C433.969 124.34 433.969 123.733 434.343 123.358L437.575 120.128C437.95 119.753 438.556 119.753 438.93 120.128L442.163 123.358C442.537 123.733 442.537 124.34 442.163 124.715C441.975 124.904 441.729 124.997 441.484 124.997Z" fill="#2D00F7"/>
<path d="M106.724 117.705H110.168C110.635 117.705 111.087 117.757 111.526 117.859C111.965 117.953 112.352 118.111 112.688 118.335C113.033 118.559 113.309 118.853 113.514 119.217C113.719 119.581 113.822 120.025 113.822 120.547C113.822 121.266 113.617 121.854 113.206 122.311C112.805 122.759 112.254 123.063 111.554 123.221L114.2 127.617H112.072L109.776 123.417H108.488V127.617H106.724V117.705ZM109.93 121.975C110.182 121.975 110.434 121.957 110.686 121.919C110.938 121.882 111.162 121.812 111.358 121.709C111.563 121.607 111.731 121.462 111.862 121.275C111.993 121.079 112.058 120.832 112.058 120.533C112.058 120.263 111.997 120.043 111.876 119.875C111.755 119.698 111.601 119.558 111.414 119.455C111.227 119.353 111.013 119.283 110.77 119.245C110.537 119.208 110.308 119.189 110.084 119.189H108.488V121.975H109.93ZM120.293 123.585C120.293 123.371 120.26 123.165 120.195 122.969C120.139 122.773 120.045 122.601 119.915 122.451C119.784 122.302 119.616 122.185 119.411 122.101C119.215 122.008 118.981 121.961 118.711 121.961C118.207 121.961 117.777 122.115 117.423 122.423C117.077 122.722 116.886 123.109 116.849 123.585H120.293ZM121.973 124.341C121.973 124.416 121.973 124.491 121.973 124.565C121.973 124.64 121.968 124.715 121.959 124.789H116.849C116.867 125.032 116.928 125.256 117.031 125.461C117.143 125.657 117.287 125.83 117.465 125.979C117.642 126.119 117.843 126.231 118.067 126.315C118.291 126.399 118.524 126.441 118.767 126.441C119.187 126.441 119.541 126.367 119.831 126.217C120.12 126.059 120.358 125.844 120.545 125.573L121.665 126.469C121.002 127.365 120.041 127.813 118.781 127.813C118.258 127.813 117.777 127.734 117.339 127.575C116.9 127.407 116.517 127.174 116.191 126.875C115.873 126.577 115.621 126.213 115.435 125.783C115.257 125.345 115.169 124.85 115.169 124.299C115.169 123.758 115.257 123.268 115.435 122.829C115.621 122.381 115.873 122.003 116.191 121.695C116.508 121.378 116.881 121.135 117.311 120.967C117.749 120.79 118.221 120.701 118.725 120.701C119.191 120.701 119.621 120.781 120.013 120.939C120.414 121.089 120.759 121.317 121.049 121.625C121.338 121.924 121.562 122.302 121.721 122.759C121.889 123.207 121.973 123.735 121.973 124.341ZM127.562 122.689C127.413 122.493 127.207 122.325 126.946 122.185C126.685 122.036 126.4 121.961 126.092 121.961C125.821 121.961 125.574 122.017 125.35 122.129C125.126 122.241 125.014 122.428 125.014 122.689C125.014 122.951 125.135 123.137 125.378 123.249C125.63 123.352 125.994 123.459 126.47 123.571C126.722 123.627 126.974 123.702 127.226 123.795C127.487 123.889 127.721 124.015 127.926 124.173C128.141 124.323 128.313 124.514 128.444 124.747C128.575 124.971 128.64 125.247 128.64 125.573C128.64 125.984 128.561 126.334 128.402 126.623C128.253 126.903 128.047 127.132 127.786 127.309C127.534 127.487 127.235 127.613 126.89 127.687C126.554 127.771 126.204 127.813 125.84 127.813C125.317 127.813 124.809 127.72 124.314 127.533C123.819 127.337 123.409 127.062 123.082 126.707L124.188 125.671C124.375 125.914 124.617 126.115 124.916 126.273C125.215 126.432 125.546 126.511 125.91 126.511C126.031 126.511 126.153 126.497 126.274 126.469C126.405 126.441 126.521 126.399 126.624 126.343C126.736 126.278 126.825 126.194 126.89 126.091C126.955 125.989 126.988 125.863 126.988 125.713C126.988 125.433 126.857 125.233 126.596 125.111C126.344 124.99 125.961 124.869 125.448 124.747C125.196 124.691 124.949 124.621 124.706 124.537C124.473 124.444 124.263 124.327 124.076 124.187C123.889 124.038 123.74 123.856 123.628 123.641C123.516 123.427 123.46 123.161 123.46 122.843C123.46 122.47 123.535 122.148 123.684 121.877C123.843 121.607 124.048 121.387 124.3 121.219C124.552 121.042 124.837 120.911 125.154 120.827C125.471 120.743 125.798 120.701 126.134 120.701C126.619 120.701 127.091 120.785 127.548 120.953C128.015 121.121 128.383 121.378 128.654 121.723L127.562 122.689ZM135.113 123.585C135.113 123.371 135.08 123.165 135.015 122.969C134.959 122.773 134.865 122.601 134.735 122.451C134.604 122.302 134.436 122.185 134.231 122.101C134.035 122.008 133.801 121.961 133.531 121.961C133.027 121.961 132.597 122.115 132.243 122.423C131.897 122.722 131.706 123.109 131.669 123.585H135.113ZM136.793 124.341C136.793 124.416 136.793 124.491 136.793 124.565C136.793 124.64 136.788 124.715 136.779 124.789H131.669C131.687 125.032 131.748 125.256 131.851 125.461C131.963 125.657 132.107 125.83 132.285 125.979C132.462 126.119 132.663 126.231 132.887 126.315C133.111 126.399 133.344 126.441 133.587 126.441C134.007 126.441 134.361 126.367 134.651 126.217C134.94 126.059 135.178 125.844 135.365 125.573L136.485 126.469C135.822 127.365 134.861 127.813 133.601 127.813C133.078 127.813 132.597 127.734 132.159 127.575C131.72 127.407 131.337 127.174 131.011 126.875C130.693 126.577 130.441 126.213 130.255 125.783C130.077 125.345 129.989 124.85 129.989 124.299C129.989 123.758 130.077 123.268 130.255 122.829C130.441 122.381 130.693 122.003 131.011 121.695C131.328 121.378 131.701 121.135 132.131 120.967C132.569 120.79 133.041 120.701 133.545 120.701C134.011 120.701 134.441 120.781 134.833 120.939C135.234 121.089 135.579 121.317 135.869 121.625C136.158 121.924 136.382 122.302 136.541 122.759C136.709 123.207 136.793 123.735 136.793 124.341ZM142.79 126.763H142.748C142.58 127.062 142.309 127.309 141.936 127.505C141.562 127.692 141.138 127.785 140.662 127.785C140.391 127.785 140.106 127.748 139.808 127.673C139.518 127.608 139.248 127.496 138.996 127.337C138.753 127.169 138.548 126.955 138.38 126.693C138.221 126.423 138.142 126.091 138.142 125.699C138.142 125.195 138.282 124.794 138.562 124.495C138.851 124.197 139.22 123.968 139.668 123.809C140.116 123.651 140.61 123.548 141.152 123.501C141.702 123.445 142.239 123.417 142.762 123.417V123.249C142.762 122.829 142.608 122.521 142.3 122.325C142.001 122.12 141.642 122.017 141.222 122.017C140.867 122.017 140.526 122.092 140.2 122.241C139.873 122.391 139.602 122.573 139.388 122.787L138.52 121.765C138.902 121.411 139.341 121.145 139.836 120.967C140.34 120.79 140.848 120.701 141.362 120.701C141.959 120.701 142.449 120.785 142.832 120.953C143.224 121.121 143.532 121.341 143.756 121.611C143.98 121.882 144.134 122.185 144.218 122.521C144.311 122.857 144.358 123.193 144.358 123.529V127.617H142.79V126.763ZM142.762 124.551H142.384C142.113 124.551 141.828 124.565 141.53 124.593C141.231 124.612 140.956 124.663 140.704 124.747C140.452 124.822 140.242 124.934 140.074 125.083C139.906 125.223 139.822 125.419 139.822 125.671C139.822 125.83 139.854 125.965 139.92 126.077C139.994 126.18 140.088 126.264 140.2 126.329C140.312 126.395 140.438 126.441 140.578 126.469C140.718 126.497 140.858 126.511 140.998 126.511C141.576 126.511 142.015 126.357 142.314 126.049C142.612 125.741 142.762 125.321 142.762 124.789V124.551ZM146.595 120.897H148.205V122.017H148.233C148.42 121.625 148.681 121.308 149.017 121.065C149.353 120.823 149.745 120.701 150.193 120.701C150.258 120.701 150.328 120.706 150.403 120.715C150.478 120.715 150.543 120.725 150.599 120.743V122.283C150.487 122.255 150.389 122.237 150.305 122.227C150.23 122.218 150.156 122.213 150.081 122.213C149.698 122.213 149.39 122.283 149.157 122.423C148.924 122.563 148.742 122.731 148.611 122.927C148.48 123.123 148.392 123.324 148.345 123.529C148.298 123.735 148.275 123.898 148.275 124.019V127.617H146.595V120.897ZM156.32 122.759C156.19 122.573 155.994 122.419 155.732 122.297C155.471 122.167 155.205 122.101 154.934 122.101C154.626 122.101 154.356 122.167 154.122 122.297C153.889 122.419 153.693 122.582 153.534 122.787C153.385 122.993 153.273 123.226 153.198 123.487C153.124 123.739 153.086 123.996 153.086 124.257C153.086 124.519 153.124 124.78 153.198 125.041C153.282 125.293 153.404 125.522 153.562 125.727C153.721 125.933 153.917 126.101 154.15 126.231C154.393 126.353 154.673 126.413 154.99 126.413C155.252 126.413 155.513 126.362 155.774 126.259C156.036 126.157 156.246 126.007 156.404 125.811L157.454 126.875C157.174 127.174 156.815 127.407 156.376 127.575C155.947 127.734 155.48 127.813 154.976 127.813C154.482 127.813 154.01 127.734 153.562 127.575C153.124 127.417 152.736 127.183 152.4 126.875C152.074 126.567 151.812 126.194 151.616 125.755C151.43 125.317 151.336 124.817 151.336 124.257C151.336 123.716 151.43 123.226 151.616 122.787C151.812 122.349 152.074 121.975 152.4 121.667C152.727 121.359 153.105 121.121 153.534 120.953C153.973 120.785 154.44 120.701 154.934 120.701C155.429 120.701 155.905 120.795 156.362 120.981C156.829 121.168 157.198 121.425 157.468 121.751L156.32 122.759ZM162.582 120.701C163.021 120.701 163.394 120.781 163.702 120.939C164.02 121.089 164.276 121.289 164.472 121.541C164.678 121.793 164.827 122.083 164.92 122.409C165.014 122.736 165.06 123.072 165.06 123.417V127.617H163.38V123.921C163.38 123.725 163.366 123.525 163.338 123.319C163.31 123.105 163.25 122.913 163.156 122.745C163.072 122.568 162.946 122.423 162.778 122.311C162.62 122.199 162.405 122.143 162.134 122.143C161.864 122.143 161.63 122.195 161.434 122.297C161.238 122.4 161.075 122.54 160.944 122.717C160.814 122.885 160.716 123.077 160.65 123.291C160.585 123.506 160.552 123.725 160.552 123.949V127.617H158.872V117.033H160.552V121.835H160.58C160.646 121.695 160.739 121.56 160.86 121.429C160.991 121.289 161.14 121.168 161.308 121.065C161.476 120.953 161.668 120.865 161.882 120.799C162.097 120.734 162.33 120.701 162.582 120.701Z" fill="#2D00F7"/>
<path d="M231.735 119.777C231.548 119.535 231.282 119.334 230.937 119.175C230.601 119.007 230.26 118.923 229.915 118.923C229.71 118.923 229.504 118.951 229.299 119.007C229.094 119.054 228.907 119.133 228.739 119.245C228.571 119.348 228.431 119.488 228.319 119.665C228.216 119.833 228.165 120.039 228.165 120.281C228.165 120.505 228.212 120.697 228.305 120.855C228.398 121.014 228.524 121.149 228.683 121.261C228.851 121.373 229.052 121.471 229.285 121.555C229.518 121.639 229.775 121.723 230.055 121.807C230.372 121.91 230.699 122.027 231.035 122.157C231.38 122.288 231.693 122.461 231.973 122.675C232.262 122.89 232.496 123.161 232.673 123.487C232.86 123.814 232.953 124.22 232.953 124.705C232.953 125.237 232.855 125.704 232.659 126.105C232.463 126.497 232.202 126.824 231.875 127.085C231.548 127.347 231.166 127.543 230.727 127.673C230.288 127.804 229.826 127.869 229.341 127.869C228.697 127.869 228.067 127.753 227.451 127.519C226.835 127.277 226.331 126.922 225.939 126.455L227.199 125.279C227.442 125.615 227.764 125.881 228.165 126.077C228.576 126.273 228.977 126.371 229.369 126.371C229.574 126.371 229.784 126.348 229.999 126.301C230.214 126.245 230.405 126.157 230.573 126.035C230.75 125.914 230.89 125.765 230.993 125.587C231.105 125.401 231.161 125.172 231.161 124.901C231.161 124.64 231.1 124.425 230.979 124.257C230.858 124.08 230.694 123.931 230.489 123.809C230.284 123.679 230.041 123.567 229.761 123.473C229.481 123.38 229.187 123.282 228.879 123.179C228.58 123.086 228.282 122.974 227.983 122.843C227.684 122.713 227.414 122.54 227.171 122.325C226.938 122.111 226.746 121.849 226.597 121.541C226.448 121.224 226.373 120.832 226.373 120.365C226.373 119.861 226.476 119.427 226.681 119.063C226.896 118.699 227.171 118.401 227.507 118.167C227.852 117.925 228.24 117.747 228.669 117.635C229.108 117.514 229.551 117.453 229.999 117.453C230.503 117.453 231.012 117.542 231.525 117.719C232.048 117.897 232.5 118.163 232.883 118.517L231.735 119.777ZM233.744 120.897H235.606L237.482 125.783H237.51L239.176 120.897H240.926L237.748 129.059C237.627 129.367 237.496 129.638 237.356 129.871C237.216 130.114 237.048 130.315 236.852 130.473C236.656 130.641 236.423 130.767 236.152 130.851C235.891 130.935 235.573 130.977 235.2 130.977C235.06 130.977 234.915 130.968 234.766 130.949C234.626 130.94 234.481 130.917 234.332 130.879L234.472 129.423C234.584 129.461 234.691 129.484 234.794 129.493C234.906 129.512 235.009 129.521 235.102 129.521C235.279 129.521 235.429 129.498 235.55 129.451C235.671 129.414 235.774 129.349 235.858 129.255C235.942 129.171 236.017 129.064 236.082 128.933C236.147 128.803 236.217 128.649 236.292 128.471L236.628 127.617L233.744 120.897ZM242.21 120.897H243.806V121.975H243.834C243.983 121.639 244.24 121.345 244.604 121.093C244.977 120.832 245.416 120.701 245.92 120.701C246.358 120.701 246.732 120.781 247.04 120.939C247.357 121.089 247.614 121.289 247.81 121.541C248.015 121.793 248.164 122.083 248.258 122.409C248.351 122.736 248.398 123.072 248.398 123.417V127.617H246.718V123.893C246.718 123.697 246.704 123.492 246.676 123.277C246.648 123.063 246.587 122.871 246.494 122.703C246.4 122.526 246.27 122.381 246.102 122.269C245.943 122.157 245.728 122.101 245.458 122.101C245.187 122.101 244.954 122.157 244.758 122.269C244.562 122.372 244.398 122.507 244.268 122.675C244.146 122.843 244.053 123.039 243.988 123.263C243.922 123.478 243.89 123.697 243.89 123.921V127.617H242.21V120.897ZM249.672 122.241V120.897H250.848V118.951H252.5V120.897H254.18V122.241H252.5V125.363C252.5 125.662 252.551 125.909 252.654 126.105C252.766 126.301 253.009 126.399 253.382 126.399C253.494 126.399 253.615 126.39 253.746 126.371C253.877 126.343 253.993 126.306 254.096 126.259L254.152 127.575C254.003 127.631 253.825 127.673 253.62 127.701C253.415 127.739 253.219 127.757 253.032 127.757C252.584 127.757 252.22 127.697 251.94 127.575C251.66 127.445 251.436 127.272 251.268 127.057C251.109 126.833 250.997 126.581 250.932 126.301C250.876 126.012 250.848 125.704 250.848 125.377V122.241H249.672ZM259.414 120.701C259.852 120.701 260.226 120.781 260.534 120.939C260.851 121.089 261.108 121.289 261.304 121.541C261.509 121.793 261.658 122.083 261.752 122.409C261.845 122.736 261.892 123.072 261.892 123.417V127.617H260.212V123.921C260.212 123.725 260.198 123.525 260.17 123.319C260.142 123.105 260.081 122.913 259.988 122.745C259.904 122.568 259.778 122.423 259.61 122.311C259.451 122.199 259.236 122.143 258.966 122.143C258.695 122.143 258.462 122.195 258.266 122.297C258.07 122.4 257.906 122.54 257.776 122.717C257.645 122.885 257.547 123.077 257.482 123.291C257.416 123.506 257.384 123.725 257.384 123.949V127.617H255.704V117.033H257.384V121.835H257.412C257.477 121.695 257.57 121.56 257.692 121.429C257.822 121.289 257.972 121.168 258.14 121.065C258.308 120.953 258.499 120.865 258.714 120.799C258.928 120.734 259.162 120.701 259.414 120.701ZM268.864 123.585C268.864 123.371 268.831 123.165 268.766 122.969C268.71 122.773 268.616 122.601 268.486 122.451C268.355 122.302 268.187 122.185 267.982 122.101C267.786 122.008 267.552 121.961 267.282 121.961C266.778 121.961 266.348 122.115 265.994 122.423C265.648 122.722 265.457 123.109 265.42 123.585H268.864ZM270.544 124.341C270.544 124.416 270.544 124.491 270.544 124.565C270.544 124.64 270.539 124.715 270.53 124.789H265.42C265.438 125.032 265.499 125.256 265.602 125.461C265.714 125.657 265.858 125.83 266.036 125.979C266.213 126.119 266.414 126.231 266.638 126.315C266.862 126.399 267.095 126.441 267.338 126.441C267.758 126.441 268.112 126.367 268.402 126.217C268.691 126.059 268.929 125.844 269.116 125.573L270.236 126.469C269.573 127.365 268.612 127.813 267.352 127.813C266.829 127.813 266.348 127.734 265.91 127.575C265.471 127.407 265.088 127.174 264.762 126.875C264.444 126.577 264.192 126.213 264.006 125.783C263.828 125.345 263.74 124.85 263.74 124.299C263.74 123.758 263.828 123.268 264.006 122.829C264.192 122.381 264.444 122.003 264.762 121.695C265.079 121.378 265.452 121.135 265.882 120.967C266.32 120.79 266.792 120.701 267.296 120.701C267.762 120.701 268.192 120.781 268.584 120.939C268.985 121.089 269.33 121.317 269.62 121.625C269.909 121.924 270.133 122.302 270.292 122.759C270.46 123.207 270.544 123.735 270.544 124.341ZM276.133 122.689C275.983 122.493 275.778 122.325 275.517 122.185C275.255 122.036 274.971 121.961 274.663 121.961C274.392 121.961 274.145 122.017 273.921 122.129C273.697 122.241 273.585 122.428 273.585 122.689C273.585 122.951 273.706 123.137 273.949 123.249C274.201 123.352 274.565 123.459 275.041 123.571C275.293 123.627 275.545 123.702 275.797 123.795C276.058 123.889 276.291 124.015 276.497 124.173C276.711 124.323 276.884 124.514 277.015 124.747C277.145 124.971 277.211 125.247 277.211 125.573C277.211 125.984 277.131 126.334 276.973 126.623C276.823 126.903 276.618 127.132 276.357 127.309C276.105 127.487 275.806 127.613 275.461 127.687C275.125 127.771 274.775 127.813 274.411 127.813C273.888 127.813 273.379 127.72 272.885 127.533C272.39 127.337 271.979 127.062 271.653 126.707L272.759 125.671C272.945 125.914 273.188 126.115 273.487 126.273C273.785 126.432 274.117 126.511 274.481 126.511C274.602 126.511 274.723 126.497 274.845 126.469C274.975 126.441 275.092 126.399 275.195 126.343C275.307 126.278 275.395 126.194 275.461 126.091C275.526 125.989 275.559 125.863 275.559 125.713C275.559 125.433 275.428 125.233 275.167 125.111C274.915 124.99 274.532 124.869 274.019 124.747C273.767 124.691 273.519 124.621 273.277 124.537C273.043 124.444 272.833 124.327 272.647 124.187C272.46 124.038 272.311 123.856 272.199 123.641C272.087 123.427 272.031 123.161 272.031 122.843C272.031 122.47 272.105 122.148 272.255 121.877C272.413 121.607 272.619 121.387 272.871 121.219C273.123 121.042 273.407 120.911 273.725 120.827C274.042 120.743 274.369 120.701 274.705 120.701C275.19 120.701 275.661 120.785 276.119 120.953C276.585 121.121 276.954 121.378 277.225 121.723L276.133 122.689ZM278.979 120.897H280.659V127.617H278.979V120.897ZM278.741 118.615C278.741 118.345 278.839 118.111 279.035 117.915C279.241 117.71 279.497 117.607 279.805 117.607C280.113 117.607 280.37 117.705 280.575 117.901C280.79 118.088 280.897 118.326 280.897 118.615C280.897 118.905 280.79 119.147 280.575 119.343C280.37 119.53 280.113 119.623 279.805 119.623C279.497 119.623 279.241 119.525 279.035 119.329C278.839 119.124 278.741 118.886 278.741 118.615ZM286.659 122.689C286.51 122.493 286.305 122.325 286.043 122.185C285.782 122.036 285.497 121.961 285.189 121.961C284.919 121.961 284.671 122.017 284.447 122.129C284.223 122.241 284.111 122.428 284.111 122.689C284.111 122.951 284.233 123.137 284.475 123.249C284.727 123.352 285.091 123.459 285.567 123.571C285.819 123.627 286.071 123.702 286.323 123.795C286.585 123.889 286.818 124.015 287.023 124.173C287.238 124.323 287.411 124.514 287.541 124.747C287.672 124.971 287.737 125.247 287.737 125.573C287.737 125.984 287.658 126.334 287.499 126.623C287.35 126.903 287.145 127.132 286.883 127.309C286.631 127.487 286.333 127.613 285.987 127.687C285.651 127.771 285.301 127.813 284.937 127.813C284.415 127.813 283.906 127.72 283.411 127.533C282.917 127.337 282.506 127.062 282.179 126.707L283.285 125.671C283.472 125.914 283.715 126.115 284.013 126.273C284.312 126.432 284.643 126.511 285.007 126.511C285.129 126.511 285.25 126.497 285.371 126.469C285.502 126.441 285.619 126.399 285.721 126.343C285.833 126.278 285.922 126.194 285.987 126.091C286.053 125.989 286.085 125.863 286.085 125.713C286.085 125.433 285.955 125.233 285.693 125.111C285.441 124.99 285.059 124.869 284.545 124.747C284.293 124.691 284.046 124.621 283.803 124.537C283.57 124.444 283.36 124.327 283.173 124.187C282.987 124.038 282.837 123.856 282.725 123.641C282.613 123.427 282.557 123.161 282.557 122.843C282.557 122.47 282.632 122.148 282.781 121.877C282.94 121.607 283.145 121.387 283.397 121.219C283.649 121.042 283.934 120.911 284.251 120.827C284.569 120.743 284.895 120.701 285.231 120.701C285.717 120.701 286.188 120.785 286.645 120.953C287.112 121.121 287.481 121.378 287.751 121.723L286.659 122.689Z" fill="#2D00F7"/>
<path d="M284.308 58.016C284.308 57.2227 284.438 56.5087 284.7 55.874C284.97 55.23 285.339 54.684 285.806 54.236C286.282 53.788 286.842 53.4427 287.486 53.2C288.139 52.9573 288.848 52.836 289.614 52.836C290.388 52.836 291.102 52.9573 291.756 53.2C292.409 53.4427 292.974 53.788 293.45 54.236C293.926 54.684 294.294 55.23 294.556 55.874C294.826 56.5087 294.962 57.2227 294.962 58.016C294.962 58.7907 294.826 59.5 294.556 60.144C294.294 60.7787 293.926 61.3293 293.45 61.796C292.974 62.2533 292.409 62.6127 291.756 62.874C291.102 63.126 290.388 63.252 289.614 63.252C288.848 63.252 288.139 63.126 287.486 62.874C286.842 62.6127 286.282 62.2533 285.806 61.796C285.339 61.3293 284.97 60.7787 284.7 60.144C284.438 59.5 284.308 58.7907 284.308 58.016ZM286.226 58.016C286.226 58.548 286.305 59.038 286.464 59.486C286.632 59.9247 286.865 60.3073 287.164 60.634C287.472 60.9607 287.831 61.2173 288.242 61.404C288.662 61.5813 289.124 61.67 289.628 61.67C290.132 61.67 290.594 61.5813 291.014 61.404C291.434 61.2173 291.793 60.9607 292.092 60.634C292.4 60.3073 292.633 59.9247 292.792 59.486C292.96 59.038 293.044 58.548 293.044 58.016C293.044 57.5027 292.96 57.0267 292.792 56.588C292.633 56.1493 292.404 55.7667 292.106 55.44C291.807 55.1133 291.448 54.8567 291.028 54.67C290.608 54.4833 290.141 54.39 289.628 54.39C289.114 54.39 288.648 54.4833 288.228 54.67C287.817 54.8567 287.462 55.1133 287.164 55.44C286.865 55.7667 286.632 56.1493 286.464 56.588C286.305 57.0267 286.226 57.5027 286.226 58.016ZM298.471 56.28V57.218H298.513C298.597 57.0873 298.704 56.9567 298.835 56.826C298.975 56.686 299.143 56.5647 299.339 56.462C299.535 56.35 299.754 56.2613 299.997 56.196C300.249 56.1213 300.529 56.084 300.837 56.084C301.313 56.084 301.751 56.1773 302.153 56.364C302.554 56.5413 302.899 56.7887 303.189 57.106C303.478 57.4233 303.702 57.7967 303.861 58.226C304.019 58.6553 304.099 59.1173 304.099 59.612C304.099 60.1067 304.019 60.5733 303.861 61.012C303.711 61.4413 303.492 61.8193 303.203 62.146C302.923 62.4633 302.577 62.72 302.167 62.916C301.765 63.1027 301.308 63.196 300.795 63.196C300.319 63.196 299.88 63.098 299.479 62.902C299.087 62.706 298.783 62.44 298.569 62.104H298.541V66.36H296.861V56.28H298.471ZM302.391 59.612C302.391 59.3507 302.349 59.094 302.265 58.842C302.19 58.5807 302.073 58.3473 301.915 58.142C301.756 57.9367 301.555 57.7733 301.313 57.652C301.07 57.5213 300.785 57.456 300.459 57.456C300.151 57.456 299.875 57.5213 299.633 57.652C299.39 57.7827 299.18 57.9507 299.003 58.156C298.835 58.3613 298.704 58.5947 298.611 58.856C298.527 59.1173 298.485 59.3787 298.485 59.64C298.485 59.9013 298.527 60.1627 298.611 60.424C298.704 60.676 298.835 60.9047 299.003 61.11C299.18 61.3153 299.39 61.4833 299.633 61.614C299.875 61.7353 300.151 61.796 300.459 61.796C300.785 61.796 301.07 61.7307 301.313 61.6C301.555 61.4693 301.756 61.3013 301.915 61.096C302.073 60.8907 302.19 60.6573 302.265 60.396C302.349 60.1347 302.391 59.8733 302.391 59.612ZM307.61 56.28V57.218H307.652C307.736 57.0873 307.843 56.9567 307.974 56.826C308.114 56.686 308.282 56.5647 308.478 56.462C308.674 56.35 308.893 56.2613 309.136 56.196C309.388 56.1213 309.668 56.084 309.976 56.084C310.452 56.084 310.891 56.1773 311.292 56.364C311.693 56.5413 312.039 56.7887 312.328 57.106C312.617 57.4233 312.841 57.7967 313 58.226C313.159 58.6553 313.238 59.1173 313.238 59.612C313.238 60.1067 313.159 60.5733 313 61.012C312.851 61.4413 312.631 61.8193 312.342 62.146C312.062 62.4633 311.717 62.72 311.306 62.916C310.905 63.1027 310.447 63.196 309.934 63.196C309.458 63.196 309.019 63.098 308.618 62.902C308.226 62.706 307.923 62.44 307.708 62.104H307.68V66.36H306V56.28H307.61ZM311.53 59.612C311.53 59.3507 311.488 59.094 311.404 58.842C311.329 58.5807 311.213 58.3473 311.054 58.142C310.895 57.9367 310.695 57.7733 310.452 57.652C310.209 57.5213 309.925 57.456 309.598 57.456C309.29 57.456 309.015 57.5213 308.772 57.652C308.529 57.7827 308.319 57.9507 308.142 58.156C307.974 58.3613 307.843 58.5947 307.75 58.856C307.666 59.1173 307.624 59.3787 307.624 59.64C307.624 59.9013 307.666 60.1627 307.75 60.424C307.843 60.676 307.974 60.9047 308.142 61.11C308.319 61.3153 308.529 61.4833 308.772 61.614C309.015 61.7353 309.29 61.796 309.598 61.796C309.925 61.796 310.209 61.7307 310.452 61.6C310.695 61.4693 310.895 61.3013 311.054 61.096C311.213 60.8907 311.329 60.6573 311.404 60.396C311.488 60.1347 311.53 59.8733 311.53 59.612ZM314.747 59.612C314.747 59.08 314.841 58.5993 315.027 58.17C315.223 57.7313 315.485 57.358 315.811 57.05C316.138 56.742 316.525 56.504 316.973 56.336C317.421 56.168 317.897 56.084 318.401 56.084C318.905 56.084 319.381 56.168 319.829 56.336C320.277 56.504 320.665 56.742 320.991 57.05C321.318 57.358 321.575 57.7313 321.761 58.17C321.957 58.5993 322.055 59.08 322.055 59.612C322.055 60.144 321.957 60.6293 321.761 61.068C321.575 61.5067 321.318 61.8847 320.991 62.202C320.665 62.51 320.277 62.7527 319.829 62.93C319.381 63.1073 318.905 63.196 318.401 63.196C317.897 63.196 317.421 63.1073 316.973 62.93C316.525 62.7527 316.138 62.51 315.811 62.202C315.485 61.8847 315.223 61.5067 315.027 61.068C314.841 60.6293 314.747 60.144 314.747 59.612ZM316.455 59.612C316.455 59.8733 316.493 60.1347 316.567 60.396C316.651 60.6573 316.773 60.8907 316.931 61.096C317.09 61.3013 317.291 61.4693 317.533 61.6C317.776 61.7307 318.065 61.796 318.401 61.796C318.737 61.796 319.027 61.7307 319.269 61.6C319.512 61.4693 319.713 61.3013 319.871 61.096C320.03 60.8907 320.147 60.6573 320.221 60.396C320.305 60.1347 320.347 59.8733 320.347 59.612C320.347 59.3507 320.305 59.094 320.221 58.842C320.147 58.5807 320.03 58.3473 319.871 58.142C319.713 57.9367 319.512 57.7733 319.269 57.652C319.027 57.5213 318.737 57.456 318.401 57.456C318.065 57.456 317.776 57.5213 317.533 57.652C317.291 57.7733 317.09 57.9367 316.931 58.142C316.773 58.3473 316.651 58.5807 316.567 58.842C316.493 59.094 316.455 59.3507 316.455 59.612ZM323.964 56.28H325.574V57.4H325.602C325.789 57.008 326.05 56.6907 326.386 56.448C326.722 56.2053 327.114 56.084 327.562 56.084C327.628 56.084 327.698 56.0887 327.772 56.098C327.847 56.098 327.912 56.1073 327.968 56.126V57.666C327.856 57.638 327.758 57.6193 327.674 57.61C327.6 57.6007 327.525 57.596 327.45 57.596C327.068 57.596 326.76 57.666 326.526 57.806C326.293 57.946 326.111 58.114 325.98 58.31C325.85 58.506 325.761 58.7067 325.714 58.912C325.668 59.1173 325.644 59.2807 325.644 59.402V63H323.964V56.28ZM328.214 57.624V56.28H329.39V54.334H331.042V56.28H332.722V57.624H331.042V60.746C331.042 61.0447 331.093 61.292 331.196 61.488C331.308 61.684 331.551 61.782 331.924 61.782C332.036 61.782 332.157 61.7727 332.288 61.754C332.419 61.726 332.535 61.6887 332.638 61.642L332.694 62.958C332.545 63.014 332.367 63.056 332.162 63.084C331.957 63.1213 331.761 63.14 331.574 63.14C331.126 63.14 330.762 63.0793 330.482 62.958C330.202 62.8273 329.978 62.6547 329.81 62.44C329.651 62.216 329.539 61.964 329.474 61.684C329.418 61.3947 329.39 61.0867 329.39 60.76V57.624H328.214ZM340.35 63H338.754V61.922H338.726C338.576 62.258 338.315 62.5567 337.942 62.818C337.578 63.07 337.144 63.196 336.64 63.196C336.201 63.196 335.823 63.1213 335.506 62.972C335.198 62.8133 334.941 62.608 334.736 62.356C334.54 62.104 334.395 61.8147 334.302 61.488C334.208 61.1613 334.162 60.8253 334.162 60.48V56.28H335.842V60.004C335.842 60.2 335.856 60.4053 335.884 60.62C335.912 60.8347 335.972 61.0307 336.066 61.208C336.159 61.376 336.285 61.516 336.444 61.628C336.612 61.74 336.831 61.796 337.102 61.796C337.363 61.796 337.592 61.7447 337.788 61.642C337.993 61.53 338.156 61.39 338.278 61.222C338.408 61.054 338.506 60.8627 338.572 60.648C338.637 60.424 338.67 60.2 338.67 59.976V56.28H340.35V63ZM342.646 56.28H344.242V57.358H344.27C344.419 57.022 344.676 56.728 345.04 56.476C345.413 56.2147 345.852 56.084 346.356 56.084C346.795 56.084 347.168 56.1633 347.476 56.322C347.793 56.4713 348.05 56.672 348.246 56.924C348.451 57.176 348.601 57.4653 348.694 57.792C348.787 58.1187 348.834 58.4547 348.834 58.8V63H347.154V59.276C347.154 59.08 347.14 58.8747 347.112 58.66C347.084 58.4453 347.023 58.254 346.93 58.086C346.837 57.9087 346.706 57.764 346.538 57.652C346.379 57.54 346.165 57.484 345.894 57.484C345.623 57.484 345.39 57.54 345.194 57.652C344.998 57.7547 344.835 57.89 344.704 58.058C344.583 58.226 344.489 58.422 344.424 58.646C344.359 58.8607 344.326 59.08 344.326 59.304V63H342.646V56.28ZM351.103 56.28H352.783V63H351.103V56.28ZM350.865 53.998C350.865 53.7273 350.963 53.494 351.159 53.298C351.364 53.0927 351.621 52.99 351.929 52.99C352.237 52.99 352.493 53.088 352.699 53.284C352.913 53.4707 353.021 53.7087 353.021 53.998C353.021 54.2873 352.913 54.53 352.699 54.726C352.493 54.9127 352.237 55.006 351.929 55.006C351.621 55.006 351.364 54.908 351.159 54.712C350.963 54.5067 350.865 54.2687 350.865 53.998ZM354.135 57.624V56.28H355.311V54.334H356.963V56.28H358.643V57.624H356.963V60.746C356.963 61.0447 357.014 61.292 357.117 61.488C357.229 61.684 357.471 61.782 357.845 61.782C357.957 61.782 358.078 61.7727 358.209 61.754C358.339 61.726 358.456 61.6887 358.559 61.642L358.615 62.958C358.465 63.014 358.288 63.056 358.083 63.084C357.877 63.1213 357.681 63.14 357.495 63.14C357.047 63.14 356.683 63.0793 356.403 62.958C356.123 62.8273 355.899 62.6547 355.731 62.44C355.572 62.216 355.46 61.964 355.395 61.684C355.339 61.3947 355.311 61.0867 355.311 60.76V57.624H354.135ZM359.13 56.28H360.992L362.868 61.166H362.896L364.562 56.28H366.312L363.134 64.442C363.013 64.75 362.882 65.0207 362.742 65.254C362.602 65.4967 362.434 65.6973 362.238 65.856C362.042 66.024 361.809 66.15 361.538 66.234C361.277 66.318 360.96 66.36 360.586 66.36C360.446 66.36 360.302 66.3507 360.152 66.332C360.012 66.3227 359.868 66.2993 359.718 66.262L359.858 64.806C359.97 64.8433 360.078 64.8667 360.18 64.876C360.292 64.8947 360.395 64.904 360.488 64.904C360.666 64.904 360.815 64.8807 360.936 64.834C361.058 64.7967 361.16 64.7313 361.244 64.638C361.328 64.554 361.403 64.4467 361.468 64.316C361.534 64.1853 361.604 64.0313 361.678 63.854L362.014 63L359.13 56.28Z" fill="#B100E8"/>
<path d="M1.53813 117.088H4.77213C5.34147 117.088 5.8548 117.139 6.31213 117.242C6.76947 117.345 7.16147 117.513 7.48813 117.746C7.8148 117.979 8.0668 118.278 8.24413 118.642C8.42147 119.006 8.51013 119.445 8.51013 119.958C8.51013 120.509 8.40747 120.971 8.20213 121.344C7.9968 121.717 7.7168 122.021 7.36213 122.254C7.0168 122.478 6.6108 122.641 6.14413 122.744C5.67747 122.847 5.1828 122.898 4.66013 122.898H3.30213V127H1.53813V117.088ZM4.53413 121.414C4.82347 121.414 5.0988 121.395 5.36013 121.358C5.62147 121.311 5.8548 121.237 6.06013 121.134C6.26547 121.022 6.4288 120.873 6.55013 120.686C6.67147 120.499 6.73213 120.257 6.73213 119.958C6.73213 119.669 6.67147 119.435 6.55013 119.258C6.4288 119.071 6.26547 118.927 6.06013 118.824C5.86413 118.721 5.63547 118.656 5.37413 118.628C5.12213 118.591 4.8608 118.572 4.59013 118.572H3.30213V121.414H4.53413ZM9.63648 120.28H11.2465V121.4H11.2745C11.4611 121.008 11.7225 120.691 12.0585 120.448C12.3945 120.205 12.7865 120.084 13.2345 120.084C13.2998 120.084 13.3698 120.089 13.4445 120.098C13.5191 120.098 13.5845 120.107 13.6405 120.126V121.666C13.5285 121.638 13.4305 121.619 13.3465 121.61C13.2718 121.601 13.1971 121.596 13.1225 121.596C12.7398 121.596 12.4318 121.666 12.1985 121.806C11.9651 121.946 11.7831 122.114 11.6525 122.31C11.5218 122.506 11.4331 122.707 11.3865 122.912C11.3398 123.117 11.3165 123.281 11.3165 123.402V127H9.63648V120.28ZM14.378 123.612C14.378 123.08 14.4713 122.599 14.658 122.17C14.854 121.731 15.1153 121.358 15.442 121.05C15.7687 120.742 16.156 120.504 16.604 120.336C17.052 120.168 17.528 120.084 18.032 120.084C18.536 120.084 19.012 120.168 19.46 120.336C19.908 120.504 20.2953 120.742 20.622 121.05C20.9487 121.358 21.2053 121.731 21.392 122.17C21.588 122.599 21.686 123.08 21.686 123.612C21.686 124.144 21.588 124.629 21.392 125.068C21.2053 125.507 20.9487 125.885 20.622 126.202C20.2953 126.51 19.908 126.753 19.46 126.93C19.012 127.107 18.536 127.196 18.032 127.196C17.528 127.196 17.052 127.107 16.604 126.93C16.156 126.753 15.7687 126.51 15.442 126.202C15.1153 125.885 14.854 125.507 14.658 125.068C14.4713 124.629 14.378 124.144 14.378 123.612ZM16.086 123.612C16.086 123.873 16.1233 124.135 16.198 124.396C16.282 124.657 16.4033 124.891 16.562 125.096C16.7207 125.301 16.9213 125.469 17.164 125.6C17.4067 125.731 17.696 125.796 18.032 125.796C18.368 125.796 18.6573 125.731 18.9 125.6C19.1427 125.469 19.3433 125.301 19.502 125.096C19.6607 124.891 19.7773 124.657 19.852 124.396C19.936 124.135 19.978 123.873 19.978 123.612C19.978 123.351 19.936 123.094 19.852 122.842C19.7773 122.581 19.6607 122.347 19.502 122.142C19.3433 121.937 19.1427 121.773 18.9 121.652C18.6573 121.521 18.368 121.456 18.032 121.456C17.696 121.456 17.4067 121.521 17.164 121.652C16.9213 121.773 16.7207 121.937 16.562 122.142C16.4033 122.347 16.282 122.581 16.198 122.842C16.1233 123.094 16.086 123.351 16.086 123.612ZM25.3029 116.416V121.134H25.3449C25.4289 121.022 25.5362 120.905 25.6669 120.784C25.7976 120.663 25.9516 120.551 26.1289 120.448C26.3156 120.345 26.5302 120.261 26.7729 120.196C27.0156 120.121 27.2909 120.084 27.5989 120.084C28.0749 120.084 28.5136 120.177 28.9149 120.364C29.3162 120.541 29.6616 120.789 29.9509 121.106C30.2402 121.423 30.4642 121.797 30.6229 122.226C30.7816 122.655 30.8609 123.117 30.8609 123.612C30.8609 124.107 30.7816 124.573 30.6229 125.012C30.4736 125.441 30.2542 125.819 29.9649 126.146C29.6849 126.463 29.3396 126.72 28.9289 126.916C28.5276 127.103 28.0702 127.196 27.5569 127.196C27.0809 127.196 26.6329 127.093 26.2129 126.888C25.8022 126.683 25.4802 126.384 25.2469 125.992H25.2189V127H23.6229V116.416H25.3029ZM29.1529 123.612C29.1529 123.351 29.1109 123.094 29.0269 122.842C28.9522 122.581 28.8356 122.347 28.6769 122.142C28.5182 121.937 28.3176 121.773 28.0749 121.652C27.8322 121.521 27.5476 121.456 27.2209 121.456C26.9129 121.456 26.6376 121.521 26.3949 121.652C26.1522 121.783 25.9422 121.951 25.7649 122.156C25.5969 122.361 25.4662 122.595 25.3729 122.856C25.2889 123.117 25.2469 123.379 25.2469 123.64C25.2469 123.901 25.2889 124.163 25.3729 124.424C25.4662 124.676 25.5969 124.905 25.7649 125.11C25.9422 125.315 26.1522 125.483 26.3949 125.614C26.6376 125.735 26.9129 125.796 27.2209 125.796C27.5476 125.796 27.8322 125.731 28.0749 125.6C28.3176 125.469 28.5182 125.301 28.6769 125.096C28.8356 124.891 28.9522 124.657 29.0269 124.396C29.1109 124.135 29.1529 123.873 29.1529 123.612ZM32.7896 116.416H34.4696V127H32.7896V116.416ZM41.5197 122.968C41.5197 122.753 41.4871 122.548 41.4217 122.352C41.3657 122.156 41.2724 121.983 41.1417 121.834C41.0111 121.685 40.8431 121.568 40.6377 121.484C40.4417 121.391 40.2084 121.344 39.9377 121.344C39.4337 121.344 39.0044 121.498 38.6497 121.806C38.3044 122.105 38.1131 122.492 38.0757 122.968H41.5197ZM43.1997 123.724C43.1997 123.799 43.1997 123.873 43.1997 123.948C43.1997 124.023 43.1951 124.097 43.1857 124.172H38.0757C38.0944 124.415 38.1551 124.639 38.2577 124.844C38.3697 125.04 38.5144 125.213 38.6917 125.362C38.8691 125.502 39.0697 125.614 39.2937 125.698C39.5177 125.782 39.7511 125.824 39.9937 125.824C40.4137 125.824 40.7684 125.749 41.0577 125.6C41.3471 125.441 41.5851 125.227 41.7717 124.956L42.8917 125.852C42.2291 126.748 41.2677 127.196 40.0077 127.196C39.4851 127.196 39.0044 127.117 38.5657 126.958C38.1271 126.79 37.7444 126.557 37.4177 126.258C37.1004 125.959 36.8484 125.595 36.6617 125.166C36.4844 124.727 36.3957 124.233 36.3957 123.682C36.3957 123.141 36.4844 122.651 36.6617 122.212C36.8484 121.764 37.1004 121.386 37.4177 121.078C37.7351 120.761 38.1084 120.518 38.5377 120.35C38.9764 120.173 39.4477 120.084 39.9517 120.084C40.4184 120.084 40.8477 120.163 41.2397 120.322C41.6411 120.471 41.9864 120.7 42.2757 121.008C42.5651 121.307 42.7891 121.685 42.9477 122.142C43.1157 122.59 43.1997 123.117 43.1997 123.724ZM53.1288 120.084C53.5675 120.084 53.9408 120.163 54.2488 120.322C54.5661 120.471 54.8228 120.672 55.0188 120.924C55.2241 121.176 55.3735 121.465 55.4668 121.792C55.5601 122.119 55.6068 122.455 55.6068 122.8V127H53.9268V123.276C53.9268 123.08 53.9128 122.875 53.8848 122.66C53.8568 122.445 53.7961 122.254 53.7028 122.086C53.6095 121.909 53.4788 121.764 53.3108 121.652C53.1521 121.54 52.9375 121.484 52.6668 121.484C52.4055 121.484 52.1815 121.54 51.9948 121.652C51.8081 121.764 51.6541 121.909 51.5328 122.086C51.4115 122.263 51.3228 122.464 51.2668 122.688C51.2108 122.903 51.1828 123.117 51.1828 123.332V127H49.5028V122.94C49.5028 122.52 49.4001 122.175 49.1948 121.904C48.9988 121.624 48.6861 121.484 48.2568 121.484C48.0048 121.484 47.7855 121.54 47.5988 121.652C47.4121 121.755 47.2581 121.89 47.1368 122.058C47.0248 122.226 46.9361 122.422 46.8708 122.646C46.8148 122.861 46.7868 123.08 46.7868 123.304V127H45.1068V120.28H46.7028V121.358H46.7308C46.8055 121.19 46.9035 121.031 47.0248 120.882C47.1555 120.733 47.3048 120.597 47.4728 120.476C47.6501 120.355 47.8508 120.261 48.0748 120.196C48.2988 120.121 48.5461 120.084 48.8168 120.084C49.3395 120.084 49.7735 120.201 50.1188 120.434C50.4641 120.667 50.7301 120.975 50.9168 121.358C51.1408 120.947 51.4395 120.635 51.8128 120.42C52.1861 120.196 52.6248 120.084 53.1288 120.084Z" fill="#B100E8"/>
<path d="M598.1 119.777C597.913 119.535 597.647 119.334 597.302 119.175C596.966 119.007 596.625 118.923 596.28 118.923C596.074 118.923 595.869 118.951 595.664 119.007C595.458 119.054 595.272 119.133 595.104 119.245C594.936 119.348 594.796 119.488 594.684 119.665C594.581 119.833 594.53 120.039 594.53 120.281C594.53 120.505 594.576 120.697 594.67 120.855C594.763 121.014 594.889 121.149 595.048 121.261C595.216 121.373 595.416 121.471 595.65 121.555C595.883 121.639 596.14 121.723 596.42 121.807C596.737 121.91 597.064 122.027 597.4 122.157C597.745 122.288 598.058 122.461 598.338 122.675C598.627 122.89 598.86 123.161 599.038 123.487C599.224 123.814 599.318 124.22 599.318 124.705C599.318 125.237 599.22 125.704 599.024 126.105C598.828 126.497 598.566 126.824 598.24 127.085C597.913 127.347 597.53 127.543 597.092 127.673C596.653 127.804 596.191 127.869 595.706 127.869C595.062 127.869 594.432 127.753 593.816 127.519C593.2 127.277 592.696 126.922 592.304 126.455L593.564 125.279C593.806 125.615 594.128 125.881 594.53 126.077C594.94 126.273 595.342 126.371 595.734 126.371C595.939 126.371 596.149 126.348 596.364 126.301C596.578 126.245 596.77 126.157 596.938 126.035C597.115 125.914 597.255 125.765 597.358 125.587C597.47 125.401 597.526 125.172 597.526 124.901C597.526 124.64 597.465 124.425 597.344 124.257C597.222 124.08 597.059 123.931 596.854 123.809C596.648 123.679 596.406 123.567 596.126 123.473C595.846 123.38 595.552 123.282 595.244 123.179C594.945 123.086 594.646 122.974 594.348 122.843C594.049 122.713 593.778 122.54 593.536 122.325C593.302 122.111 593.111 121.849 592.962 121.541C592.812 121.224 592.738 120.832 592.738 120.365C592.738 119.861 592.84 119.427 593.046 119.063C593.26 118.699 593.536 118.401 593.872 118.167C594.217 117.925 594.604 117.747 595.034 117.635C595.472 117.514 595.916 117.453 596.364 117.453C596.868 117.453 597.376 117.542 597.89 117.719C598.412 117.897 598.865 118.163 599.248 118.517L598.1 119.777ZM600.889 124.229C600.889 123.697 600.982 123.217 601.169 122.787C601.365 122.349 601.626 121.975 601.953 121.667C602.279 121.359 602.667 121.121 603.115 120.953C603.563 120.785 604.039 120.701 604.543 120.701C605.047 120.701 605.523 120.785 605.971 120.953C606.419 121.121 606.806 121.359 607.133 121.667C607.459 121.975 607.716 122.349 607.903 122.787C608.099 123.217 608.197 123.697 608.197 124.229C608.197 124.761 608.099 125.247 607.903 125.685C607.716 126.124 607.459 126.502 607.133 126.819C606.806 127.127 606.419 127.37 605.971 127.547C605.523 127.725 605.047 127.813 604.543 127.813C604.039 127.813 603.563 127.725 603.115 127.547C602.667 127.37 602.279 127.127 601.953 126.819C601.626 126.502 601.365 126.124 601.169 125.685C600.982 125.247 600.889 124.761 600.889 124.229ZM602.597 124.229C602.597 124.491 602.634 124.752 602.709 125.013C602.793 125.275 602.914 125.508 603.073 125.713C603.231 125.919 603.432 126.087 603.675 126.217C603.917 126.348 604.207 126.413 604.543 126.413C604.879 126.413 605.168 126.348 605.411 126.217C605.653 126.087 605.854 125.919 606.013 125.713C606.171 125.508 606.288 125.275 606.363 125.013C606.447 124.752 606.489 124.491 606.489 124.229C606.489 123.968 606.447 123.711 606.363 123.459C606.288 123.198 606.171 122.965 606.013 122.759C605.854 122.554 605.653 122.391 605.411 122.269C605.168 122.139 604.879 122.073 604.543 122.073C604.207 122.073 603.917 122.139 603.675 122.269C603.432 122.391 603.231 122.554 603.073 122.759C602.914 122.965 602.793 123.198 602.709 123.459C602.634 123.711 602.597 123.968 602.597 124.229ZM610.134 117.033H611.814V127.617H610.134V117.033ZM620.264 127.617H618.668V126.539H618.64C618.49 126.875 618.229 127.174 617.856 127.435C617.492 127.687 617.058 127.813 616.554 127.813C616.115 127.813 615.737 127.739 615.42 127.589C615.112 127.431 614.855 127.225 614.65 126.973C614.454 126.721 614.309 126.432 614.216 126.105C614.122 125.779 614.076 125.443 614.076 125.097V120.897H615.756V124.621C615.756 124.817 615.77 125.023 615.798 125.237C615.826 125.452 615.886 125.648 615.98 125.825C616.073 125.993 616.199 126.133 616.358 126.245C616.526 126.357 616.745 126.413 617.016 126.413C617.277 126.413 617.506 126.362 617.702 126.259C617.907 126.147 618.07 126.007 618.192 125.839C618.322 125.671 618.42 125.48 618.486 125.265C618.551 125.041 618.584 124.817 618.584 124.593V120.897H620.264V127.617ZM621.594 122.241V120.897H622.77V118.951H624.422V120.897H626.102V122.241H624.422V125.363C624.422 125.662 624.473 125.909 624.576 126.105C624.688 126.301 624.931 126.399 625.304 126.399C625.416 126.399 625.537 126.39 625.668 126.371C625.799 126.343 625.915 126.306 626.018 126.259L626.074 127.575C625.925 127.631 625.747 127.673 625.542 127.701C625.337 127.739 625.141 127.757 624.954 127.757C624.506 127.757 624.142 127.697 623.862 127.575C623.582 127.445 623.358 127.272 623.19 127.057C623.031 126.833 622.919 126.581 622.854 126.301C622.798 126.012 622.77 125.704 622.77 125.377V122.241H621.594ZM627.626 120.897H629.306V127.617H627.626V120.897ZM627.388 118.615C627.388 118.345 627.486 118.111 627.682 117.915C627.887 117.71 628.144 117.607 628.452 117.607C628.76 117.607 629.017 117.705 629.222 117.901C629.437 118.088 629.544 118.326 629.544 118.615C629.544 118.905 629.437 119.147 629.222 119.343C629.017 119.53 628.76 119.623 628.452 119.623C628.144 119.623 627.887 119.525 627.682 119.329C627.486 119.124 627.388 118.886 627.388 118.615ZM631.232 124.229C631.232 123.697 631.325 123.217 631.512 122.787C631.708 122.349 631.969 121.975 632.296 121.667C632.623 121.359 633.01 121.121 633.458 120.953C633.906 120.785 634.382 120.701 634.886 120.701C635.39 120.701 635.866 120.785 636.314 120.953C636.762 121.121 637.149 121.359 637.476 121.667C637.803 121.975 638.059 122.349 638.246 122.787C638.442 123.217 638.54 123.697 638.54 124.229C638.54 124.761 638.442 125.247 638.246 125.685C638.059 126.124 637.803 126.502 637.476 126.819C637.149 127.127 636.762 127.37 636.314 127.547C635.866 127.725 635.39 127.813 634.886 127.813C634.382 127.813 633.906 127.725 633.458 127.547C633.01 127.37 632.623 127.127 632.296 126.819C631.969 126.502 631.708 126.124 631.512 125.685C631.325 125.247 631.232 124.761 631.232 124.229ZM632.94 124.229C632.94 124.491 632.977 124.752 633.052 125.013C633.136 125.275 633.257 125.508 633.416 125.713C633.575 125.919 633.775 126.087 634.018 126.217C634.261 126.348 634.55 126.413 634.886 126.413C635.222 126.413 635.511 126.348 635.754 126.217C635.997 126.087 636.197 125.919 636.356 125.713C636.515 125.508 636.631 125.275 636.706 125.013C636.79 124.752 636.832 124.491 636.832 124.229C636.832 123.968 636.79 123.711 636.706 123.459C636.631 123.198 636.515 122.965 636.356 122.759C636.197 122.554 635.997 122.391 635.754 122.269C635.511 122.139 635.222 122.073 634.886 122.073C634.55 122.073 634.261 122.139 634.018 122.269C633.775 122.391 633.575 122.554 633.416 122.759C633.257 122.965 633.136 123.198 633.052 123.459C632.977 123.711 632.94 123.968 632.94 124.229ZM640.449 120.897H642.045V121.975H642.073C642.222 121.639 642.479 121.345 642.843 121.093C643.216 120.832 643.655 120.701 644.159 120.701C644.598 120.701 644.971 120.781 645.279 120.939C645.596 121.089 645.853 121.289 646.049 121.541C646.254 121.793 646.404 122.083 646.497 122.409C646.59 122.736 646.637 123.072 646.637 123.417V127.617H644.957V123.893C644.957 123.697 644.943 123.492 644.915 123.277C644.887 123.063 644.826 122.871 644.733 122.703C644.64 122.526 644.509 122.381 644.341 122.269C644.182 122.157 643.968 122.101 643.697 122.101C643.426 122.101 643.193 122.157 642.997 122.269C642.801 122.372 642.638 122.507 642.507 122.675C642.386 122.843 642.292 123.039 642.227 123.263C642.162 123.478 642.129 123.697 642.129 123.921V127.617H640.449V120.897Z" fill="#B100E8"/>
<path d="M365.269 117.705H367.033V127.617H365.269V117.705ZM376.248 127.617H374.652V126.609H374.624C374.391 127.001 374.064 127.3 373.644 127.505C373.233 127.711 372.79 127.813 372.314 127.813C371.801 127.813 371.339 127.72 370.928 127.533C370.527 127.337 370.181 127.081 369.892 126.763C369.612 126.437 369.393 126.059 369.234 125.629C369.085 125.191 369.01 124.724 369.01 124.229C369.01 123.735 369.089 123.273 369.248 122.843C369.407 122.414 369.631 122.041 369.92 121.723C370.209 121.406 370.555 121.159 370.956 120.981C371.357 120.795 371.796 120.701 372.272 120.701C372.58 120.701 372.855 120.739 373.098 120.813C373.341 120.879 373.551 120.963 373.728 121.065C373.915 121.168 374.073 121.28 374.204 121.401C374.335 121.523 374.442 121.639 374.526 121.751H374.568V117.033H376.248V127.617ZM370.718 124.229C370.718 124.491 370.755 124.752 370.83 125.013C370.914 125.275 371.035 125.508 371.194 125.713C371.353 125.919 371.553 126.087 371.796 126.217C372.039 126.348 372.323 126.413 372.65 126.413C372.958 126.413 373.233 126.353 373.476 126.231C373.719 126.101 373.924 125.933 374.092 125.727C374.269 125.522 374.4 125.293 374.484 125.041C374.577 124.78 374.624 124.519 374.624 124.257C374.624 123.996 374.577 123.735 374.484 123.473C374.4 123.212 374.269 122.979 374.092 122.773C373.924 122.568 373.719 122.4 373.476 122.269C373.233 122.139 372.958 122.073 372.65 122.073C372.323 122.073 372.039 122.139 371.796 122.269C371.553 122.391 371.353 122.554 371.194 122.759C371.035 122.965 370.914 123.198 370.83 123.459C370.755 123.711 370.718 123.968 370.718 124.229ZM383.301 123.585C383.301 123.371 383.268 123.165 383.203 122.969C383.147 122.773 383.054 122.601 382.923 122.451C382.792 122.302 382.624 122.185 382.419 122.101C382.223 122.008 381.99 121.961 381.719 121.961C381.215 121.961 380.786 122.115 380.431 122.423C380.086 122.722 379.894 123.109 379.857 123.585H383.301ZM384.981 124.341C384.981 124.416 384.981 124.491 384.981 124.565C384.981 124.64 384.976 124.715 384.967 124.789H379.857C379.876 125.032 379.936 125.256 380.039 125.461C380.151 125.657 380.296 125.83 380.473 125.979C380.65 126.119 380.851 126.231 381.075 126.315C381.299 126.399 381.532 126.441 381.775 126.441C382.195 126.441 382.55 126.367 382.839 126.217C383.128 126.059 383.366 125.844 383.553 125.573L384.673 126.469C384.01 127.365 383.049 127.813 381.789 127.813C381.266 127.813 380.786 127.734 380.347 127.575C379.908 127.407 379.526 127.174 379.199 126.875C378.882 126.577 378.63 126.213 378.443 125.783C378.266 125.345 378.177 124.85 378.177 124.299C378.177 123.758 378.266 123.268 378.443 122.829C378.63 122.381 378.882 122.003 379.199 121.695C379.516 121.378 379.89 121.135 380.319 120.967C380.758 120.79 381.229 120.701 381.733 120.701C382.2 120.701 382.629 120.781 383.021 120.939C383.422 121.089 383.768 121.317 384.057 121.625C384.346 121.924 384.57 122.302 384.729 122.759C384.897 123.207 384.981 123.735 384.981 124.341ZM390.978 126.763H390.936C390.768 127.062 390.497 127.309 390.124 127.505C389.751 127.692 389.326 127.785 388.85 127.785C388.579 127.785 388.295 127.748 387.996 127.673C387.707 127.608 387.436 127.496 387.184 127.337C386.941 127.169 386.736 126.955 386.568 126.693C386.409 126.423 386.33 126.091 386.33 125.699C386.33 125.195 386.47 124.794 386.75 124.495C387.039 124.197 387.408 123.968 387.856 123.809C388.304 123.651 388.799 123.548 389.34 123.501C389.891 123.445 390.427 123.417 390.95 123.417V123.249C390.95 122.829 390.796 122.521 390.488 122.325C390.189 122.12 389.83 122.017 389.41 122.017C389.055 122.017 388.715 122.092 388.388 122.241C388.061 122.391 387.791 122.573 387.576 122.787L386.708 121.765C387.091 121.411 387.529 121.145 388.024 120.967C388.528 120.79 389.037 120.701 389.55 120.701C390.147 120.701 390.637 120.785 391.02 120.953C391.412 121.121 391.72 121.341 391.944 121.611C392.168 121.882 392.322 122.185 392.406 122.521C392.499 122.857 392.546 123.193 392.546 123.529V127.617H390.978V126.763ZM390.95 124.551H390.572C390.301 124.551 390.017 124.565 389.718 124.593C389.419 124.612 389.144 124.663 388.892 124.747C388.64 124.822 388.43 124.934 388.262 125.083C388.094 125.223 388.01 125.419 388.01 125.671C388.01 125.83 388.043 125.965 388.108 126.077C388.183 126.18 388.276 126.264 388.388 126.329C388.5 126.395 388.626 126.441 388.766 126.469C388.906 126.497 389.046 126.511 389.186 126.511C389.765 126.511 390.203 126.357 390.502 126.049C390.801 125.741 390.95 125.321 390.95 124.789V124.551ZM393.681 122.241V120.897H394.857V118.951H396.509V120.897H398.189V122.241H396.509V125.363C396.509 125.662 396.56 125.909 396.663 126.105C396.775 126.301 397.017 126.399 397.391 126.399C397.503 126.399 397.624 126.39 397.755 126.371C397.885 126.343 398.002 126.306 398.105 126.259L398.161 127.575C398.011 127.631 397.834 127.673 397.629 127.701C397.423 127.739 397.227 127.757 397.041 127.757C396.593 127.757 396.229 127.697 395.949 127.575C395.669 127.445 395.445 127.272 395.277 127.057C395.118 126.833 395.006 126.581 394.941 126.301C394.885 126.012 394.857 125.704 394.857 125.377V122.241H393.681ZM399.712 120.897H401.392V127.617H399.712V120.897ZM399.474 118.615C399.474 118.345 399.572 118.111 399.768 117.915C399.974 117.71 400.23 117.607 400.538 117.607C400.846 117.607 401.103 117.705 401.308 117.901C401.523 118.088 401.63 118.326 401.63 118.615C401.63 118.905 401.523 119.147 401.308 119.343C401.103 119.53 400.846 119.623 400.538 119.623C400.23 119.623 399.974 119.525 399.768 119.329C399.572 119.124 399.474 118.886 399.474 118.615ZM403.319 124.229C403.319 123.697 403.412 123.217 403.599 122.787C403.795 122.349 404.056 121.975 404.383 121.667C404.709 121.359 405.097 121.121 405.545 120.953C405.993 120.785 406.469 120.701 406.973 120.701C407.477 120.701 407.953 120.785 408.401 120.953C408.849 121.121 409.236 121.359 409.563 121.667C409.889 121.975 410.146 122.349 410.333 122.787C410.529 123.217 410.627 123.697 410.627 124.229C410.627 124.761 410.529 125.247 410.333 125.685C410.146 126.124 409.889 126.502 409.563 126.819C409.236 127.127 408.849 127.37 408.401 127.547C407.953 127.725 407.477 127.813 406.973 127.813C406.469 127.813 405.993 127.725 405.545 127.547C405.097 127.37 404.709 127.127 404.383 126.819C404.056 126.502 403.795 126.124 403.599 125.685C403.412 125.247 403.319 124.761 403.319 124.229ZM405.027 124.229C405.027 124.491 405.064 124.752 405.139 125.013C405.223 125.275 405.344 125.508 405.503 125.713C405.661 125.919 405.862 126.087 406.105 126.217C406.347 126.348 406.637 126.413 406.973 126.413C407.309 126.413 407.598 126.348 407.841 126.217C408.083 126.087 408.284 125.919 408.443 125.713C408.601 125.508 408.718 125.275 408.793 125.013C408.877 124.752 408.919 124.491 408.919 124.229C408.919 123.968 408.877 123.711 408.793 123.459C408.718 123.198 408.601 122.965 408.443 122.759C408.284 122.554 408.083 122.391 407.841 122.269C407.598 122.139 407.309 122.073 406.973 122.073C406.637 122.073 406.347 122.139 406.105 122.269C405.862 122.391 405.661 122.554 405.503 122.759C405.344 122.965 405.223 123.198 405.139 123.459C405.064 123.711 405.027 123.968 405.027 124.229ZM412.535 120.897H414.131V121.975H414.159C414.309 121.639 414.565 121.345 414.929 121.093C415.303 120.832 415.741 120.701 416.245 120.701C416.684 120.701 417.057 120.781 417.365 120.939C417.683 121.089 417.939 121.289 418.135 121.541C418.341 121.793 418.49 122.083 418.583 122.409C418.677 122.736 418.723 123.072 418.723 123.417V127.617H417.043V123.893C417.043 123.697 417.029 123.492 417.001 123.277C416.973 123.063 416.913 122.871 416.819 122.703C416.726 122.526 416.595 122.381 416.427 122.269C416.269 122.157 416.054 122.101 415.783 122.101C415.513 122.101 415.279 122.157 415.083 122.269C414.887 122.372 414.724 122.507 414.593 122.675C414.472 122.843 414.379 123.039 414.313 123.263C414.248 123.478 414.215 123.697 414.215 123.921V127.617H412.535V120.897Z" fill="#2D00F7"/>
<path d="M479.384 117.705H482.618C483.188 117.705 483.701 117.757 484.158 117.859C484.616 117.962 485.008 118.13 485.334 118.363C485.661 118.597 485.913 118.895 486.09 119.259C486.268 119.623 486.356 120.062 486.356 120.575C486.356 121.126 486.254 121.588 486.048 121.961C485.843 122.335 485.563 122.638 485.208 122.871C484.863 123.095 484.457 123.259 483.99 123.361C483.524 123.464 483.029 123.515 482.506 123.515H481.148V127.617H479.384V117.705ZM482.38 122.031C482.67 122.031 482.945 122.013 483.206 121.975C483.468 121.929 483.701 121.854 483.906 121.751C484.112 121.639 484.275 121.49 484.396 121.303C484.518 121.117 484.578 120.874 484.578 120.575C484.578 120.286 484.518 120.053 484.396 119.875C484.275 119.689 484.112 119.544 483.906 119.441C483.71 119.339 483.482 119.273 483.22 119.245C482.968 119.208 482.707 119.189 482.436 119.189H481.148V122.031H482.38ZM487.483 120.897H489.093V122.017H489.121C489.307 121.625 489.569 121.308 489.905 121.065C490.241 120.823 490.633 120.701 491.081 120.701C491.146 120.701 491.216 120.706 491.291 120.715C491.365 120.715 491.431 120.725 491.487 120.743V122.283C491.375 122.255 491.277 122.237 491.193 122.227C491.118 122.218 491.043 122.213 490.969 122.213C490.586 122.213 490.278 122.283 490.045 122.423C489.811 122.563 489.629 122.731 489.499 122.927C489.368 123.123 489.279 123.324 489.233 123.529C489.186 123.735 489.163 123.898 489.163 124.019V127.617H487.483V120.897ZM492.224 124.229C492.224 123.697 492.318 123.217 492.504 122.787C492.7 122.349 492.962 121.975 493.288 121.667C493.615 121.359 494.002 121.121 494.45 120.953C494.898 120.785 495.374 120.701 495.878 120.701C496.382 120.701 496.858 120.785 497.306 120.953C497.754 121.121 498.142 121.359 498.468 121.667C498.795 121.975 499.052 122.349 499.238 122.787C499.434 123.217 499.532 123.697 499.532 124.229C499.532 124.761 499.434 125.247 499.238 125.685C499.052 126.124 498.795 126.502 498.468 126.819C498.142 127.127 497.754 127.37 497.306 127.547C496.858 127.725 496.382 127.813 495.878 127.813C495.374 127.813 494.898 127.725 494.45 127.547C494.002 127.37 493.615 127.127 493.288 126.819C492.962 126.502 492.7 126.124 492.504 125.685C492.318 125.247 492.224 124.761 492.224 124.229ZM493.932 124.229C493.932 124.491 493.97 124.752 494.044 125.013C494.128 125.275 494.25 125.508 494.408 125.713C494.567 125.919 494.768 126.087 495.01 126.217C495.253 126.348 495.542 126.413 495.878 126.413C496.214 126.413 496.504 126.348 496.746 126.217C496.989 126.087 497.19 125.919 497.348 125.713C497.507 125.508 497.624 125.275 497.698 125.013C497.782 124.752 497.824 124.491 497.824 124.229C497.824 123.968 497.782 123.711 497.698 123.459C497.624 123.198 497.507 122.965 497.348 122.759C497.19 122.554 496.989 122.391 496.746 122.269C496.504 122.139 496.214 122.073 495.878 122.073C495.542 122.073 495.253 122.139 495.01 122.269C494.768 122.391 494.567 122.554 494.408 122.759C494.25 122.965 494.128 123.198 494.044 123.459C493.97 123.711 493.932 123.968 493.932 124.229ZM500.475 122.241V120.897H501.651V118.951H503.303V120.897H504.983V122.241H503.303V125.363C503.303 125.662 503.355 125.909 503.457 126.105C503.569 126.301 503.812 126.399 504.185 126.399C504.297 126.399 504.419 126.39 504.549 126.371C504.68 126.343 504.797 126.306 504.899 126.259L504.955 127.575C504.806 127.631 504.629 127.673 504.423 127.701C504.218 127.739 504.022 127.757 503.835 127.757C503.387 127.757 503.023 127.697 502.743 127.575C502.463 127.445 502.239 127.272 502.071 127.057C501.913 126.833 501.801 126.581 501.735 126.301C501.679 126.012 501.651 125.704 501.651 125.377V122.241H500.475ZM506.087 124.229C506.087 123.697 506.18 123.217 506.367 122.787C506.563 122.349 506.824 121.975 507.151 121.667C507.478 121.359 507.865 121.121 508.313 120.953C508.761 120.785 509.237 120.701 509.741 120.701C510.245 120.701 510.721 120.785 511.169 120.953C511.617 121.121 512.004 121.359 512.331 121.667C512.658 121.975 512.914 122.349 513.101 122.787C513.297 123.217 513.395 123.697 513.395 124.229C513.395 124.761 513.297 125.247 513.101 125.685C512.914 126.124 512.658 126.502 512.331 126.819C512.004 127.127 511.617 127.37 511.169 127.547C510.721 127.725 510.245 127.813 509.741 127.813C509.237 127.813 508.761 127.725 508.313 127.547C507.865 127.37 507.478 127.127 507.151 126.819C506.824 126.502 506.563 126.124 506.367 125.685C506.18 125.247 506.087 124.761 506.087 124.229ZM507.795 124.229C507.795 124.491 507.832 124.752 507.907 125.013C507.991 125.275 508.112 125.508 508.271 125.713C508.43 125.919 508.63 126.087 508.873 126.217C509.116 126.348 509.405 126.413 509.741 126.413C510.077 126.413 510.366 126.348 510.609 126.217C510.852 126.087 511.052 125.919 511.211 125.713C511.37 125.508 511.486 125.275 511.561 125.013C511.645 124.752 511.687 124.491 511.687 124.229C511.687 123.968 511.645 123.711 511.561 123.459C511.486 123.198 511.37 122.965 511.211 122.759C511.052 122.554 510.852 122.391 510.609 122.269C510.366 122.139 510.077 122.073 509.741 122.073C509.405 122.073 509.116 122.139 508.873 122.269C508.63 122.391 508.43 122.554 508.271 122.759C508.112 122.965 507.991 123.198 507.907 123.459C507.832 123.711 507.795 123.968 507.795 124.229ZM514.338 122.241V120.897H515.514V118.951H517.166V120.897H518.846V122.241H517.166V125.363C517.166 125.662 517.217 125.909 517.32 126.105C517.432 126.301 517.675 126.399 518.048 126.399C518.16 126.399 518.281 126.39 518.412 126.371C518.543 126.343 518.659 126.306 518.762 126.259L518.818 127.575C518.669 127.631 518.491 127.673 518.286 127.701C518.081 127.739 517.885 127.757 517.698 127.757C517.25 127.757 516.886 127.697 516.606 127.575C516.326 127.445 516.102 127.272 515.934 127.057C515.775 126.833 515.663 126.581 515.598 126.301C515.542 126.012 515.514 125.704 515.514 125.377V122.241H514.338ZM519.334 120.897H521.196L523.072 125.783H523.1L524.766 120.897H526.516L523.338 129.059C523.216 129.367 523.086 129.638 522.946 129.871C522.806 130.114 522.638 130.315 522.442 130.473C522.246 130.641 522.012 130.767 521.742 130.851C521.48 130.935 521.163 130.977 520.79 130.977C520.65 130.977 520.505 130.968 520.356 130.949C520.216 130.94 520.071 130.917 519.922 130.879L520.062 129.423C520.174 129.461 520.281 129.484 520.384 129.493C520.496 129.512 520.598 129.521 520.692 129.521C520.869 129.521 521.018 129.498 521.14 129.451C521.261 129.414 521.364 129.349 521.448 129.255C521.532 129.171 521.606 129.064 521.672 128.933C521.737 128.803 521.807 128.649 521.882 128.471L522.218 127.617L519.334 120.897ZM529.41 120.897V121.835H529.452C529.536 121.705 529.643 121.574 529.774 121.443C529.914 121.303 530.082 121.182 530.278 121.079C530.474 120.967 530.693 120.879 530.936 120.813C531.188 120.739 531.468 120.701 531.776 120.701C532.252 120.701 532.69 120.795 533.092 120.981C533.493 121.159 533.838 121.406 534.128 121.723C534.417 122.041 534.641 122.414 534.8 122.843C534.958 123.273 535.038 123.735 535.038 124.229C535.038 124.724 534.958 125.191 534.8 125.629C534.65 126.059 534.431 126.437 534.142 126.763C533.862 127.081 533.516 127.337 533.106 127.533C532.704 127.72 532.247 127.813 531.734 127.813C531.258 127.813 530.819 127.715 530.418 127.519C530.026 127.323 529.722 127.057 529.508 126.721H529.48V130.977H527.8V120.897H529.41ZM533.33 124.229C533.33 123.968 533.288 123.711 533.204 123.459C533.129 123.198 533.012 122.965 532.854 122.759C532.695 122.554 532.494 122.391 532.252 122.269C532.009 122.139 531.724 122.073 531.398 122.073C531.09 122.073 530.814 122.139 530.572 122.269C530.329 122.4 530.119 122.568 529.942 122.773C529.774 122.979 529.643 123.212 529.55 123.473C529.466 123.735 529.424 123.996 529.424 124.257C529.424 124.519 529.466 124.78 529.55 125.041C529.643 125.293 529.774 125.522 529.942 125.727C530.119 125.933 530.329 126.101 530.572 126.231C530.814 126.353 531.09 126.413 531.398 126.413C531.724 126.413 532.009 126.348 532.252 126.217C532.494 126.087 532.695 125.919 532.854 125.713C533.012 125.508 533.129 125.275 533.204 125.013C533.288 124.752 533.33 124.491 533.33 124.229ZM541.671 123.585C541.671 123.371 541.638 123.165 541.573 122.969C541.517 122.773 541.424 122.601 541.293 122.451C541.162 122.302 540.994 122.185 540.789 122.101C540.593 122.008 540.36 121.961 540.089 121.961C539.585 121.961 539.156 122.115 538.801 122.423C538.456 122.722 538.264 123.109 538.227 123.585H541.671ZM543.351 124.341C543.351 124.416 543.351 124.491 543.351 124.565C543.351 124.64 543.346 124.715 543.337 124.789H538.227C538.246 125.032 538.306 125.256 538.409 125.461C538.521 125.657 538.666 125.83 538.843 125.979C539.02 126.119 539.221 126.231 539.445 126.315C539.669 126.399 539.902 126.441 540.145 126.441C540.565 126.441 540.92 126.367 541.209 126.217C541.498 126.059 541.736 125.844 541.923 125.573L543.043 126.469C542.38 127.365 541.419 127.813 540.159 127.813C539.636 127.813 539.156 127.734 538.717 127.575C538.278 127.407 537.896 127.174 537.569 126.875C537.252 126.577 537 126.213 536.813 125.783C536.636 125.345 536.547 124.85 536.547 124.299C536.547 123.758 536.636 123.268 536.813 122.829C537 122.381 537.252 122.003 537.569 121.695C537.886 121.378 538.26 121.135 538.689 120.967C539.128 120.79 539.599 120.701 540.103 120.701C540.57 120.701 540.999 120.781 541.391 120.939C541.792 121.089 542.138 121.317 542.427 121.625C542.716 121.924 542.94 122.302 543.099 122.759C543.267 123.207 543.351 123.735 543.351 124.341Z" fill="#2D00F7"/>
<defs>
<clipPath id="clip0">
<rect width="35.389" height="35.389" fill="white" transform="translate(178.661 110.823)"/>
</clipPath>
</defs>
</svg>
