<svg width="1438" height="336" viewBox="0 0 1438 336" fill="none" xmlns="http://www.w3.org/2000/svg">
<path opacity="0.401" d="M113.723 138.805C113.723 138.805 304.347 64.3542 565.066 138.805C825.785 213.256 1298.72 50.425 1298.72 50.425C1298.72 50.425 1344.7 23.2472 1437.05 34.0212C1437.17 34.0609 1436.88 336.291 1437.05 335.671L841.124 325.941L113.725 336L113.723 138.805Z" fill="#EFEEFF"/>
<path opacity="0.217" d="M0 107.315C0 107.315 190.624 32.8643 451.343 107.315C712.062 181.766 1185 18.9352 1185 18.9352C1185 18.9352 1345.62 -8.24796 1437.97 2.5253C1438.09 2.56504 1437.8 304.795 1437.97 304.175L727.399 294.45L0 304.51V107.315Z" fill="#EFEEFF"/>
<path d="M0.333008 143.741C72.5322 126.526 221.182 103.788 404.208 156.05C664.927 230.5 1137.86 67.6695 1137.86 67.6695C1137.86 67.6695 1226.56 8.81804 1404.89 83.4451C1416.17 88.066 1426.98 93.7637 1437.17 100.459C1437.37 101.223 1437.07 336.388 1437.17 335.469C1436.88 335.197 0.333008 335.924 0.333008 335.924C0.333008 335.924 0.454213 143.72 0.333008 143.741Z" fill="#ECDFFD" fill-opacity="0.4"/>
</svg>
