<svg width="454" height="123" viewBox="0 0 454 123" fill="none" xmlns="http://www.w3.org/2000/svg">
<g filter="url(#filter0_d)">
<line x1="20" y1="18.5" x2="434" y2="18.5" stroke="#E9E9E9"/>
<rect x="20" y="19" width="414" height="80" fill="white"/>
<path d="M58 37.8801C58 36.9266 58.4533 36.0298 59.2212 35.4644L68 29L76.7788 35.4644C77.5467 36.0298 78 36.9266 78 37.8801V48.5C78 49.8807 76.8807 51 75.5 51H72C71.4477 51 71 50.5523 71 50V44C71 43.7239 70.7761 43.5 70.5 43.5H65.5C65.2239 43.5 65 43.7239 65 44V50C65 50.5523 64.5523 51 64 51H60.5C59.1193 51 58 49.8807 58 48.5V37.8801Z" fill="#4F4E90" stroke="#4F4E90" stroke-width="2" stroke-linecap="round" stroke-linejoin="round"/>
<path d="M57.8408 74V64.1357H55.7764V68.1416H51.333V64.1357H49.2686V74H51.333V69.8438H55.7764V74H57.8408ZM62.6738 74.1572C64.8887 74.1572 66.3037 72.7422 66.3037 70.3291C66.3037 67.9502 64.8682 66.5146 62.6738 66.5146C60.4795 66.5146 59.0439 67.957 59.0439 70.3291C59.0439 72.7354 60.459 74.1572 62.6738 74.1572ZM62.6738 72.6328C61.6895 72.6328 61.0674 71.8057 61.0674 70.3359C61.0674 68.8799 61.7031 68.0391 62.6738 68.0391C63.6445 68.0391 64.2734 68.8799 64.2734 70.3359C64.2734 71.8057 63.6514 72.6328 62.6738 72.6328ZM67.3359 74H69.332V69.5771C69.332 68.7568 69.8447 68.1826 70.6035 68.1826C71.3418 68.1826 71.7861 68.6475 71.7861 69.4336V74H73.707V69.5498C73.707 68.7363 74.2061 68.1826 74.9648 68.1826C75.7373 68.1826 76.1611 68.6475 76.1611 69.4951V74H78.1572V68.9961C78.1572 67.5195 77.1934 66.5352 75.7578 66.5352C74.6846 66.5352 73.8096 67.1162 73.4814 68.0391H73.4404C73.1943 67.082 72.4561 66.5352 71.3965 66.5352C70.3984 66.5352 69.6123 67.1162 69.3047 67.998H69.2637V66.6719H67.3359V74ZM84.2754 71.7578C84.0908 72.3184 83.5303 72.6807 82.7988 72.6807C81.7803 72.6807 81.1172 71.9629 81.1172 70.917V70.7939H86.1689V70.1855C86.1689 67.957 84.8223 66.5146 82.6895 66.5146C80.5225 66.5146 79.1553 68.0322 79.1553 70.3701C79.1553 72.7148 80.5088 74.1572 82.7646 74.1572C84.5762 74.1572 85.8887 73.1934 86.1074 71.7578H84.2754ZM82.71 67.9912C83.5986 67.9912 84.207 68.6338 84.248 69.5703H81.1377C81.2061 68.6543 81.835 67.9912 82.71 67.9912Z" fill="black"/>
<path d="M301.312 74.1641C303.493 74.1641 304.956 73.0771 305.407 71.1289H304.163C303.808 72.332 302.769 73.0293 301.319 73.0293C299.371 73.0293 298.134 71.4844 298.134 69.0645C298.134 66.665 299.385 65.1064 301.312 65.1064C302.721 65.1064 303.849 65.9541 304.163 67.2461H305.407C305.093 65.2773 303.459 63.9717 301.312 63.9717C298.612 63.9717 296.869 65.9678 296.869 69.0645C296.869 72.1885 298.592 74.1641 301.312 74.1641ZM306.74 74H307.93V69.8574C307.93 68.627 308.661 67.8203 309.844 67.8203C310.958 67.8203 311.525 68.4971 311.525 69.625V74H312.715V69.4062C312.715 67.8203 311.771 66.7676 310.213 66.7676C309.133 66.7676 308.354 67.2324 307.957 68.0254H307.93V64.1357H306.74V74ZM316.304 74.123C317.261 74.123 318.163 73.5898 318.587 72.7764H318.614V74H319.742V69.085C319.742 67.6699 318.689 66.7676 317.021 66.7676C315.34 66.7676 314.287 67.7109 314.205 68.9414H315.354C315.504 68.2441 316.078 67.8135 316.994 67.8135C317.979 67.8135 318.553 68.333 318.553 69.2012V69.7959L316.516 69.9121C314.875 70.0078 313.938 70.7734 313.938 71.9902C313.938 73.2686 314.889 74.123 316.304 74.123ZM316.57 73.1113C315.716 73.1113 315.148 72.667 315.148 71.9902C315.148 71.3203 315.695 70.8965 316.652 70.835L318.553 70.7188V71.2998C318.553 72.3252 317.691 73.1113 316.57 73.1113ZM321.636 65.1748V66.8906H320.576V67.8682H321.636V72.1543C321.636 73.5215 322.142 74.0547 323.447 74.0547C323.728 74.0547 324.056 74.0342 324.199 74V73.002C324.117 73.0156 323.844 73.0361 323.707 73.0361C323.099 73.0361 322.825 72.7422 322.825 72.0928V67.8682H324.206V66.8906H322.825V65.1748H321.636Z" fill="#4F4F4F"/>
<g clip-path="url(#clip0)">
<path d="M299.809 52.0001C299.68 52.0057 299.551 51.9802 299.434 51.9258C299.317 51.8714 299.214 51.7897 299.135 51.6874C299.055 51.5852 299.002 51.4654 298.978 51.3382C298.955 51.211 298.962 51.08 299 50.9563L300.529 45.907C299.093 43.3766 298.624 40.4113 299.207 37.5609C299.791 34.7106 301.388 32.1685 303.703 30.4059C306.018 28.6433 308.893 27.7798 311.796 27.9755C314.699 28.1712 317.432 29.4128 319.49 31.4701C321.547 33.5274 322.789 36.2609 322.984 39.1638C323.18 42.0667 322.316 44.9421 320.554 47.2569C318.791 49.5717 316.249 51.169 313.399 51.7525C310.548 52.336 307.583 51.8663 305.053 50.4303L300.044 51.9596C299.968 51.9846 299.889 51.9982 299.809 52.0001ZM305.198 48.7634C305.347 48.7644 305.493 48.8064 305.619 48.8848C307.795 50.2095 310.381 50.6908 312.888 50.2376C315.394 49.7843 317.648 48.4279 319.222 46.4251C320.797 44.4223 321.582 41.912 321.43 39.3691C321.278 36.8262 320.2 34.4272 318.399 32.6259C316.597 30.8246 314.198 29.746 311.655 29.5942C309.112 29.4424 306.602 30.2279 304.599 31.8021C302.597 33.3763 301.24 35.63 300.787 38.1368C300.334 40.6435 300.815 43.2295 302.14 45.4053C302.198 45.5028 302.236 45.6115 302.25 45.7244C302.264 45.8374 302.254 45.952 302.221 46.0608L301.023 49.9772L304.964 48.7796C305.04 48.7573 305.119 48.7464 305.198 48.7472V48.7634Z" fill="#727272"/>
</g>
<rect x="160" y="86" width="134" height="5" rx="2.5" fill="black"/>
<path d="M133.455 74V64.1357H132.225V68.4014H126.811V64.1357H125.58V74H126.811V69.5088H132.225V74H133.455ZM135.841 65.626C136.258 65.626 136.586 65.291 136.586 64.8809C136.586 64.4639 136.258 64.1357 135.841 64.1357C135.431 64.1357 135.096 64.4639 135.096 64.8809C135.096 65.291 135.431 65.626 135.841 65.626ZM135.246 74H136.436V66.8906H135.246V74ZM137.919 68.8525C137.919 69.8779 138.568 70.5 139.908 70.8213L141.036 71.0947C141.85 71.293 142.13 71.5869 142.13 72.0996C142.13 72.7422 141.535 73.1523 140.571 73.1523C139.607 73.1523 139.061 72.7627 138.917 71.9492H137.728C137.864 73.2822 138.903 74.123 140.571 74.123C142.157 74.123 143.326 73.248 143.326 72.0107C143.326 70.9922 142.807 70.4316 141.371 70.083L140.243 69.8096C139.45 69.6182 139.088 69.2832 139.088 68.791C139.088 68.1689 139.662 67.7383 140.53 67.7383C141.405 67.7383 141.952 68.1963 142.041 68.9414H143.176C143.128 67.6836 142.089 66.7676 140.53 66.7676C138.992 66.7676 137.919 67.6357 137.919 68.8525ZM144.946 65.1748V66.8906H143.887V67.8682H144.946V72.1543C144.946 73.5215 145.452 74.0547 146.758 74.0547C147.038 74.0547 147.366 74.0342 147.51 74V73.002C147.428 73.0156 147.154 73.0361 147.018 73.0361C146.409 73.0361 146.136 72.7422 146.136 72.0928V67.8682H147.517V66.8906H146.136V65.1748H144.946ZM151.529 74.123C153.491 74.123 154.817 72.708 154.817 70.4453C154.817 68.1758 153.491 66.7676 151.529 66.7676C149.561 66.7676 148.234 68.1758 148.234 70.4453C148.234 72.708 149.561 74.123 151.529 74.123ZM151.529 73.0771C150.271 73.0771 149.444 72.1201 149.444 70.4453C149.444 68.7705 150.271 67.8135 151.529 67.8135C152.787 67.8135 153.607 68.7705 153.607 70.4453C153.607 72.1201 152.787 73.0771 151.529 73.0771ZM156.021 74H157.21V69.5703C157.21 68.5654 157.812 67.9023 158.734 67.9023C159.021 67.9023 159.274 67.9365 159.37 67.9707V66.8154C159.274 66.8018 159.097 66.7676 158.892 66.7676C158.058 66.7676 157.401 67.2666 157.169 68.0527H157.142V66.8906H156.021V74ZM160.936 76.6592C162.221 76.6592 162.809 76.1602 163.417 74.499L166.213 66.8906H164.962L162.993 72.8105H162.973L161.004 66.8906H159.732L162.357 74.0068L162.193 74.5059C161.92 75.333 161.551 75.6543 160.888 75.6543C160.737 75.6543 160.553 75.6475 160.423 75.6201V76.6182C160.553 76.6455 160.792 76.6592 160.936 76.6592Z" fill="#4F4F4F"/>
<path d="M148.312 46.375C148.041 46.375 147.768 46.2709 147.56 46.0648L143.31 41.8148C143.113 41.615 143 41.3451 143 41.0625V34.6875C143 34.101 143.476 33.625 144.062 33.625C144.649 33.625 145.125 34.101 145.125 34.6875V40.6226L149.065 44.5624C149.479 44.9768 149.479 45.6504 149.065 46.0648C148.857 46.2709 148.584 46.375 148.312 46.375Z" fill="#727272"/>
<path d="M134.5 47.4374C134.228 47.4374 133.956 47.3332 133.748 47.1271L128.435 41.8146C128.021 41.4002 128.021 40.7266 128.435 40.3122C128.85 39.8979 129.523 39.8979 129.938 40.3122L134.5 44.8725L139.06 40.3122C139.475 39.8979 140.148 39.8979 140.563 40.3122C140.977 40.7266 140.977 41.4002 140.563 41.8146L135.25 47.1271C135.044 47.3332 134.772 47.4374 134.5 47.4374Z" fill="#727272"/>
<path d="M145.125 52.75C142.885 52.75 140.68 52.1571 138.748 51.033C138.24 50.7376 138.068 50.0874 138.363 49.5795C138.659 49.0716 139.309 48.8995 139.815 49.1928C141.423 50.132 143.259 50.625 145.125 50.625C150.984 50.625 155.75 45.8586 155.75 40C155.75 36.2069 153.716 32.6858 150.44 30.8073C148.825 29.868 146.989 29.375 145.125 29.375C139.266 29.375 134.5 34.1414 134.5 40C134.5 40.3145 134.517 40.6332 134.555 40.9307C134.7 42.618 135.526 46.0966 135.533 46.1285C135.669 46.7022 135.316 47.2739 134.744 47.4099C134.181 47.5565 133.601 47.1931 133.465 46.6236C133.429 46.4749 132.596 42.9559 132.441 41.156C132.398 40.8117 132.375 40.4059 132.375 40C132.375 32.9684 138.093 27.25 145.125 27.25C147.365 27.25 149.568 27.8429 151.502 28.967C155.431 31.2195 157.875 35.4482 157.875 40C157.875 47.0316 152.157 52.75 145.125 52.75Z" fill="#727272"/>
<path d="M197.226 74H198.518L194.881 64.1357H193.664L190.027 74H191.319L192.311 71.1768H196.234L197.226 74ZM194.252 65.6328H194.293L195.872 70.1309H192.673L194.252 65.6328ZM202.018 74.123C203.043 74.123 203.856 73.6172 204.314 72.7969H204.335V74H205.47V64.1357H204.28V68.0459H204.253C203.829 67.2666 203.009 66.7676 201.99 66.7676C200.199 66.7676 198.976 68.2168 198.976 70.4453C198.976 72.6738 200.206 74.123 202.018 74.123ZM202.243 67.8135C203.467 67.8135 204.287 68.8594 204.287 70.4453C204.287 72.0381 203.467 73.0771 202.243 73.0771C200.985 73.0771 200.192 72.0586 200.192 70.4453C200.192 68.8389 200.985 67.8135 202.243 67.8135ZM209.77 74.123C210.795 74.123 211.608 73.6172 212.066 72.7969H212.087V74H213.222V64.1357H212.032V68.0459H212.005C211.581 67.2666 210.761 66.7676 209.742 66.7676C207.951 66.7676 206.728 68.2168 206.728 70.4453C206.728 72.6738 207.958 74.123 209.77 74.123ZM209.995 67.8135C211.219 67.8135 212.039 68.8594 212.039 70.4453C212.039 72.0381 211.219 73.0771 209.995 73.0771C208.737 73.0771 207.944 72.0586 207.944 70.4453C207.944 68.8389 208.737 67.8135 209.995 67.8135ZM217.884 64.1357V74H219.114V70.4795H221.391C223.243 70.4795 224.562 69.1738 224.562 67.3008C224.562 65.4346 223.257 64.1357 221.404 64.1357H217.884ZM219.114 65.2295H221.083C222.498 65.2295 223.298 65.9951 223.298 67.3008C223.298 68.6133 222.491 69.3857 221.083 69.3857H219.114V65.2295ZM227.256 74.123C228.213 74.123 229.115 73.5898 229.539 72.7764H229.566V74H230.694V69.085C230.694 67.6699 229.642 66.7676 227.974 66.7676C226.292 66.7676 225.239 67.7109 225.157 68.9414H226.306C226.456 68.2441 227.03 67.8135 227.946 67.8135C228.931 67.8135 229.505 68.333 229.505 69.2012V69.7959L227.468 69.9121C225.827 70.0078 224.891 70.7734 224.891 71.9902C224.891 73.2686 225.841 74.123 227.256 74.123ZM227.522 73.1113C226.668 73.1113 226.101 72.667 226.101 71.9902C226.101 71.3203 226.647 70.8965 227.604 70.835L229.505 70.7188V71.2998C229.505 72.3252 228.644 73.1113 227.522 73.1113ZM238.111 69.2217C237.961 67.9434 236.901 66.7676 235.124 66.7676C233.162 66.7676 231.856 68.2031 231.856 70.4453C231.856 72.7354 233.169 74.123 235.138 74.123C236.751 74.123 237.94 73.125 238.125 71.71H236.956C236.751 72.5645 236.115 73.0771 235.145 73.0771C233.914 73.0771 233.066 72.0996 233.066 70.4453C233.066 68.832 233.9 67.8135 235.131 67.8135C236.177 67.8135 236.778 68.4492 236.949 69.2217H238.111ZM240.47 71.3203L241.133 70.6914L243.771 74H245.152L241.974 69.96L245.057 66.8906H243.614L240.47 70.0488V64.1357H239.28V74H240.47V71.3203ZM248.092 74.123C249.049 74.123 249.951 73.5898 250.375 72.7764H250.402V74H251.53V69.085C251.53 67.6699 250.478 66.7676 248.81 66.7676C247.128 66.7676 246.075 67.7109 245.993 68.9414H247.142C247.292 68.2441 247.866 67.8135 248.782 67.8135C249.767 67.8135 250.341 68.333 250.341 69.2012V69.7959L248.304 69.9121C246.663 70.0078 245.727 70.7734 245.727 71.9902C245.727 73.2686 246.677 74.123 248.092 74.123ZM248.358 73.1113C247.504 73.1113 246.937 72.667 246.937 71.9902C246.937 71.3203 247.483 70.8965 248.44 70.835L250.341 70.7188V71.2998C250.341 72.3252 249.479 73.1113 248.358 73.1113ZM255.974 76.6797C257.936 76.6797 259.187 75.5518 259.187 73.8564V66.8906H258.052V68.0869H258.031C257.56 67.2598 256.726 66.7676 255.721 66.7676C253.882 66.7676 252.692 68.1895 252.692 70.418C252.692 72.626 253.882 74.0547 255.693 74.0547C256.691 74.0547 257.532 73.5488 257.97 72.7764H257.997V73.8975C257.997 74.957 257.252 75.668 256.021 75.668C255.133 75.668 254.429 75.2373 254.196 74.5879H252.973C253.171 75.7979 254.408 76.6797 255.974 76.6797ZM255.933 73.0088C254.709 73.0088 253.909 72.0107 253.909 70.418C253.909 68.8252 254.709 67.8135 255.933 67.8135C257.17 67.8135 257.997 68.8525 257.997 70.418C257.997 71.9834 257.17 73.0088 255.933 73.0088ZM265.455 71.9629C265.257 72.6328 264.594 73.0908 263.691 73.0908C262.413 73.0908 261.613 72.1953 261.613 70.835V70.7666H266.713V70.3154C266.713 68.1621 265.53 66.7676 263.609 66.7676C261.647 66.7676 260.39 68.2646 260.39 70.4727C260.39 72.708 261.627 74.123 263.664 74.123C265.216 74.123 266.419 73.207 266.624 71.9629H265.455ZM263.589 67.7998C264.71 67.7998 265.455 68.6475 265.482 69.8369H261.62C261.695 68.6543 262.475 67.7998 263.589 67.7998Z" fill="#727272"/>
<g clip-path="url(#clip1)">
<path d="M227 25.6001C219.059 25.6001 212.6 32.0583 212.6 39.9999C212.6 47.9414 219.059 54.4001 227 54.4001C234.942 54.4001 241.4 47.9414 241.4 39.9999C241.4 32.0583 234.942 25.6001 227 25.6001ZM227 27.5164C233.904 27.5164 239.488 33.096 239.488 39.9999C239.488 46.9037 233.904 52.4725 227 52.4725C220.096 52.4725 214.528 46.9037 214.528 39.9999C214.528 33.096 220.096 27.5164 227 27.5164ZM226.985 33.4374C226.858 33.4389 226.733 33.4656 226.617 33.5156C226.5 33.5657 226.395 33.6383 226.307 33.7293C226.218 33.8203 226.149 33.9279 226.103 34.0458C226.056 34.1637 226.034 34.2896 226.036 34.4163V39.0363H221.416C221.382 39.0345 221.349 39.0345 221.315 39.0363C221.061 39.0516 220.823 39.1666 220.653 39.3565C220.483 39.5465 220.396 39.7958 220.409 40.0501C220.422 40.3045 220.536 40.5434 220.724 40.7145C220.913 40.8856 221.162 40.9751 221.416 40.9637H226.036V45.5837C226.035 45.7109 226.059 45.8372 226.107 45.9551C226.155 46.073 226.226 46.1803 226.315 46.2706C226.405 46.361 226.512 46.4327 226.629 46.4817C226.746 46.5306 226.872 46.5559 227 46.5559C227.127 46.5559 227.253 46.5306 227.37 46.4817C227.488 46.4327 227.595 46.361 227.684 46.2706C227.774 46.1803 227.845 46.073 227.893 45.9551C227.94 45.8372 227.965 45.7109 227.963 45.5837V40.9637H232.583C232.711 40.9652 232.838 40.9416 232.956 40.8939C233.074 40.8462 233.182 40.7754 233.273 40.6857C233.363 40.5961 233.435 40.4892 233.485 40.3715C233.534 40.2538 233.559 40.1277 233.559 40.0001C233.559 39.8725 233.534 39.7462 233.485 39.6285C233.435 39.5108 233.363 39.4039 233.273 39.3142C233.182 39.2246 233.074 39.154 232.956 39.1063C232.838 39.0586 232.711 39.0348 232.583 39.0363H227.963V34.4163C227.966 34.2871 227.942 34.1586 227.894 34.0387C227.846 33.9188 227.774 33.8099 227.682 33.7185C227.591 33.6271 227.482 33.5551 227.362 33.5068C227.242 33.4585 227.114 33.4349 226.985 33.4374H226.985Z" fill="#727272"/>
</g>
<path d="M352.319 69.0967H354.678L356.79 73H358.232L355.949 68.9053C357.187 68.5156 357.932 67.4492 357.932 66.0752C357.932 64.2979 356.688 63.1357 354.787 63.1357H351.089V73H352.319V69.0967ZM352.319 64.2295H354.623C355.895 64.2295 356.66 64.9336 356.66 66.1162C356.66 67.3262 355.942 68.0098 354.678 68.0098H352.319V64.2295ZM364.016 70.9629C363.817 71.6328 363.154 72.0908 362.252 72.0908C360.974 72.0908 360.174 71.1953 360.174 69.835V69.7666H365.273V69.3154C365.273 67.1621 364.091 65.7676 362.17 65.7676C360.208 65.7676 358.95 67.2646 358.95 69.4727C358.95 71.708 360.188 73.123 362.225 73.123C363.776 73.123 364.979 72.207 365.185 70.9629H364.016ZM362.149 66.7998C363.271 66.7998 364.016 67.6475 364.043 68.8369H360.181C360.256 67.6543 361.035 66.7998 362.149 66.7998ZM375.521 65.8906H374.345L372.923 71.6738H372.896L371.282 65.8906H370.134L368.527 71.6738H368.5L367.078 65.8906H365.896L367.885 73H369.095L370.694 67.4971H370.722L372.328 73H373.538L375.521 65.8906ZM378.439 73.123C379.396 73.123 380.299 72.5898 380.723 71.7764H380.75V73H381.878V68.085C381.878 66.6699 380.825 65.7676 379.157 65.7676C377.476 65.7676 376.423 66.7109 376.341 67.9414H377.489C377.64 67.2441 378.214 66.8135 379.13 66.8135C380.114 66.8135 380.688 67.333 380.688 68.2012V68.7959L378.651 68.9121C377.011 69.0078 376.074 69.7734 376.074 70.9902C376.074 72.2686 377.024 73.123 378.439 73.123ZM378.706 72.1113C377.852 72.1113 377.284 71.667 377.284 70.9902C377.284 70.3203 377.831 69.8965 378.788 69.835L380.688 69.7188V70.2998C380.688 71.3252 379.827 72.1113 378.706 72.1113ZM383.389 73H384.578V68.5703C384.578 67.5654 385.18 66.9023 386.103 66.9023C386.39 66.9023 386.643 66.9365 386.738 66.9707V65.8154C386.643 65.8018 386.465 65.7676 386.26 65.7676C385.426 65.7676 384.77 66.2666 384.537 67.0527H384.51V65.8906H383.389V73ZM390.061 73.123C391.086 73.123 391.899 72.6172 392.357 71.7969H392.378V73H393.513V63.1357H392.323V67.0459H392.296C391.872 66.2666 391.052 65.7676 390.033 65.7676C388.242 65.7676 387.019 67.2168 387.019 69.4453C387.019 71.6738 388.249 73.123 390.061 73.123ZM390.286 66.8135C391.51 66.8135 392.33 67.8594 392.33 69.4453C392.33 71.0381 391.51 72.0771 390.286 72.0771C389.028 72.0771 388.235 71.0586 388.235 69.4453C388.235 67.8389 389.028 66.8135 390.286 66.8135ZM394.996 67.8525C394.996 68.8779 395.646 69.5 396.985 69.8213L398.113 70.0947C398.927 70.293 399.207 70.5869 399.207 71.0996C399.207 71.7422 398.612 72.1523 397.648 72.1523C396.685 72.1523 396.138 71.7627 395.994 70.9492H394.805C394.941 72.2822 395.98 73.123 397.648 73.123C399.234 73.123 400.403 72.248 400.403 71.0107C400.403 69.9922 399.884 69.4316 398.448 69.083L397.32 68.8096C396.527 68.6182 396.165 68.2832 396.165 67.791C396.165 67.1689 396.739 66.7383 397.607 66.7383C398.482 66.7383 399.029 67.1963 399.118 67.9414H400.253C400.205 66.6836 399.166 65.7676 397.607 65.7676C396.069 65.7676 394.996 66.6357 394.996 67.8525Z" fill="#4F4F4F"/>
<path d="M369.794 26.7091C369.572 26.7082 369.35 26.7256 369.128 26.7747C368.684 26.8728 368.254 27.0741 367.881 27.3934C366.933 28.2066 366.89 29.5145 367.253 30.5997C367.342 30.8646 367.465 31.1276 367.61 31.3778H364.6C364.569 31.3762 364.538 31.3762 364.506 31.3778C364.284 31.4011 364.079 31.5061 363.93 31.6724C363.781 31.8387 363.699 32.0545 363.7 32.2778V36.8528C363.7 37.0915 363.795 37.3204 363.964 37.4892C364.133 37.658 364.362 37.7528 364.6 37.7528H364.966V43.5091C364.948 43.6114 364.948 43.7161 364.966 43.8184V50.3997C364.966 50.6384 365.061 50.8673 365.229 51.0361C365.398 51.2048 365.627 51.2997 365.866 51.2997H386.135C386.373 51.2997 386.602 51.2048 386.771 51.0361C386.94 50.8673 387.035 50.6384 387.035 50.3997V40.5372C387.036 40.4179 387.014 40.2995 386.97 40.1889C386.925 40.0782 386.859 39.9775 386.776 39.8925C386.692 39.8076 386.592 39.7401 386.482 39.6941C386.372 39.6481 386.254 39.6244 386.135 39.6244C386.015 39.6244 385.897 39.6481 385.787 39.6941C385.677 39.7401 385.577 39.8076 385.494 39.8925C385.41 39.9775 385.344 40.0782 385.299 40.1889C385.255 40.2995 385.233 40.4179 385.235 40.5372V49.4997H378.71V44.5684H384.26C384.379 44.5701 384.497 44.5481 384.608 44.5036C384.719 44.4592 384.819 44.3931 384.904 44.3094C384.989 44.2256 385.057 44.1259 385.103 44.0158C385.149 43.9058 385.172 43.7877 385.172 43.6684C385.172 43.5492 385.149 43.4311 385.103 43.3211C385.057 43.211 384.989 43.1112 384.904 43.0275C384.819 42.9438 384.719 42.8777 384.608 42.8333C384.497 42.7888 384.379 42.7668 384.26 42.7684H378.71V37.7528H383.181C383.301 37.7545 383.419 37.7325 383.53 37.688C383.64 37.6435 383.741 37.5775 383.826 37.4938C383.911 37.41 383.979 37.3102 384.025 37.2002C384.071 37.0902 384.094 36.9721 384.094 36.8528C384.094 36.7335 384.071 36.6155 384.025 36.5054C383.979 36.3954 383.911 36.2956 383.826 36.2119C383.741 36.1281 383.64 36.0621 383.53 36.0176C383.419 35.9732 383.301 35.9511 383.181 35.9528H365.5V33.1778H386.5V36.8528C386.499 36.9721 386.521 37.0905 386.565 37.2012C386.61 37.3118 386.676 37.4126 386.759 37.4975C386.843 37.5824 386.943 37.6499 387.053 37.6959C387.163 37.7419 387.281 37.7656 387.4 37.7656C387.519 37.7656 387.638 37.7419 387.748 37.6959C387.858 37.6499 387.957 37.5824 388.041 37.4975C388.125 37.4126 388.191 37.3118 388.235 37.2012C388.28 37.0905 388.302 36.9721 388.3 36.8528V32.2778C388.3 32.0391 388.205 31.8102 388.037 31.6414C387.868 31.4727 387.639 31.3778 387.4 31.3778H384.391C384.536 31.1276 384.658 30.8646 384.747 30.5997C385.11 29.5145 385.067 28.2066 384.119 27.3934C383.374 26.7547 382.399 26.5923 381.55 26.7747C380.701 26.9571 379.93 27.4028 379.197 27.9466C377.998 28.8365 376.891 30.01 376 30.9559C375.109 30.01 374.003 28.8365 372.803 27.9466C372.071 27.4028 371.299 26.9571 370.45 26.7747C370.238 26.7291 370.016 26.7099 369.794 26.7091ZM369.644 28.4997C369.77 28.4923 369.908 28.5014 370.075 28.5372C370.52 28.6327 371.118 28.9419 371.735 29.3997C372.46 29.9378 373.203 30.663 373.9 31.3778H370.291C370.269 31.3676 370.247 31.3582 370.225 31.3497C369.647 31.1877 369.166 30.6434 368.96 30.0278C368.753 29.4122 368.886 28.9056 369.053 28.7622C369.26 28.5846 369.434 28.512 369.644 28.4997ZM382.225 28.4997C382.498 28.4829 382.699 28.5491 382.947 28.7622C383.114 28.9056 383.247 29.4122 383.041 30.0278C382.835 30.6434 382.354 31.1877 381.775 31.3497C381.747 31.3577 381.718 31.3671 381.691 31.3778H378.1C378.797 30.663 379.541 29.9378 380.266 29.3997C380.883 28.9419 381.481 28.6327 381.925 28.5372C382.036 28.5133 382.134 28.5053 382.225 28.4997ZM366.766 37.7528H373.291V42.7684H366.766V37.7528ZM375.091 37.7528H376.91V49.4997H375.091V37.7528ZM366.766 44.5684H373.291V49.4997H366.766V44.5684Z" fill="#727272"/>
</g>
<defs>
<filter id="filter0_d" x="0" y="0" width="454" height="123" filterUnits="userSpaceOnUse" color-interpolation-filters="sRGB">
<feFlood flood-opacity="0" result="BackgroundImageFix"/>
<feColorMatrix in="SourceAlpha" type="matrix" values="0 0 0 0 0 0 0 0 0 0 0 0 0 0 0 0 0 0 127 0"/>
<feOffset dy="4"/>
<feGaussianBlur stdDeviation="10"/>
<feColorMatrix type="matrix" values="0 0 0 0 0 0 0 0 0 0 0 0 0 0 0 0 0 0 0.15 0"/>
<feBlend mode="normal" in2="BackgroundImageFix" result="effect1_dropShadow"/>
<feBlend mode="normal" in="SourceGraphic" in2="effect1_dropShadow" result="shape"/>
</filter>
<clipPath id="clip0">
<rect width="24" height="24" fill="white" transform="translate(299 28)"/>
</clipPath>
<clipPath id="clip1">
<rect width="48" height="48" fill="white" transform="translate(203 16)"/>
</clipPath>
</defs>
</svg>
