<svg width="454" height="120" viewBox="0 0 454 120" fill="none" xmlns="http://www.w3.org/2000/svg">
<g filter="url(#filter0_d)">
<line x1="20" y1="18.9023" x2="434" y2="18.9023" stroke="#E9E9E9"/>
<rect x="20" y="19.4023" width="414" height="76.5342" fill="white"/>
<path d="M58 37.5707C58 36.5949 58.4746 35.6801 59.2723 35.1181L68 28.9697L76.7277 35.1181C77.5254 35.6801 78 36.5949 78 37.5707V47.5168C78 48.8975 76.8807 50.0168 75.5 50.0168H72C71.4477 50.0168 71 49.5691 71 49.0168V43.3417C71 43.0655 70.7761 42.8417 70.5 42.8417H65.5C65.2239 42.8417 65 43.0655 65 43.3417V49.0168C65 49.5691 64.5523 50.0168 64 50.0168H60.5C59.1193 50.0168 58 48.8975 58 47.5168V37.5707Z" fill="#4F4E90" stroke="#4F4E90" stroke-width="2" stroke-linecap="round" stroke-linejoin="round"/>
<path d="M57.8408 72.583V62.7188H55.7764V66.7246H51.333V62.7188H49.2686V72.583H51.333V68.4268H55.7764V72.583H57.8408ZM62.6738 72.7402C64.8887 72.7402 66.3037 71.3252 66.3037 68.9121C66.3037 66.5332 64.8682 65.0977 62.6738 65.0977C60.4795 65.0977 59.0439 66.54 59.0439 68.9121C59.0439 71.3184 60.459 72.7402 62.6738 72.7402ZM62.6738 71.2158C61.6895 71.2158 61.0674 70.3887 61.0674 68.9189C61.0674 67.4629 61.7031 66.6221 62.6738 66.6221C63.6445 66.6221 64.2734 67.4629 64.2734 68.9189C64.2734 70.3887 63.6514 71.2158 62.6738 71.2158ZM67.3359 72.583H69.332V68.1602C69.332 67.3398 69.8447 66.7656 70.6035 66.7656C71.3418 66.7656 71.7861 67.2305 71.7861 68.0166V72.583H73.707V68.1328C73.707 67.3193 74.2061 66.7656 74.9648 66.7656C75.7373 66.7656 76.1611 67.2305 76.1611 68.0781V72.583H78.1572V67.5791C78.1572 66.1025 77.1934 65.1182 75.7578 65.1182C74.6846 65.1182 73.8096 65.6992 73.4814 66.6221H73.4404C73.1943 65.665 72.4561 65.1182 71.3965 65.1182C70.3984 65.1182 69.6123 65.6992 69.3047 66.5811H69.2637V65.2549H67.3359V72.583ZM84.2754 70.3408C84.0908 70.9014 83.5303 71.2637 82.7988 71.2637C81.7803 71.2637 81.1172 70.5459 81.1172 69.5V69.377H86.1689V68.7686C86.1689 66.54 84.8223 65.0977 82.6895 65.0977C80.5225 65.0977 79.1553 66.6152 79.1553 68.9531C79.1553 71.2979 80.5088 72.7402 82.7646 72.7402C84.5762 72.7402 85.8887 71.7764 86.1074 70.3408H84.2754ZM82.71 66.5742C83.5986 66.5742 84.207 67.2168 84.248 68.1533H81.1377C81.2061 67.2373 81.835 66.5742 82.71 66.5742Z" fill="black"/>
<path d="M301.312 72.7471C303.493 72.7471 304.956 71.6602 305.407 69.7119H304.163C303.808 70.915 302.769 71.6123 301.319 71.6123C299.371 71.6123 298.134 70.0674 298.134 67.6475C298.134 65.248 299.385 63.6895 301.312 63.6895C302.721 63.6895 303.849 64.5371 304.163 65.8291H305.407C305.093 63.8604 303.459 62.5547 301.312 62.5547C298.612 62.5547 296.869 64.5508 296.869 67.6475C296.869 70.7715 298.592 72.7471 301.312 72.7471ZM306.74 72.583H307.93V68.4404C307.93 67.21 308.661 66.4033 309.844 66.4033C310.958 66.4033 311.525 67.0801 311.525 68.208V72.583H312.715V67.9893C312.715 66.4033 311.771 65.3506 310.213 65.3506C309.133 65.3506 308.354 65.8154 307.957 66.6084H307.93V62.7188H306.74V72.583ZM316.304 72.7061C317.261 72.7061 318.163 72.1729 318.587 71.3594H318.614V72.583H319.742V67.668C319.742 66.2529 318.689 65.3506 317.021 65.3506C315.34 65.3506 314.287 66.2939 314.205 67.5244H315.354C315.504 66.8271 316.078 66.3965 316.994 66.3965C317.979 66.3965 318.553 66.916 318.553 67.7842V68.3789L316.516 68.4951C314.875 68.5908 313.938 69.3564 313.938 70.5732C313.938 71.8516 314.889 72.7061 316.304 72.7061ZM316.57 71.6943C315.716 71.6943 315.148 71.25 315.148 70.5732C315.148 69.9033 315.695 69.4795 316.652 69.418L318.553 69.3018V69.8828C318.553 70.9082 317.691 71.6943 316.57 71.6943ZM321.636 63.7578V65.4736H320.576V66.4512H321.636V70.7373C321.636 72.1045 322.142 72.6377 323.447 72.6377C323.728 72.6377 324.056 72.6172 324.199 72.583V71.585C324.117 71.5986 323.844 71.6191 323.707 71.6191C323.099 71.6191 322.825 71.3252 322.825 70.6758V66.4512H324.206V65.4736H322.825V63.7578H321.636Z" fill="#727272"/>
<g clip-path="url(#clip0)">
<mask id="path-6-inside-1" fill="white">
<path d="M299.809 50.9729C299.68 50.9783 299.551 50.9539 299.434 50.9019C299.317 50.8498 299.214 50.7716 299.135 50.6738C299.055 50.576 299.002 50.4615 298.978 50.3397C298.955 50.218 298.962 50.0927 299 49.9743L300.529 45.1438C299.093 42.723 298.624 39.8861 299.207 37.1592C299.791 34.4323 301.388 32.0003 303.703 30.3141C306.018 28.6278 308.893 27.8017 311.796 27.989C314.699 28.1762 317.432 29.364 319.49 31.3322C321.547 33.3004 322.789 35.9155 322.984 38.6926C323.18 41.4698 322.316 44.2207 320.554 46.4352C318.791 48.6498 316.249 50.1778 313.399 50.7361C310.548 51.2943 307.583 50.8449 305.053 49.4711L300.044 50.9342C299.968 50.9581 299.889 50.9712 299.809 50.9729ZM305.198 47.8765C305.347 47.8774 305.493 47.9176 305.619 47.9926C307.795 49.2599 310.381 49.7204 312.888 49.2867C315.394 48.8531 317.648 47.5555 319.222 45.6395C320.797 43.7234 321.582 41.3218 321.43 38.8891C321.278 36.4563 320.2 34.1612 318.399 32.4379C316.597 30.7146 314.198 29.6828 311.655 29.5375C309.112 29.3923 306.602 30.1438 304.599 31.6498C302.597 33.1558 301.24 35.3119 300.787 37.7101C300.334 40.1083 300.815 42.5822 302.14 44.6639C302.198 44.757 302.236 44.8611 302.25 44.9691C302.264 45.0772 302.254 45.1868 302.221 45.2909L301.023 49.0376L304.964 47.8919C305.04 47.8707 305.119 47.8602 305.198 47.861V47.8765Z"/>
</mask>
<path d="M299.809 50.9729C299.68 50.9783 299.551 50.9539 299.434 50.9019C299.317 50.8498 299.214 50.7716 299.135 50.6738C299.055 50.576 299.002 50.4615 298.978 50.3397C298.955 50.218 298.962 50.0927 299 49.9743L300.529 45.1438C299.093 42.723 298.624 39.8861 299.207 37.1592C299.791 34.4323 301.388 32.0003 303.703 30.3141C306.018 28.6278 308.893 27.8017 311.796 27.989C314.699 28.1762 317.432 29.364 319.49 31.3322C321.547 33.3004 322.789 35.9155 322.984 38.6926C323.18 41.4698 322.316 44.2207 320.554 46.4352C318.791 48.6498 316.249 50.1778 313.399 50.7361C310.548 51.2943 307.583 50.8449 305.053 49.4711L300.044 50.9342C299.968 50.9581 299.889 50.9712 299.809 50.9729ZM305.198 47.8765C305.347 47.8774 305.493 47.9176 305.619 47.9926C307.795 49.2599 310.381 49.7204 312.888 49.2867C315.394 48.8531 317.648 47.5555 319.222 45.6395C320.797 43.7234 321.582 41.3218 321.43 38.8891C321.278 36.4563 320.2 34.1612 318.399 32.4379C316.597 30.7146 314.198 29.6828 311.655 29.5375C309.112 29.3923 306.602 30.1438 304.599 31.6498C302.597 33.1558 301.24 35.3119 300.787 37.7101C300.334 40.1083 300.815 42.5822 302.14 44.6639C302.198 44.757 302.236 44.8611 302.25 44.9691C302.264 45.0772 302.254 45.1868 302.221 45.2909L301.023 49.0376L304.964 47.8919C305.04 47.8707 305.119 47.8602 305.198 47.861V47.8765Z" fill="#727272"/>
<path d="M299 49.9743L300.906 50.5802L300.907 50.578L299 49.9743ZM300.529 45.1438L302.436 45.7475L302.706 44.8937L302.25 44.1235L300.529 45.1438ZM305.053 49.4711L306.007 47.7135L305.283 47.3203L304.492 47.5514L305.053 49.4711ZM300.044 50.9342L299.483 49.0145L299.463 49.0204L299.442 49.0268L300.044 50.9342ZM305.198 47.8765H303.198V49.8634L305.185 49.8764L305.198 47.8765ZM305.619 47.9926L304.599 49.7129L304.606 49.7169L304.612 49.7208L305.619 47.9926ZM302.14 44.6639L303.831 43.5964L303.827 43.5901L302.14 44.6639ZM302.221 45.2909L300.316 44.6805L300.316 44.682L302.221 45.2909ZM301.023 49.0376L299.118 48.4287L297.974 52.0068L301.581 50.9581L301.023 49.0376ZM304.964 47.8919L304.426 45.9656L304.416 45.9685L304.405 45.9715L304.964 47.8919ZM305.198 47.861H307.198V45.8797L305.217 45.8611L305.198 47.861ZM299.726 48.9747C299.902 48.9674 300.079 49.0001 300.245 49.0736L298.623 52.7302C299.024 52.9077 299.458 52.9892 299.892 52.9712L299.726 48.9747ZM300.245 49.0736C300.411 49.1472 300.565 49.2617 300.689 49.4147L297.581 51.9329C297.863 52.2816 298.223 52.5525 298.623 52.7302L300.245 49.0736ZM300.689 49.4147C300.813 49.5682 300.903 49.7552 300.942 49.9617L297.015 50.7178C297.101 51.1677 297.298 51.5838 297.581 51.9329L300.689 49.4147ZM300.942 49.9617C300.982 50.1685 300.969 50.3814 300.906 50.5802L297.094 49.3685C296.956 49.8041 296.928 50.2676 297.015 50.7178L300.942 49.9617ZM300.907 50.578L302.436 45.7475L298.623 44.5401L297.093 49.3707L300.907 50.578ZM302.25 44.1235C301.068 42.131 300.686 39.8074 301.163 37.5777L297.252 36.7407C296.562 39.9649 297.119 43.3149 298.809 46.1641L302.25 44.1235ZM301.163 37.5777C301.64 35.3465 302.952 33.3355 304.88 31.9306L302.525 28.6975C299.824 30.6651 297.941 33.5182 297.252 36.7407L301.163 37.5777ZM304.88 31.9306C306.811 30.5243 309.223 29.8272 311.667 29.9848L311.925 25.9931C308.563 25.7763 305.224 26.7314 302.525 28.6975L304.88 31.9306ZM311.667 29.9848C314.112 30.1424 316.398 31.1422 318.107 32.7774L320.872 29.887C318.467 27.5858 315.286 26.2099 311.925 25.9931L311.667 29.9848ZM318.107 32.7774C319.814 34.4105 320.829 36.5642 320.989 38.8332L324.979 38.5521C324.748 35.2668 323.28 32.1903 320.872 29.887L318.107 32.7774ZM320.989 38.8332C321.149 41.1017 320.445 43.3598 318.989 45.1897L322.119 47.6807C324.187 45.0815 325.211 41.8379 324.979 38.5521L320.989 38.8332ZM318.989 45.1897C317.531 47.0221 315.412 48.3038 313.014 48.7734L313.783 52.6988C317.086 52.0518 320.052 50.2774 322.119 47.6807L318.989 45.1897ZM313.014 48.7734C310.616 49.2431 308.125 48.8632 306.007 47.7135L304.098 51.2288C307.042 52.8266 310.481 53.3456 313.783 52.6988L313.014 48.7734ZM304.492 47.5514L299.483 49.0145L300.605 52.854L305.613 51.3909L304.492 47.5514ZM299.442 49.0268C299.548 48.9936 299.657 48.9758 299.765 48.9734L299.853 52.9725C300.122 52.9665 300.388 52.9227 300.645 52.8416L299.442 49.0268ZM305.185 49.8764C304.984 49.8751 304.781 49.821 304.599 49.7129L306.639 46.2723C306.204 46.0142 305.71 45.8798 305.211 45.8765L305.185 49.8764ZM304.612 49.7208C307.2 51.2277 310.263 51.7704 313.229 51.2575L312.547 47.316C310.499 47.6703 308.39 47.2922 306.626 46.2644L304.612 49.7208ZM313.229 51.2575C316.195 50.7444 318.881 49.2061 320.768 46.9091L317.677 44.3698C316.416 45.905 314.594 46.9618 312.547 47.316L313.229 51.2575ZM320.768 46.9091C322.657 44.6096 323.61 41.7119 323.426 38.7645L319.434 39.0136C319.554 40.9317 318.936 42.8372 317.677 44.3698L320.768 46.9091ZM323.426 38.7645C323.243 35.8176 321.937 33.0547 319.781 30.9927L317.016 33.8831C318.463 35.2676 319.314 37.095 319.434 39.0136L323.426 38.7645ZM319.781 30.9927C317.628 28.9328 314.776 27.7125 311.769 27.5408L311.541 31.5343C313.621 31.653 315.567 32.4964 317.016 33.8831L319.781 30.9927ZM311.769 27.5408C308.763 27.3691 305.785 28.2561 303.397 30.0513L305.801 33.2483C307.42 32.0315 309.462 31.4155 311.541 31.5343L311.769 27.5408ZM303.397 30.0513C301.008 31.8481 299.37 34.4364 298.822 37.3387L302.752 38.0815C303.11 36.1874 304.185 34.4635 305.801 33.2483L303.397 30.0513ZM298.822 37.3387C298.273 40.2425 298.858 43.2324 300.452 45.7376L303.827 43.5901C302.772 41.9321 302.394 39.9741 302.752 38.0815L298.822 37.3387ZM300.448 45.7313C300.354 45.5814 300.29 45.409 300.266 45.2251L304.234 44.7131C304.182 44.3131 304.043 43.9327 303.831 43.5964L300.448 45.7313ZM300.266 45.2251C300.243 45.0411 300.26 44.855 300.316 44.6805L304.125 45.9013C304.248 45.5187 304.285 45.1133 304.234 44.7131L300.266 45.2251ZM300.316 44.682L299.118 48.4287L302.928 49.6465L304.126 45.8998L300.316 44.682ZM301.581 50.9581L305.522 49.8124L304.405 45.9715L300.465 47.1172L301.581 50.9581ZM305.502 49.8183C305.396 49.8477 305.288 49.8619 305.18 49.8609L305.217 45.8611C304.95 45.8586 304.684 45.8936 304.426 45.9656L305.502 49.8183ZM303.198 47.861V47.8765H307.198V47.861H303.198Z" fill="#727272" mask="url(#path-6-inside-1)"/>
</g>
<rect x="160" y="83.4097" width="134" height="5" rx="2.5" fill="black"/>
<path d="M133.455 72.583V62.7188H132.225V66.9844H126.811V62.7188H125.58V72.583H126.811V68.0918H132.225V72.583H133.455ZM135.841 64.209C136.258 64.209 136.586 63.874 136.586 63.4639C136.586 63.0469 136.258 62.7188 135.841 62.7188C135.431 62.7188 135.096 63.0469 135.096 63.4639C135.096 63.874 135.431 64.209 135.841 64.209ZM135.246 72.583H136.436V65.4736H135.246V72.583ZM137.919 67.4355C137.919 68.4609 138.568 69.083 139.908 69.4043L141.036 69.6777C141.85 69.876 142.13 70.1699 142.13 70.6826C142.13 71.3252 141.535 71.7354 140.571 71.7354C139.607 71.7354 139.061 71.3457 138.917 70.5322H137.728C137.864 71.8652 138.903 72.7061 140.571 72.7061C142.157 72.7061 143.326 71.8311 143.326 70.5938C143.326 69.5752 142.807 69.0146 141.371 68.666L140.243 68.3926C139.45 68.2012 139.088 67.8662 139.088 67.374C139.088 66.752 139.662 66.3213 140.53 66.3213C141.405 66.3213 141.952 66.7793 142.041 67.5244H143.176C143.128 66.2666 142.089 65.3506 140.53 65.3506C138.992 65.3506 137.919 66.2188 137.919 67.4355ZM144.946 63.7578V65.4736H143.887V66.4512H144.946V70.7373C144.946 72.1045 145.452 72.6377 146.758 72.6377C147.038 72.6377 147.366 72.6172 147.51 72.583V71.585C147.428 71.5986 147.154 71.6191 147.018 71.6191C146.409 71.6191 146.136 71.3252 146.136 70.6758V66.4512H147.517V65.4736H146.136V63.7578H144.946ZM151.529 72.7061C153.491 72.7061 154.817 71.291 154.817 69.0283C154.817 66.7588 153.491 65.3506 151.529 65.3506C149.561 65.3506 148.234 66.7588 148.234 69.0283C148.234 71.291 149.561 72.7061 151.529 72.7061ZM151.529 71.6602C150.271 71.6602 149.444 70.7031 149.444 69.0283C149.444 67.3535 150.271 66.3965 151.529 66.3965C152.787 66.3965 153.607 67.3535 153.607 69.0283C153.607 70.7031 152.787 71.6602 151.529 71.6602ZM156.021 72.583H157.21V68.1533C157.21 67.1484 157.812 66.4854 158.734 66.4854C159.021 66.4854 159.274 66.5195 159.37 66.5537V65.3984C159.274 65.3848 159.097 65.3506 158.892 65.3506C158.058 65.3506 157.401 65.8496 157.169 66.6357H157.142V65.4736H156.021V72.583ZM160.936 75.2422C162.221 75.2422 162.809 74.7432 163.417 73.082L166.213 65.4736H164.962L162.993 71.3936H162.973L161.004 65.4736H159.732L162.357 72.5898L162.193 73.0889C161.92 73.916 161.551 74.2373 160.888 74.2373C160.737 74.2373 160.553 74.2305 160.423 74.2031V75.2012C160.553 75.2285 160.792 75.2422 160.936 75.2422Z" fill="#727272"/>
<path d="M148.313 45.5913C148.041 45.5913 147.769 45.4917 147.56 45.2945L143.31 41.2286C143.113 41.0375 143 40.7793 143 40.5089V34.41C143 33.8489 143.476 33.3936 144.063 33.3936C144.649 33.3936 145.125 33.8489 145.125 34.41V40.0881L149.065 43.8572C149.479 44.2536 149.479 44.8981 149.065 45.2945C148.857 45.4917 148.585 45.5913 148.313 45.5913Z" fill="#727272"/>
<path d="M134.5 46.608C134.228 46.608 133.956 46.5084 133.748 46.3112L128.435 41.2288C128.021 40.8323 128.021 40.1879 128.435 39.7915C128.85 39.395 129.523 39.395 129.938 39.7915L134.5 44.1542L139.06 39.7915C139.475 39.395 140.148 39.395 140.563 39.7915C140.977 40.1879 140.977 40.8323 140.563 41.2288L135.25 46.3112C135.044 46.5084 134.772 46.608 134.5 46.608Z" fill="#727272"/>
<path d="M145.125 51.6904C142.885 51.6904 140.68 51.1232 138.748 50.0478C138.24 49.7652 138.068 49.1431 138.363 48.6573C138.659 48.1714 139.309 48.0067 139.815 48.2873C141.423 49.1858 143.259 49.6575 145.125 49.6575C150.984 49.6575 155.75 45.0975 155.75 39.4927C155.75 35.8638 153.716 32.4952 150.44 30.6981C148.825 29.7995 146.989 29.3279 145.125 29.3279C139.266 29.3279 134.5 33.8878 134.5 39.4927C134.5 39.7936 134.517 40.0985 134.555 40.3831C134.7 41.9973 135.526 45.3252 135.533 45.3557C135.669 45.9046 135.316 46.4515 134.744 46.5816C134.181 46.7219 133.601 46.3742 133.465 45.8294C133.429 45.6871 132.596 42.3205 132.441 40.5986C132.398 40.2693 132.375 39.881 132.375 39.4927C132.375 32.7656 138.093 27.2949 145.125 27.2949C147.365 27.2949 149.568 27.8621 151.502 28.9376C155.431 31.0925 157.875 35.1381 157.875 39.4927C157.875 46.2197 152.157 51.6904 145.125 51.6904Z" fill="#727272"/>
<path d="M197.226 72.583H198.518L194.881 62.7188H193.664L190.027 72.583H191.319L192.311 69.7598H196.234L197.226 72.583ZM194.252 64.2158H194.293L195.872 68.7139H192.673L194.252 64.2158ZM202.018 72.7061C203.043 72.7061 203.856 72.2002 204.314 71.3799H204.335V72.583H205.47V62.7188H204.28V66.6289H204.253C203.829 65.8496 203.009 65.3506 201.99 65.3506C200.199 65.3506 198.976 66.7998 198.976 69.0283C198.976 71.2568 200.206 72.7061 202.018 72.7061ZM202.243 66.3965C203.467 66.3965 204.287 67.4424 204.287 69.0283C204.287 70.6211 203.467 71.6602 202.243 71.6602C200.985 71.6602 200.192 70.6416 200.192 69.0283C200.192 67.4219 200.985 66.3965 202.243 66.3965ZM209.77 72.7061C210.795 72.7061 211.608 72.2002 212.066 71.3799H212.087V72.583H213.222V62.7188H212.032V66.6289H212.005C211.581 65.8496 210.761 65.3506 209.742 65.3506C207.951 65.3506 206.728 66.7998 206.728 69.0283C206.728 71.2568 207.958 72.7061 209.77 72.7061ZM209.995 66.3965C211.219 66.3965 212.039 67.4424 212.039 69.0283C212.039 70.6211 211.219 71.6602 209.995 71.6602C208.737 71.6602 207.944 70.6416 207.944 69.0283C207.944 67.4219 208.737 66.3965 209.995 66.3965ZM217.884 62.7188V72.583H219.114V69.0625H221.391C223.243 69.0625 224.562 67.7568 224.562 65.8838C224.562 64.0176 223.257 62.7188 221.404 62.7188H217.884ZM219.114 63.8125H221.083C222.498 63.8125 223.298 64.5781 223.298 65.8838C223.298 67.1963 222.491 67.9688 221.083 67.9688H219.114V63.8125ZM227.256 72.7061C228.213 72.7061 229.115 72.1729 229.539 71.3594H229.566V72.583H230.694V67.668C230.694 66.2529 229.642 65.3506 227.974 65.3506C226.292 65.3506 225.239 66.2939 225.157 67.5244H226.306C226.456 66.8271 227.03 66.3965 227.946 66.3965C228.931 66.3965 229.505 66.916 229.505 67.7842V68.3789L227.468 68.4951C225.827 68.5908 224.891 69.3564 224.891 70.5732C224.891 71.8516 225.841 72.7061 227.256 72.7061ZM227.522 71.6943C226.668 71.6943 226.101 71.25 226.101 70.5732C226.101 69.9033 226.647 69.4795 227.604 69.418L229.505 69.3018V69.8828C229.505 70.9082 228.644 71.6943 227.522 71.6943ZM238.111 67.8047C237.961 66.5264 236.901 65.3506 235.124 65.3506C233.162 65.3506 231.856 66.7861 231.856 69.0283C231.856 71.3184 233.169 72.7061 235.138 72.7061C236.751 72.7061 237.94 71.708 238.125 70.293H236.956C236.751 71.1475 236.115 71.6602 235.145 71.6602C233.914 71.6602 233.066 70.6826 233.066 69.0283C233.066 67.415 233.9 66.3965 235.131 66.3965C236.177 66.3965 236.778 67.0322 236.949 67.8047H238.111ZM240.47 69.9033L241.133 69.2744L243.771 72.583H245.152L241.974 68.543L245.057 65.4736H243.614L240.47 68.6318V62.7188H239.28V72.583H240.47V69.9033ZM248.092 72.7061C249.049 72.7061 249.951 72.1729 250.375 71.3594H250.402V72.583H251.53V67.668C251.53 66.2529 250.478 65.3506 248.81 65.3506C247.128 65.3506 246.075 66.2939 245.993 67.5244H247.142C247.292 66.8271 247.866 66.3965 248.782 66.3965C249.767 66.3965 250.341 66.916 250.341 67.7842V68.3789L248.304 68.4951C246.663 68.5908 245.727 69.3564 245.727 70.5732C245.727 71.8516 246.677 72.7061 248.092 72.7061ZM248.358 71.6943C247.504 71.6943 246.937 71.25 246.937 70.5732C246.937 69.9033 247.483 69.4795 248.44 69.418L250.341 69.3018V69.8828C250.341 70.9082 249.479 71.6943 248.358 71.6943ZM255.974 75.2627C257.936 75.2627 259.187 74.1348 259.187 72.4395V65.4736H258.052V66.6699H258.031C257.56 65.8428 256.726 65.3506 255.721 65.3506C253.882 65.3506 252.692 66.7725 252.692 69.001C252.692 71.209 253.882 72.6377 255.693 72.6377C256.691 72.6377 257.532 72.1318 257.97 71.3594H257.997V72.4805C257.997 73.54 257.252 74.251 256.021 74.251C255.133 74.251 254.429 73.8203 254.196 73.1709H252.973C253.171 74.3809 254.408 75.2627 255.974 75.2627ZM255.933 71.5918C254.709 71.5918 253.909 70.5938 253.909 69.001C253.909 67.4082 254.709 66.3965 255.933 66.3965C257.17 66.3965 257.997 67.4355 257.997 69.001C257.997 70.5664 257.17 71.5918 255.933 71.5918ZM265.455 70.5459C265.257 71.2158 264.594 71.6738 263.691 71.6738C262.413 71.6738 261.613 70.7783 261.613 69.418V69.3496H266.713V68.8984C266.713 66.7451 265.53 65.3506 263.609 65.3506C261.647 65.3506 260.39 66.8477 260.39 69.0557C260.39 71.291 261.627 72.7061 263.664 72.7061C265.216 72.7061 266.419 71.79 266.624 70.5459H265.455ZM263.589 66.3828C264.71 66.3828 265.455 67.2305 265.482 68.4199H261.62C261.695 67.2373 262.475 66.3828 263.589 66.3828Z" fill="#727272"/>
<g clip-path="url(#clip1)">
<path d="M227 25.7173C219.059 25.7173 212.6 31.8957 212.6 39.4932C212.6 47.0906 219.059 53.2695 227 53.2695C234.942 53.2695 241.4 47.0906 241.4 39.4932C241.4 31.8957 234.942 25.7173 227 25.7173ZM227 27.5505C233.904 27.5505 239.488 32.8884 239.488 39.4932C239.488 46.098 233.904 51.4255 227 51.4255C220.096 51.4255 214.528 46.098 214.528 39.4932C214.528 32.8884 220.096 27.5505 227 27.5505ZM226.985 33.2151C226.858 33.2165 226.733 33.242 226.617 33.2899C226.5 33.3378 226.395 33.4073 226.307 33.4943C226.218 33.5814 226.149 33.6843 226.103 33.7971C226.056 33.9099 226.034 34.0303 226.036 34.1515V38.5714H221.416C221.382 38.5697 221.349 38.5697 221.315 38.5714C221.061 38.586 220.823 38.696 220.653 38.8777C220.483 39.0594 220.396 39.298 220.409 39.5413C220.422 39.7846 220.536 40.0132 220.724 40.1769C220.913 40.3406 221.162 40.4262 221.416 40.4152H226.036V44.8351C226.035 44.9568 226.059 45.0776 226.107 45.1904C226.155 45.3032 226.226 45.4058 226.315 45.4923C226.405 45.5788 226.512 45.6474 226.629 45.6942C226.746 45.741 226.872 45.7652 227 45.7652C227.127 45.7652 227.253 45.741 227.37 45.6942C227.488 45.6474 227.595 45.5788 227.684 45.4923C227.774 45.4058 227.845 45.3032 227.893 45.1904C227.94 45.0776 227.965 44.9568 227.963 44.8351V40.4152H232.583C232.711 40.4167 232.838 40.3941 232.956 40.3485C233.074 40.3028 233.182 40.2351 233.273 40.1493C233.363 40.0636 233.435 39.9613 233.485 39.8487C233.534 39.7361 233.559 39.6154 233.559 39.4934C233.559 39.3714 233.534 39.2505 233.485 39.1379C233.435 39.0253 233.363 38.923 233.273 38.8373C233.182 38.7515 233.074 38.684 232.956 38.6383C232.838 38.5927 232.711 38.5699 232.583 38.5714H227.963V34.1515C227.966 34.0279 227.942 33.905 227.894 33.7903C227.846 33.6756 227.774 33.5714 227.682 33.4839C227.591 33.3965 227.482 33.3276 227.362 33.2814C227.242 33.2352 227.114 33.2127 226.985 33.2151H226.985Z" fill="#727272"/>
</g>
<path d="M352.319 67.7231H354.678L356.79 71.6265H358.232L355.949 67.5317C357.187 67.1421 357.932 66.0757 357.932 64.7017C357.932 62.9243 356.688 61.7622 354.787 61.7622H351.089V71.6265H352.319V67.7231ZM352.319 62.856H354.623C355.895 62.856 356.66 63.5601 356.66 64.7427C356.66 65.9526 355.942 66.6362 354.678 66.6362H352.319V62.856ZM364.016 69.5894C363.817 70.2593 363.154 70.7173 362.252 70.7173C360.974 70.7173 360.174 69.8218 360.174 68.4614V68.3931H365.273V67.9419C365.273 65.7886 364.091 64.394 362.17 64.394C360.208 64.394 358.95 65.8911 358.95 68.0991C358.95 70.3345 360.188 71.7495 362.225 71.7495C363.776 71.7495 364.979 70.8335 365.185 69.5894H364.016ZM362.149 65.4263C363.271 65.4263 364.016 66.2739 364.043 67.4634H360.181C360.256 66.2808 361.035 65.4263 362.149 65.4263ZM375.521 64.5171H374.345L372.923 70.3003H372.896L371.282 64.5171H370.134L368.527 70.3003H368.5L367.078 64.5171H365.896L367.885 71.6265H369.095L370.694 66.1235H370.722L372.328 71.6265H373.538L375.521 64.5171ZM378.439 71.7495C379.396 71.7495 380.299 71.2163 380.723 70.4028H380.75V71.6265H381.878V66.7114C381.878 65.2964 380.825 64.394 379.157 64.394C377.476 64.394 376.423 65.3374 376.341 66.5679H377.489C377.64 65.8706 378.214 65.4399 379.13 65.4399C380.114 65.4399 380.688 65.9595 380.688 66.8276V67.4224L378.651 67.5386C377.011 67.6343 376.074 68.3999 376.074 69.6167C376.074 70.895 377.024 71.7495 378.439 71.7495ZM378.706 70.7378C377.852 70.7378 377.284 70.2935 377.284 69.6167C377.284 68.9468 377.831 68.5229 378.788 68.4614L380.688 68.3452V68.9263C380.688 69.9517 379.827 70.7378 378.706 70.7378ZM383.389 71.6265H384.578V67.1968C384.578 66.1919 385.18 65.5288 386.103 65.5288C386.39 65.5288 386.643 65.563 386.738 65.5972V64.4419C386.643 64.4282 386.465 64.394 386.26 64.394C385.426 64.394 384.77 64.8931 384.537 65.6792H384.51V64.5171H383.389V71.6265ZM390.061 71.7495C391.086 71.7495 391.899 71.2437 392.357 70.4233H392.378V71.6265H393.513V61.7622H392.323V65.6724H392.296C391.872 64.8931 391.052 64.394 390.033 64.394C388.242 64.394 387.019 65.8433 387.019 68.0718C387.019 70.3003 388.249 71.7495 390.061 71.7495ZM390.286 65.4399C391.51 65.4399 392.33 66.4858 392.33 68.0718C392.33 69.6646 391.51 70.7036 390.286 70.7036C389.028 70.7036 388.235 69.6851 388.235 68.0718C388.235 66.4653 389.028 65.4399 390.286 65.4399ZM394.996 66.479C394.996 67.5044 395.646 68.1265 396.985 68.4478L398.113 68.7212C398.927 68.9194 399.207 69.2134 399.207 69.7261C399.207 70.3687 398.612 70.7788 397.648 70.7788C396.685 70.7788 396.138 70.3892 395.994 69.5757H394.805C394.941 70.9087 395.98 71.7495 397.648 71.7495C399.234 71.7495 400.403 70.8745 400.403 69.6372C400.403 68.6187 399.884 68.0581 398.448 67.7095L397.32 67.436C396.527 67.2446 396.165 66.9097 396.165 66.4175C396.165 65.7954 396.739 65.3647 397.607 65.3647C398.482 65.3647 399.029 65.8228 399.118 66.5679H400.253C400.205 65.3101 399.166 64.394 397.607 64.394C396.069 64.394 394.996 65.2622 394.996 66.479Z" fill="#727272"/>
<path d="M369.794 26.7777C369.572 26.7769 369.35 26.7936 369.128 26.8405C368.684 26.9344 368.254 27.1269 367.881 27.4324C366.933 28.2104 366.89 29.4616 367.253 30.4998C367.342 30.7532 367.465 31.0048 367.61 31.2442H364.6C364.569 31.2426 364.538 31.2426 364.506 31.2442C364.284 31.2665 364.079 31.3669 363.93 31.526C363.781 31.6851 363.699 31.8916 363.7 32.1052V36.482C363.7 36.7103 363.795 36.9293 363.964 37.0908C364.133 37.2522 364.362 37.343 364.6 37.343H364.966V42.8498C364.948 42.9477 364.948 43.0479 364.966 43.1458V49.4419C364.966 49.6703 365.061 49.8892 365.229 50.0507C365.398 50.2122 365.627 50.3029 365.866 50.3029H386.135C386.373 50.3029 386.602 50.2122 386.771 50.0507C386.94 49.8892 387.035 49.6703 387.035 49.4419V40.0067C387.036 39.8926 387.014 39.7793 386.97 39.6735C386.925 39.5676 386.859 39.4712 386.776 39.39C386.692 39.3087 386.592 39.2442 386.482 39.2002C386.372 39.1561 386.254 39.1334 386.135 39.1334C386.015 39.1334 385.897 39.1561 385.787 39.2002C385.677 39.2442 385.577 39.3087 385.494 39.39C385.41 39.4712 385.344 39.5676 385.299 39.6735C385.255 39.7793 385.233 39.8926 385.235 40.0067V48.5809H378.71V43.8633H384.26C384.379 43.8649 384.497 43.8438 384.608 43.8013C384.719 43.7587 384.819 43.6956 384.904 43.6155C384.989 43.5354 385.057 43.4399 385.103 43.3346C385.149 43.2294 385.172 43.1164 385.172 43.0023C385.172 42.8882 385.149 42.7752 385.103 42.67C385.057 42.5647 384.989 42.4692 384.904 42.3891C384.819 42.309 384.719 42.2459 384.608 42.2033C384.497 42.1608 384.379 42.1397 384.26 42.1413H378.71V37.343H383.181C383.301 37.3446 383.419 37.3235 383.53 37.281C383.64 37.2384 383.741 37.1753 383.826 37.0951C383.911 37.015 383.979 36.9196 384.025 36.8143C384.071 36.709 384.094 36.5961 384.094 36.482C384.094 36.3679 384.071 36.2549 384.025 36.1496C383.979 36.0444 383.911 35.9489 383.826 35.8688C383.741 35.7887 383.64 35.7255 383.53 35.683C383.419 35.6404 383.301 35.6194 383.181 35.621H365.5V32.9662H386.5V36.482C386.499 36.5961 386.521 36.7093 386.565 36.8152C386.61 36.9211 386.676 37.0175 386.759 37.0987C386.843 37.18 386.943 37.2445 387.053 37.2885C387.163 37.3326 387.281 37.3552 387.4 37.3552C387.519 37.3552 387.638 37.3326 387.748 37.2885C387.858 37.2445 387.957 37.18 388.041 37.0987C388.125 37.0175 388.191 36.9211 388.235 36.8152C388.28 36.7093 388.302 36.5961 388.3 36.482V32.1052C388.3 31.8768 388.205 31.6579 388.037 31.4964C387.868 31.3349 387.639 31.2442 387.4 31.2442H384.391C384.536 31.0048 384.658 30.7532 384.747 30.4998C385.11 29.4616 385.067 28.2104 384.119 27.4324C383.374 26.8214 382.399 26.666 381.55 26.8405C380.701 27.015 379.93 27.4414 379.197 27.9616C377.998 28.813 376.891 29.9356 376 30.8406C375.109 29.9356 374.003 28.813 372.803 27.9616C372.071 27.4414 371.299 27.015 370.45 26.8405C370.238 26.7969 370.016 26.7786 369.794 26.7777ZM369.644 28.4908C369.77 28.4837 369.908 28.4924 370.075 28.5266C370.52 28.618 371.118 28.9138 371.735 29.3518C372.46 29.8665 373.203 30.5603 373.9 31.2442H370.291C370.269 31.2344 370.247 31.2254 370.225 31.2173C369.647 31.0623 369.166 30.5416 368.96 29.9527C368.753 29.3637 368.886 28.879 369.053 28.7419C369.26 28.572 369.434 28.5025 369.644 28.4908ZM382.225 28.4908C382.498 28.4747 382.699 28.538 382.947 28.7419C383.114 28.879 383.247 29.3637 383.041 29.9527C382.835 30.5416 382.354 31.0623 381.775 31.2173C381.747 31.2249 381.718 31.2339 381.691 31.2442H378.1C378.797 30.5603 379.541 29.8665 380.266 29.3518C380.883 28.9138 381.481 28.618 381.925 28.5266C382.036 28.5038 382.134 28.4961 382.225 28.4908ZM366.766 37.343H373.291V42.1413H366.766V37.343ZM375.091 37.343H376.91V48.5809H375.091V37.343ZM366.766 43.8633H373.291V48.5809H366.766V43.8633Z" fill="#727272"/>
</g>
<defs>
<filter id="filter0_d" x="0" y="0.532715" width="454" height="119.404" filterUnits="userSpaceOnUse" color-interpolation-filters="sRGB">
<feFlood flood-opacity="0" result="BackgroundImageFix"/>
<feColorMatrix in="SourceAlpha" type="matrix" values="0 0 0 0 0 0 0 0 0 0 0 0 0 0 0 0 0 0 127 0"/>
<feOffset dy="4"/>
<feGaussianBlur stdDeviation="10"/>
<feColorMatrix type="matrix" values="0 0 0 0 0 0 0 0 0 0 0 0 0 0 0 0 0 0 0.15 0"/>
<feBlend mode="normal" in2="BackgroundImageFix" result="effect1_dropShadow"/>
<feBlend mode="normal" in="SourceGraphic" in2="effect1_dropShadow" result="shape"/>
</filter>
<clipPath id="clip0">
<rect width="24" height="22.9604" fill="white" transform="translate(299 28.0127)"/>
</clipPath>
<clipPath id="clip1">
<rect width="48" height="45.9204" fill="white" transform="translate(203 16.5327)"/>
</clipPath>
</defs>
</svg>
